<svg width="101" height="100" viewBox="0 0 101 100" fill="none" xmlns="http://www.w3.org/2000/svg">
<path d="M74.0527 72.1694C74.7 72.1694 75.2246 71.6447 75.2246 70.9976V65.9866H80.2356C80.8829 65.9866 81.4075 65.4619 81.4075 64.8147C81.4075 64.1674 80.8829 63.6428 80.2356 63.6428H75.2246V58.6318C75.2246 57.9846 74.7 57.46 74.0527 57.46C73.4056 57.46 72.8809 57.9846 72.8809 58.6318V63.6428H67.8699C67.2227 63.6428 66.698 64.1674 66.698 64.8147C66.698 65.4619 67.2227 65.9866 67.8699 65.9866H72.8809V70.9976C72.8809 71.6447 73.4056 72.1694 74.0527 72.1694Z" fill="#6B8EAE"/>
<path d="M93.5929 81.2384C91.1907 80.0791 89.1213 78.3401 88.3377 75.7905L87.3111 72.4503C87.16 71.9589 86.7053 71.6232 86.1911 71.6232C85.6769 71.6232 85.2222 71.9589 85.0711 72.4503L84.0445 75.7907C83.261 78.3399 81.1922 80.0789 78.7907 81.2385C78.3857 81.4341 78.1268 81.8441 78.1268 82.2952C78.1268 82.7103 78.3461 83.0928 78.6995 83.3018C79.2599 83.6332 79.8021 83.9901 80.3213 84.3699C78.4221 85.7668 76.3283 86.966 74.0527 87.9227C53.0704 79.1183 54.9045 55.2826 55.5698 50.1038C59.5237 50.0339 63.2511 49.5553 66.6781 48.6779C67.3154 48.5147 67.6813 47.8433 67.4989 47.2111L67.4978 47.2071C67.3219 46.5977 66.7018 46.2525 66.0873 46.4099C64.9378 46.7042 63.7389 46.9332 62.5186 47.1323C62.493 47.0235 62.4696 46.9136 62.4109 46.8119L57.936 39.0625L63.5749 29.2969H74.8615L80.4981 39.0625L77.1953 44.7853C75.5766 44.088 74.7383 43.5374 74.7165 43.5226C74.3198 43.2495 73.7949 43.248 73.3966 43.5181C73.3848 43.5259 72.3659 44.2034 70.39 45.0082C69.8102 45.2444 69.5151 45.9018 69.7286 46.4902L69.7295 46.4927C69.9569 47.1194 70.6703 47.4254 71.2878 47.1737C72.562 46.6541 73.4841 46.1772 74.0482 45.8588C75.9784 46.9635 82.0972 49.9207 92.5266 50.1038C92.8912 53.1631 93.6396 63.0005 89.7564 72.2282C89.5103 72.8132 89.7539 73.4864 90.3302 73.7525C90.9282 74.0289 91.6536 73.7601 91.9098 73.1531C96.8331 61.4915 94.7957 49.2706 94.704 48.7411C94.6063 48.1796 94.1196 47.7692 93.5489 47.7692C87.2721 47.7692 82.5565 46.6995 79.4114 45.6338L82.8662 39.6484C83.0753 39.2853 83.0753 38.8397 82.8662 38.4766L76.5521 27.5391C76.3431 27.1759 75.9555 26.9531 75.5374 26.9531H63.5749L57.5977 16.6016C57.3883 16.239 57.0014 16.0156 56.5828 16.0156H43.954C43.5355 16.0156 43.1486 16.2389 42.9394 16.6014L36.9628 26.9531H25.0011C24.5822 26.9531 24.1954 27.1759 23.9864 27.5391L17.6715 38.4766C17.4617 38.8397 17.4617 39.2853 17.6715 39.6484L23.6481 50L17.6715 60.3516C17.4617 60.7147 17.4617 61.1603 17.6715 61.5234L23.9864 72.4609C24.1954 72.8241 24.5822 73.0469 25.0011 73.0469H36.9627L42.9393 83.3984C43.1486 83.761 43.5355 83.9844 43.9542 83.9844H48.2852C48.9324 83.9844 49.4571 83.4597 49.4571 82.8125C49.4571 82.1652 48.9324 81.6406 48.2852 81.6406H44.6307L38.9926 71.875L44.6307 62.1094H53.3696C53.9805 66.9074 55.396 72.3612 58.3725 77.3695L55.907 81.6406H52.9727C52.3256 81.6406 51.8009 82.1652 51.8009 82.8125C51.8009 83.4597 52.3256 83.9844 52.9727 83.9844H56.5828C57.0014 83.9844 57.3883 83.761 57.5977 83.3984L59.8024 79.5796C62.8881 83.9016 67.3086 87.7318 73.6148 90.2771C73.7552 90.3336 73.9032 90.3625 74.0527 90.3625C74.2023 90.3625 74.3503 90.3336 74.4907 90.2771C77.2888 89.1479 79.8421 87.6781 82.1287 85.935C83.0738 86.9275 83.8212 88.0751 84.2388 89.4336L85.0711 92.1417C85.2222 92.6331 85.6769 92.9688 86.1911 92.9688C86.7053 92.9688 87.16 92.6331 87.3111 92.1417L88.1434 89.4338C88.9925 86.671 91.1959 84.7728 93.684 83.302C94.0377 83.093 94.2569 82.7104 94.2569 82.2952C94.2569 81.844 93.998 81.434 93.5929 81.2384ZM25.6778 29.2969H36.9628L38.57 32.0801C38.8935 32.6405 39.6102 32.8324 40.1706 32.5089C40.731 32.1853 40.9231 31.4686 40.5995 30.9082L38.9926 28.125L44.6307 18.3594H55.907L61.5451 28.125L55.907 37.8906H44.6307L42.9431 34.9672C42.6195 34.4068 41.9029 34.2147 41.3424 34.5384C40.782 34.8619 40.59 35.5784 40.9135 36.1389L42.601 39.0624L36.9627 48.8281H25.6778L20.0397 39.0625L25.6778 29.2969ZM36.9627 70.7031H25.6778L20.0397 60.9375L25.6775 51.1719H36.9627L42.601 60.9375L36.9627 70.7031ZM53.4015 48.7396C53.381 48.8591 52.6231 53.5099 53.1267 59.7656H44.6307L38.9926 50L44.6307 40.2344H55.907L60.0839 47.4685C58.2997 47.6611 56.4593 47.7692 54.5566 47.7692C53.9874 47.7692 53.5007 48.1781 53.4015 48.7396ZM86.1911 87.999C85.242 85.6979 83.646 83.7158 81.6135 82.2952C83.646 80.8762 85.242 78.894 86.1911 76.593C87.1402 78.894 88.7378 80.8762 90.7688 82.2952C88.7378 83.7158 87.1402 85.6979 86.1911 87.999Z" fill="#6B8EAE"/>
<path d="M15.4666 28.3218L16.2798 25.6774C17.2808 22.4243 19.6131 19.7158 22.6801 18.2433C23.0868 18.0496 23.3454 17.6376 23.3454 17.1874C23.3454 16.7373 23.0868 16.3253 22.6801 16.1315C19.6131 14.6591 17.2808 11.9506 16.2798 8.69745L15.4666 6.0531C15.3155 5.56177 14.8608 5.22607 14.3466 5.22607C13.8323 5.22607 13.3776 5.56177 13.2266 6.0531L12.4133 8.69745C11.4115 11.9506 9.07846 14.6606 6.01221 16.1315C5.60556 16.3253 5.34692 16.7373 5.34692 17.1874C5.34692 17.6376 5.60556 18.0496 6.01221 18.2433C9.07846 19.7143 11.4115 22.4243 12.4133 25.6774L13.2266 28.3218C13.3776 28.8131 13.8323 29.1488 14.3466 29.1488C14.8608 29.1488 15.3155 28.8131 15.4666 28.3218ZM8.86789 17.1874C11.3497 15.5105 13.2746 13.0935 14.3466 10.2798C15.4177 13.0935 17.3426 15.5105 19.8245 17.1874C17.3426 18.8644 15.4177 21.2814 14.3466 24.0951C13.2746 21.2814 11.3497 18.8644 8.86789 17.1874Z" fill="#6B8EAE"/>
<path d="M22.1737 80.6106C18.2278 80.6106 15.0181 83.8195 15.0181 87.7654C15.0181 91.7114 18.2278 94.9218 22.1737 94.9218C26.1196 94.9218 29.33 91.7114 29.33 87.7654C29.33 83.8195 26.1196 80.6106 22.1737 80.6106ZM22.1737 92.5781C19.5202 92.5781 17.3618 90.4189 17.3618 87.7654C17.3618 85.1119 19.5202 82.9543 22.1737 82.9543C24.8272 82.9543 26.9863 85.1119 26.9863 87.7654C26.9863 90.4189 24.8272 92.5781 22.1737 92.5781Z" fill="#6B8EAE"/>
<path d="M89.7936 21.7972C92.769 21.7972 95.1906 19.3756 95.1906 16.4001C95.1906 13.4232 92.769 11.0016 89.7936 11.0016C86.8166 11.0016 84.395 13.4232 84.395 16.4001C84.395 19.3756 86.8166 21.7972 89.7936 21.7972ZM89.7936 13.3453C91.4766 13.3453 92.8469 14.7156 92.8469 16.4001C92.8469 18.0832 91.4766 19.4534 89.7936 19.4534C88.109 19.4534 86.7388 18.0832 86.7388 16.4001C86.7388 14.7156 88.109 13.3453 89.7936 13.3453Z" fill="#6B8EAE"/>
</svg>
