<svg width="101" height="100" viewBox="0 0 101 100" fill="none" xmlns="http://www.w3.org/2000/svg">
<g clip-path="url(#clip0_27_3521)">
<path d="M80.6833 61.9594C85.8583 61.9594 90.0692 57.7485 90.0692 52.5735V47.5579C90.0692 42.6688 86.3005 38.6891 81.5239 38.2547C81.5599 35.4532 81.5442 32.2626 80.9021 29.5829C86.3896 25.8719 89.088 18.8954 87.5145 12.4438C87.3989 11.9485 86.8989 11.6454 86.4067 11.7594C85.9114 11.8766 85.6052 12.3719 85.7224 12.8672C87.0599 18.3532 84.9067 24.3172 80.4099 27.6688C77.5739 17.9704 69.5317 10.4751 59.513 8.45787C64.7661 -0.431196 78.8692 -0.351508 83.9895 8.66724C84.5942 9.69068 86.2036 8.71568 85.5599 7.70318C79.4974 -2.78432 63.2567 -2.49682 57.5442 8.15474C55.2864 7.72974 49.2958 7.97662 46.9208 7.91255C30.5849 7.82662 18.1427 22.1735 19.4833 38.2594C14.738 38.7235 11.0036 42.6891 11.0036 47.5547V52.5704C11.0036 55.5141 12.3724 58.2235 14.6896 60.0001C10.8786 65.761 10.7739 74.0797 14.5786 79.9876L2.06611 92.1907C0.455176 93.6922 0.455176 96.4532 2.06611 97.9563C3.64111 99.4922 6.11299 99.4922 7.68799 97.9563L20.1302 85.8235C32.3802 94.3704 49.9067 85.0813 49.7052 70.0985C49.9849 55.8063 33.5005 46.2985 21.3271 53.636V47.2704H22.7364C24.5255 47.2704 25.9817 45.8141 25.9817 44.0251V40.0844H36.3036C46.4552 40.0844 55.2489 33.3016 58.0458 23.8141C60.3927 31.7766 66.9724 37.8188 75.0286 39.5594V53.8235C75.0286 59.7594 72.8724 65.4907 68.9552 69.961C68.4255 70.5235 68.8864 71.5141 69.6474 71.4891C74.5442 67.636 76.7771 59.9657 76.8708 53.8235V39.8766C77.7942 39.9969 78.7302 40.0751 79.6833 40.0797V53.8235C79.7583 70.686 65.1145 84.2501 48.3145 82.9204C47.1364 82.8329 46.9646 84.6641 48.1786 84.7579C63.1536 85.9594 76.7145 75.8672 80.4114 61.9407C80.5021 61.9469 80.5911 61.9594 80.6833 61.9594ZM81.5255 53.8266V40.0969C85.2864 40.5219 88.2286 43.6844 88.2286 47.5563V52.5719C88.2286 56.6626 84.952 59.9844 80.888 60.0954C81.3052 58.0704 81.5255 55.9735 81.5255 53.8266ZM6.40205 96.6407C4.34736 98.6376 1.31455 95.5094 3.35049 93.5141L15.6271 81.5407C16.5208 82.7188 17.5302 83.7766 18.6458 84.7001L6.40205 96.6407ZM47.863 70.1016C47.863 79.5501 40.177 87.236 30.7286 87.236C8.06299 86.4547 8.04111 53.7735 30.7286 52.9672C40.177 52.9672 47.863 60.6532 47.863 70.1016ZM15.7458 58.4969C13.9208 57.0672 12.8474 54.911 12.8474 52.5719V47.5563C12.8474 43.7063 15.7552 40.5579 19.4833 40.1032C19.4896 40.0501 19.463 55.4922 19.5067 54.8313C18.0911 55.8766 16.8255 57.1079 15.7458 58.4969ZM24.1396 44.0282C24.0802 45.6251 22.4755 45.4532 21.3271 45.4297V40.0876H24.1396V44.0282ZM79.6833 38.2407C78.7302 38.236 77.7942 38.1485 76.8708 38.0172C77.0224 33.8063 76.6021 29.4829 74.7146 25.6797C74.2208 24.5922 72.5224 25.3891 73.0474 26.4626C74.7567 29.9188 75.1661 33.8391 75.0271 37.6688C66.7567 35.7141 60.2583 28.811 59.1364 20.0797C59.0692 19.5297 58.6005 19.1141 58.0458 19.1141C57.4927 19.1141 57.0239 19.5297 56.9567 20.0751C55.6239 30.4344 46.7458 38.2454 36.3052 38.2454H25.9833C25.2755 29.5641 29.1958 20.9501 37.1114 16.8547C38.1708 16.3157 37.2942 14.6454 36.2458 15.2297C27.7364 19.6438 23.4052 28.8797 24.1396 38.2454H21.3271C20.0161 23.1813 31.5958 9.67193 46.9224 9.7563H54.088C69.4099 9.67193 80.9942 23.1782 79.6833 38.2407Z" fill="#6B8EAE"/>
<path d="M68.9084 18.0609C68.0147 17.2719 66.7897 18.6938 67.71 19.4594C68.6959 20.3047 69.6084 21.2469 70.4209 22.2594C70.7412 22.6578 71.3209 22.7188 71.7162 22.4016C72.1131 22.0828 72.1756 21.5031 71.8584 21.1063C70.9725 20.0063 69.9803 18.9797 68.9084 18.0609Z" fill="#6B8EAE"/>
<path d="M96.31 79.9453H90.6506V74.5078C90.6506 73.711 90.0021 73.0641 89.2053 73.0641H83.149C82.3521 73.0641 81.7037 73.711 81.7037 74.5078V79.9453H76.0443C75.2475 79.9453 74.6006 80.5938 74.6006 81.3906V87.4469C74.6006 88.2438 75.2475 88.8906 76.0443 88.8906H81.7037V94.55C81.7037 95.3469 82.3521 95.9953 83.149 95.9953H89.2053C90.0021 95.9953 90.6506 95.3469 90.6506 94.55V88.8906H96.31C97.1068 88.8906 97.7537 88.2438 97.7537 87.4469V81.3906C97.7537 80.5938 97.1053 79.9453 96.31 79.9453ZM95.9115 87.0485C87.4771 87.1469 88.9146 85.7469 88.8084 94.1531H83.5475C83.449 85.7188 84.8521 87.1547 76.4443 87.0485V81.7875C84.6146 81.6141 83.51 83.3016 83.5475 74.9063H88.8084C88.8381 83.3266 87.7693 81.6078 95.9115 81.7875V87.0485Z" fill="#6B8EAE"/>
<path d="M71.5678 93.6235H67.9553V90.011C67.9553 89.5016 67.5428 89.0891 67.0334 89.0891C66.524 89.0891 66.1115 89.5016 66.1115 90.011V93.6235H62.499C61.9896 93.6235 61.5771 94.036 61.5771 94.5454C61.5771 95.0547 61.9896 95.4672 62.499 95.4672H66.1115V99.0797C66.1115 99.5891 66.524 100.002 67.0334 100.002C67.5428 100.002 67.9553 99.5891 67.9553 99.0797V95.4672H71.5678C72.7631 95.4829 72.7631 93.6063 71.5678 93.6235Z" fill="#6B8EAE"/>
<path d="M30.7288 83.6172C38.9866 83.6953 45.4928 75.9844 44.0584 67.861C43.8506 66.6703 42.0506 66.9766 42.2413 68.1656C43.4788 75.1813 37.8631 81.8422 30.7288 81.775C24.2928 81.775 19.0569 76.5391 19.0569 70.1032C18.9116 62.1672 27.3038 56.3094 34.7006 59.125C35.1725 59.3 35.7053 59.05 35.8803 58.5735C36.0538 58.0953 35.8069 57.5672 35.3288 57.3938C33.8553 56.8594 32.3084 56.5875 30.7303 56.5875C12.8444 57.2203 12.8444 82.9844 30.7288 83.6172Z" fill="#6B8EAE"/>
<path d="M29.0818 67.4672L26.9896 65.375C26.1709 64.5563 24.8365 64.5578 24.0178 65.375L21.9256 67.4672C21.1068 68.286 21.1068 69.6188 21.9256 70.4407L27.7803 76.2953C28.6006 77.1141 29.9318 77.1125 30.7521 76.2953L42.2475 64.7985C43.0646 64.0172 43.0631 62.6078 42.249 61.825C40.9068 60.6047 39.1943 57.861 37.185 59.7328L29.4506 67.4672C29.349 67.5719 29.1818 67.5703 29.0818 67.4672ZM38.4865 61.036C38.5693 61.036 38.8506 61.0375 38.8537 61.036L40.9459 63.1282V63.4953L29.449 74.9922C29.349 75.0969 29.1818 75.0938 29.0818 74.9922L23.2271 69.1391C23.1256 69.0375 23.1256 68.8719 23.2271 68.7719L25.3193 66.6797C25.4193 66.5781 25.5865 66.5781 25.6865 66.6797C27.0146 67.9 28.7646 70.6391 30.7506 68.7719C30.7521 68.7703 38.4865 61.036 38.4865 61.036Z" fill="#6B8EAE"/>
<path d="M1.37717 23.4048C3.75686 23.8454 7.25061 27.3923 7.67404 29.7001C7.83186 30.1876 8.28029 30.5126 8.7928 30.5126C9.31154 30.5126 9.76467 30.1767 9.91467 29.6798C10.2319 28.6313 10.9037 27.0923 12.2975 25.7126C13.66 24.3626 15.1647 23.7079 16.1897 23.3954C17.2678 23.1032 17.2787 21.4517 16.1975 21.1517C13.8147 20.7157 10.3631 17.272 9.92561 14.8735C9.77092 14.3829 9.32092 14.0532 8.80529 14.0532C8.28811 14.0532 7.83654 14.386 7.68342 14.8798C7.25529 17.2813 3.80842 20.7329 1.38967 21.1626C0.313107 21.4532 0.303732 23.1001 1.37717 23.4048ZM6.56311 20.1704C7.61467 19.1345 8.32717 18.0251 8.80842 17.0313C9.62873 18.9876 12.1006 21.4501 14.0381 22.2642C12.06 23.0782 9.57717 25.5767 8.77717 27.5407C7.85998 25.5407 5.72248 23.3079 3.53029 22.297C4.48654 21.8376 5.55686 21.161 6.56311 20.1704Z" fill="#6B8EAE"/>
<path d="M94.6553 29.0032C96.049 28.9813 95.46 26.886 95.5772 25.9875C95.5772 25.4782 95.1647 25.0657 94.6553 25.0657C93.2615 25.0875 93.8506 27.1829 93.7334 28.0813C93.7334 28.5891 94.1459 29.0032 94.6553 29.0032Z" fill="#6B8EAE"/>
<path d="M93.7335 31.7032V33.7735C93.7163 34.9688 95.5945 34.9688 95.5757 33.7735V31.7048C95.5929 30.5094 93.7163 30.5079 93.7335 31.7032Z" fill="#6B8EAE"/>
<path d="M98.7054 28.9579H96.4741C95.2788 28.9407 95.2788 30.8188 96.4741 30.8001H98.7038C99.9007 30.8188 99.9022 28.9407 98.7054 28.9579Z" fill="#6B8EAE"/>
<path d="M90.8209 30.8017C91.6787 30.6876 93.7553 31.2673 93.7756 29.8798C93.7553 28.4939 91.6771 29.072 90.8209 28.9579C89.6256 28.9407 89.624 30.8189 90.8209 30.8017Z" fill="#6B8EAE"/>
<path d="M19.0161 5.96252C20.4099 5.94065 19.8208 3.84534 19.938 2.9469C19.938 2.43752 19.5255 2.02502 19.0161 2.02502C17.6224 2.0469 18.2114 4.14221 18.0943 5.04065C18.0943 5.55002 18.5083 5.96252 19.0161 5.96252Z" fill="#6B8EAE"/>
<path d="M19.0161 7.74072C17.6239 7.7626 18.2114 9.85479 18.0943 10.7329C18.0943 11.2423 18.5068 11.6548 19.0161 11.6548C20.4083 11.6329 19.8208 9.54072 19.938 8.6626C19.938 8.15322 19.5255 7.74072 19.0161 7.74072Z" fill="#6B8EAE"/>
<path d="M20.8366 7.76103H23.0663C24.2616 7.77822 24.2616 5.90009 23.0663 5.91884H20.8366C19.6428 5.90009 19.6413 7.77822 20.8366 7.76103Z" fill="#6B8EAE"/>
<path d="M15.1819 7.76103H17.2147C18.41 7.77822 18.41 5.90009 17.2147 5.91884H15.1819C13.9866 5.90009 13.9866 7.77822 15.1819 7.76103Z" fill="#6B8EAE"/>
</g>
<defs>
<clipPath id="clip0_27_3521">
<rect width="100" height="100" fill="white" transform="translate(0.0895996)"/>
</clipPath>
</defs>
</svg>
