<svg width="24" height="25" viewBox="0 0 24 25" fill="none" xmlns="http://www.w3.org/2000/svg">
<path fill-rule="evenodd" clip-rule="evenodd" d="M12 1.6709C5.925 1.6709 1 6.5959 1 12.6709C1 18.7459 5.925 23.6709 12 23.6709C18.075 23.6709 23 18.7459 23 12.6709C23 6.5959 18.075 1.6709 12 1.6709ZM16.768 10.8109C16.8558 10.7105 16.9226 10.5936 16.9646 10.4671C17.0065 10.3405 17.0227 10.2068 17.0123 10.0739C17.0018 9.94095 16.9648 9.81146 16.9036 9.69303C16.8423 9.57459 16.758 9.4696 16.6555 9.38424C16.5531 9.29888 16.4346 9.23486 16.3071 9.19596C16.1796 9.15706 16.0455 9.14406 15.9129 9.15773C15.7802 9.17139 15.6517 9.21145 15.5347 9.27553C15.4178 9.33962 15.3149 9.42644 15.232 9.5309L10.932 14.6899L8.707 12.4639C8.5184 12.2817 8.2658 12.1809 8.0036 12.1832C7.7414 12.1855 7.49059 12.2907 7.30518 12.4761C7.11977 12.6615 7.0146 12.9123 7.01233 13.1745C7.01005 13.4367 7.11084 13.6893 7.293 13.8779L10.293 16.8779C10.3913 16.9761 10.5089 17.0527 10.6384 17.103C10.7679 17.1532 10.9065 17.1759 11.0453 17.1695C11.184 17.1632 11.32 17.1281 11.4444 17.0663C11.5688 17.0046 11.6791 16.9176 11.768 16.8109L16.768 10.8109Z" fill="#6B8EAE"/>
</svg>
