<svg width="1920" height="459" viewBox="0 0 1920 459" fill="none" xmlns="http://www.w3.org/2000/svg">
<g clip-path="url(#clip0_18_3177)">
<rect width="1920" height="459" fill="#EEF3F6"/>
<path d="M941.363 714.448C937.238 714.31 933.116 714.166 928.998 714.015C917.314 706.502 903.053 715.515 891.351 708.159L891.407 708.195C862.497 695.002 836.902 718.645 808.59 715.901C801.04 715.165 792.864 719.287 785.305 714.152C757.956 697.296 727.727 693.502 696.622 696.089C686.319 696.955 676.358 698.133 666.248 695.666C648.69 689.12 631.114 685.005 611.973 689.212C601.695 691.468 591.248 689.064 584.361 679.323C596.229 650.787 622.285 643.462 648.469 641.307C664.526 639.977 677.941 635.47 692.69 630.24C723.68 619.256 756.752 619.155 789.732 618.269C789.695 616.916 784.705 619.089 784.299 617.192C778.82 591.9 755.186 586.33 738.144 573.201C725.085 563.137 710.017 549.695 736.478 536.225C738.329 535.285 740.778 533.389 740.589 531.759C734.807 483.045 778.946 492.473 801.153 478.34C790.869 481.922 781.901 482.115 773.146 469.326C756.739 445.351 745.423 446.271 728.86 469.501C725.822 473.755 724.22 478.865 721.384 483.193C709.028 502.076 692.345 508.365 674.254 493.099C656.54 478.165 641.109 482.014 627.142 495.364C608.498 513.198 591.446 523.537 568.687 501.228C558.421 491.156 547.043 498.467 537.806 505.823C519.926 520.067 504.182 517.424 481.514 511.661C447.826 503.076 425.876 488.34 411.988 457.947C408.738 450.83 401.989 450.038 393.472 450.738C359.6 453.537 340.017 439.892 326.574 403.957C317.368 379.365 322.542 358.926 348.423 346.91C353.026 344.774 358.467 341.322 354.426 335.015C350.799 329.362 344.105 325.569 338.599 330.633C330.014 338.532 317.266 344.49 321.945 360.823C326.125 375.444 315.711 381.843 303.917 385.006C289.978 388.754 285.297 378.469 282.778 367.909C277.309 344.935 257.891 322.807 279.362 297.815C283.496 293.009 280.982 279.171 274.298 279.393C249.734 280.203 253.923 260.16 248.187 247.38C245.205 240.724 243.998 231.811 238.676 227.935C207.916 205.565 214.167 170.473 206.876 140.029C208.46 137.334 210.787 135.151 213.578 133.742C262.771 129.314 312.047 126.284 361.457 125.529C369.624 125.4 378.85 128.237 385.295 122.049C402.926 105.121 414.537 116.654 426.257 129.507C436.777 139.138 439.128 153.16 444.68 165.322C456.013 190.181 450.831 196.957 421.7 197.961C428.19 204.912 435.317 206.247 444.036 202.223C474.079 188.366 474.135 188.486 485.56 219.422C485.993 209.258 478.277 199.793 481.942 189.242C484.953 180.587 484.965 169.465 496.573 167.523C507.299 165.727 513.68 173.618 519.213 181.388C524.729 189.1 527.246 198.557 526.294 207.99C525.548 217.049 522.675 226.837 532.748 234.1C542.278 229.92 537.527 221.744 537.315 215.479C536.874 202.286 542.232 190.307 554.596 189.69C569.254 188.965 566.049 203.649 566.658 213.462C566.907 217.596 566.253 221.795 568.517 225.588C567.891 229.722 575.047 226.536 570.911 227.088C569.696 227.244 569.327 226.278 569.788 224.179C576.628 193.317 586.499 192.137 616.311 218.59C618.466 220.534 620.482 222.595 622.499 224.658C629.422 231.618 638.676 234.583 647.528 236.857C664.432 241.21 675.499 249.507 674.394 269.358C676.99 249.573 694.742 255.493 705.044 249.425C699.824 246.663 694.962 244.709 691.041 241.231C683.381 234.445 665.234 232.567 674.486 217.09C681.787 204.877 694.521 193.971 711.065 200.581C729.829 208.078 760.036 207.266 744.947 243.587C740.868 253.374 752.525 258.702 761.023 256.367C782.236 250.511 788.33 263.999 795.208 279.071C802.241 294.502 810.927 309.068 831.511 306.398C825.075 301.389 809.047 305.478 810.814 292.265C812.499 279.669 825.647 279.448 835.965 280.241C849.27 281.213 862.071 285.738 873.032 293.343C869.018 280.443 862.206 263.088 878.059 260.833C896.639 258.191 919.748 241.306 934.728 263.246C931.312 254.185 923.846 248.321 908.552 252.741C887.321 258.882 886.244 245.697 888.343 230.492C872.664 248.537 851.155 258.214 826.582 259.42C813.922 260.046 801.134 256.483 798.482 240.425C795.794 224.202 805.314 219.764 819.06 215.337C829.814 211.865 851.102 214.974 849.36 201.094C847.362 185.254 825.799 184.166 812.481 185.764C788.128 188.666 767.615 179.495 746.134 172.147C736.32 168.787 726.984 163.603 716.129 164.287C647.749 168.587 581.219 155.991 514.911 141.951C486.544 135.947 456.419 147.797 429.074 132.938C425.447 118.013 420.042 108.705 400.56 109.579C379.31 110.537 358.24 101.662 336.396 101.385C329.15 101.293 321.675 98.6317 319.75 90.1616C317.9 82.041 323.792 77.1427 328.551 71.5637C343.31 54.291 368.501 64.9629 384.079 50.3503C373.528 52.1277 363.005 60.2847 352.407 50.4603C363.74 33.5745 381.087 32.1658 399.104 32.1477C477.714 32.1017 556.32 32.0066 634.923 31.8623C635.144 48.73 621.435 44.9635 612.504 45.701C592.753 47.1188 572.93 47.2295 553.165 46.0323C538.479 45.2863 527.256 52.569 515.296 58.5266C509.69 61.316 509.827 66.9229 511.236 72.1984C512.856 78.3022 517.819 81.2864 523.058 78.7726C541.564 69.8974 547.043 81.949 551.894 95.6306C554.813 103.871 558.145 104.717 568.58 105.353C592.408 106.79 617.947 100.805 640.376 113.53C650.919 119.514 658.136 116.411 664.559 107.977C671.364 98.7631 680.491 91.5193 691.01 86.9852C709.277 79.0579 726.706 65.7355 731.005 100.805C732.608 113.863 745.032 115.711 758.396 113.658C781.396 110.113 805.205 101.846 827.275 118.049C831.777 121.355 838.019 121.336 841.794 117.359C855.743 102.664 862.27 102.287 876.404 121.373C885.344 133.444 912.486 128.195 931.433 127.1C939.692 126.616 949.82 127.008 949.359 133.637C946.763 170.778 983.931 173.245 1000.42 193.399C1009.68 204.724 1027 209.239 1031.38 226.323C1032.77 231.708 1037.45 234.701 1043.28 234.508C1049.18 234.324 1055.27 229.95 1054.22 225.485C1046.03 190.921 1074.79 170.759 1084.97 143.478C1091.47 122.56 1112.71 120.303 1127.84 110.692C1135.6 105.766 1143.66 111.705 1148.12 119.918C1153.27 129.383 1153 139.575 1143.44 144.491C1124.41 154.278 1116.24 171.44 1108.23 189.265C1141.53 199.543 1141.24 199.475 1133.94 233.789C1130.64 249.303 1137.6 260.793 1152.55 264.918C1168.31 269.264 1184.4 273.821 1200.92 265.083C1209.86 260.351 1220.08 256.42 1230.56 262.45C1239.2 274.944 1242.05 289.445 1241.86 303.964C1241.64 321.973 1236.29 337.652 1213.31 336.381C1197.54 335.507 1187.09 343.031 1181.99 357.106C1176.45 372.445 1162.38 381.017 1154.66 394.809C1140.53 420.063 1123.22 441.663 1088.1 423.976C1110.39 443.761 1122.76 444.489 1133.94 425.375C1142.09 411.463 1150.1 400.525 1167.52 404.843C1177.3 407.274 1192.14 444.987 1190.38 456.854C1188.54 469.127 1164.3 479.715 1185.71 493.516C1208.85 508.441 1231.16 529 1262.76 515.411C1268.51 512.943 1274.3 510.596 1280.07 508.21C1298.98 500.384 1308.96 507.769 1307.84 527.251C1307.02 541.355 1308.32 556.621 1297.88 570.045C1286.62 570.57 1282.14 557.882 1271.96 555.839C1261.76 553.804 1252.69 551.649 1252.06 566.307C1251.48 579.915 1243.37 588.929 1231.39 590.099C1214.53 591.747 1202.96 593.67 1200.54 614.994C1199.21 626.686 1187.24 619.901 1180.75 614.958C1165.54 603.403 1168.75 587.873 1171.86 572.108C1176 551.199 1191.32 550.435 1207.85 551.153C1187.44 522.326 1184.36 521.976 1171.01 550.279C1165.62 561.714 1158 562.285 1148.2 560.038C1133.74 556.732 1120.24 550.486 1109.39 540.691C1092.55 525.491 1082.22 503.284 1060.63 498.689C1062.46 503.292 1064.65 513.983 1076.76 513.53C1089.7 513.047 1089.76 521.172 1089.69 529.733C1089.55 532.829 1090.13 535.915 1091.39 538.749C1092.64 541.582 1094.54 544.084 1096.93 546.056C1105.64 553.795 1126.12 565.796 1116.62 571.55C1101.5 580.684 1100.71 611.398 1073.32 601.779C1063.82 598.437 1064.36 607.156 1063.64 613.145C1062.65 621.358 1064.64 629.782 1061.55 639.339C1063 633.852 1061.13 639.928 1061.23 639.514C1067.85 612.308 1075.53 602.723 1085.84 637.838C1088.17 645.775 1085.57 654.383 1083.95 662.587C1080.21 681.526 1092.13 689.711 1107.31 693.458C1126.76 698.264 1121.57 681.125 1124.92 671.666C1128.62 661.252 1130.15 645.877 1145.88 650.646C1158.35 654.43 1165.14 666.444 1162.73 680.697C1154 732.376 1121.98 743.139 1072.48 730.479C1030.82 719.825 985.897 712.951 941.363 714.448Z" fill="#6B8EAE"/>
<path d="M941.363 714.447C955.044 701.907 971.322 712.597 986.073 711.363C994.948 710.617 1005.09 707.131 1012.07 708.591C1021.96 710.647 1032.37 717.418 1041.59 724.52C1049.33 730.477 1055.24 725.164 1066.22 705.82C1080.69 729.731 1095.3 737.258 1116.28 733.211C1125.23 731.479 1131.56 728.57 1135.07 719.483C1138.75 709.908 1142.19 699.403 1148.74 691.927C1162.93 675.713 1156.25 665.043 1140.76 653.718C1133.6 665.245 1127.91 675.75 1132.27 690.509C1135.85 702.616 1129.07 708.075 1116.63 704.705C1103.83 701.234 1090.38 700.102 1080.78 688.243C1073.93 679.763 1067.47 674.386 1075.77 661.985C1083.31 650.74 1079.31 636.834 1076.6 619.715C1063.62 630.294 1067.62 644.969 1057.48 651.35C1051.95 654.83 1045.98 659.701 1041.61 652.538C1036.98 644.951 1046.07 645.871 1049.76 643.938C1058.53 639.353 1061.19 632.493 1058.45 623.185C1057 618.228 1055.06 613.279 1054.53 608.205C1053.69 599.817 1053.42 590.399 1062.6 586.431C1072.04 582.343 1073.44 593.843 1079.23 597.185C1080.93 598.17 1083.05 598.4 1085.46 599.109C1096.37 593.438 1081.3 582.181 1090.81 574.71C1098.67 568.533 1106.86 574.627 1114.94 570.255C1104.88 557.196 1090.12 551.5 1077.75 544.005C1076.36 534.43 1088.9 529.771 1083.62 520.362C1065.9 531.695 1066.01 531.659 1059.75 514.755C1054.72 501.183 1050.35 487.705 1057.88 473.812C1067.31 473.959 1066.5 480.073 1065.19 484.63C1062.61 493.607 1065.45 500.135 1074.22 500.568C1089.28 501.304 1093.2 511.183 1100.66 522.085C1114.39 542.129 1137.08 551.538 1162.66 556.004C1166.49 543.224 1163.07 529.082 1171.14 516.727C1200.09 517.452 1213.84 537.001 1225.47 561.04C1209.83 563.396 1190.92 546.391 1180.58 567.181C1169.73 588.965 1174.43 600.602 1194.96 615.371C1205.75 601.781 1188.37 587.97 1195.87 571.279C1207.54 583.442 1219.55 592.16 1235.88 582.143C1243.99 577.163 1250.26 572.54 1243.14 562.855C1235.33 552.214 1241.94 549.827 1250.47 545.08C1261.92 538.709 1269.28 552.206 1279.36 548.57C1294.61 543.065 1289.5 560.198 1296.04 566.223C1300.56 551.161 1297.08 537.608 1301.41 524.341C1305.05 513.145 1297.7 510.144 1285.15 514.259C1268.46 519.728 1254.91 533.952 1233.86 527.701C1208.27 520.083 1187.94 504.426 1166.46 490.32C1165.08 489.483 1163.94 488.298 1163.16 486.883C1162.38 485.468 1161.98 483.873 1162.01 482.258C1162.04 480.642 1162.49 479.062 1163.32 477.676C1164.15 476.29 1165.33 475.147 1166.75 474.359C1192.44 458.836 1188.42 442.447 1169.83 424.559C1168.59 423.372 1168.31 420.646 1168.42 418.685C1169.41 402.057 1159.96 409.441 1152.75 411.808C1141.95 415.343 1141.97 426.217 1137.72 434.177C1129.4 449.81 1119.5 453.834 1096.33 447.702C1083.03 444.185 1079.46 430.559 1075.23 419.446C1073.67 415.335 1079.21 409.18 1085.48 412.448C1099.12 419.538 1114.68 428.53 1127.8 419.529C1138.77 412.007 1144.61 396.779 1151.99 384.386C1161.4 368.568 1173.87 354.022 1183.83 337.955C1188.87 329.825 1197.44 326.171 1208.05 326.676C1230.98 327.771 1238.73 319.439 1234.72 297.342C1232.7 286.165 1228.14 275.456 1229.34 263.755C1211.92 245.718 1242.64 225.909 1235.03 220.326C1216.05 206.377 1219.43 190.845 1221.6 174.034C1223.42 159.957 1228.84 147.795 1246.85 149.617C1271.79 152.14 1263.74 136.71 1260.71 124.022C1259.92 114.511 1259.5 105.139 1269.68 99.6782C1278.35 100.083 1283.05 106.584 1288.5 111.923C1297.42 119.611 1298.58 152.296 1319.61 121.167C1323.96 114.723 1332.39 113.59 1339.3 117.761C1347.93 122.961 1347.49 131.277 1344.16 139.683C1343.41 141.598 1341.95 143.246 1341.27 145.152C1338.11 154.147 1319.77 163.447 1335.92 172.046C1350.52 179.808 1355.64 161.946 1362.36 152.279C1367.48 144.886 1366.66 136.674 1364.35 128.378C1362.08 120.229 1360.23 111.354 1368.9 106.008C1377.05 100.972 1384.98 105.327 1392.02 109.893C1400.63 115.472 1407.44 123.852 1418.03 126.3C1444.06 145.433 1472.83 160.882 1495.92 184.009C1501.49 190.831 1507.1 197.627 1511.44 205.333C1533.56 229.897 1562.86 241.341 1593.5 250.336C1615.48 258.908 1626.51 281.676 1649.73 290.663C1666.78 297.273 1659.15 316.884 1649.12 332.803C1673.55 332.214 1693.53 336.067 1712.48 321.837C1733.65 305.937 1731.01 337.258 1744.06 340.131C1746.81 328.524 1735.46 310.476 1753.52 306.332C1767.21 303.188 1767.18 321.965 1775.92 328.742C1764.82 313.892 1757.81 297.595 1758.87 278.638C1759.24 271.935 1761.18 265.684 1768.25 264.228C1776.72 262.478 1778.96 270.056 1779.73 275.765C1782.51 296.333 1796.15 308.774 1811.35 320.141C1826.87 331.759 1827.38 356.498 1851.9 362.098C1859.9 363.921 1865.04 383.118 1851.02 393.586C1848.41 394.589 1846.7 398.779 1842.92 395.962C1848.31 399.699 1849.86 392.592 1853.8 392.123C1863.76 387.731 1870.4 380.338 1875.14 370.542C1879.21 362.108 1885.45 357.275 1894.8 364.723C1897.84 391.083 1893.74 414.092 1866.27 426.235C1808.9 432.303 1763.77 400.649 1719.44 375.651C1705.88 381.737 1726.71 409.018 1699.01 400.271C1696.27 399.405 1692.76 397.573 1695.56 401.753C1705.94 417.267 1690.98 441.27 1715.04 452.972C1727.9 459.223 1721.24 475.648 1722.85 487.618C1723.4 491.93 1723.61 496.281 1723.46 500.627C1723.43 503.536 1723.17 506.418 1722.88 509.3C1725.03 536.264 1721.38 561.762 1704.11 583.84C1699.38 589.484 1694.09 594.601 1688.95 599.86C1680.12 607.501 1672.93 617.988 1659.21 617.271C1655.23 616.059 1651.61 613.898 1648.65 610.974C1630.88 594.613 1626.08 604.861 1625.08 622.547C1624.79 629.818 1625.06 637.101 1625.89 644.331C1638.92 670.608 1631.8 702.353 1649.06 727.701C1654.48 735.674 1647.92 740.361 1640.55 743.878C1618.01 754.6 1581.31 741.24 1570.43 716.999C1566.02 707.212 1563.02 695.777 1549.88 698.603C1536.81 701.41 1533.18 713.187 1533.7 725.279C1534.27 738.592 1538.08 752.043 1529.68 764.372C1482.14 764.971 1435.26 758.121 1388.13 753.167C1353.29 749.521 1317.81 751.942 1282.62 751.786C1279.59 751.768 1274.42 751.907 1273.85 753.378C1262.09 783.639 1236.09 766.027 1216.83 770.684C1214.83 770.435 1212.82 770.371 1210.82 770.49C1205.68 764.8 1197.2 769.8 1191.91 764.58C1112.44 752.768 1035.38 728.083 955.138 720.395C949.796 719.89 944.999 718.655 941.363 714.447Z" fill="#6B8EAE"/>
<path d="M209.461 138.632C209.792 143.926 210.732 149.221 214.838 152.857C225.343 162.156 230.012 171.786 220.97 185.228C214.589 194.72 216.617 199.48 229.118 205.263C249.043 214.488 252.393 237.386 259.217 256.463C261.151 261.876 257.293 269.261 264.464 272.722C274.297 274.638 269.85 258.562 280.304 261.15C288.554 268.767 281.427 281.378 289.01 289.59C297.646 298.944 296.628 305.095 283.182 309.136C273.477 312.063 271.757 319.964 276.673 329.226C284.978 344.879 289.127 362.048 293.31 379.082C322.018 372.6 322.018 372.6 305.168 343.57C313.528 336.776 331.306 339.069 329.989 321.179C329.694 317.189 335.099 315.82 339.804 316.879C356.119 320.553 369.258 327.157 369.404 346.71C363.358 353.929 353.752 350.78 346.525 355.439C330.734 365.596 323.922 386.071 333.345 402.579C340.014 414.321 347.512 425.573 355.782 436.249C364.575 447.528 379.306 449.671 392.969 440.567C399.783 436.028 403.235 436.259 408.768 441.102C418.491 449.627 423.14 461.238 429.521 471.935C437.346 485.082 441.766 503.395 465.631 494.851C471.008 492.936 486.679 498.377 490.573 503.557C506.655 525.028 518.332 506.65 531.314 501.38C534.932 499.908 537.41 495.782 540.687 493.241C552.72 483.915 563.023 481.806 575.691 494.779C595.357 514.897 597.033 514.565 616.313 493.766C625.428 483.933 636.421 480.195 647.884 475.25C660.001 470.039 666.841 474.035 674.943 482.478C693.376 501.684 706.192 498.976 716.439 472.966C721.788 459.395 734.191 453.144 742.678 443.007C749.334 435.052 779.091 446.469 780.178 459.967C782.14 484.329 793.068 474.542 804.263 470.214C808.048 468.763 811.859 466.052 816.03 468.696C819.703 471.016 822.355 474.57 821.637 478.999C821.195 481.706 818.111 486.484 817.567 486.309C796.86 479.358 782.957 495.185 766.099 500.995C760.455 502.946 753.798 501.962 747.547 502.325C742.363 513.594 765.768 519.468 752.132 532.174C744.514 539.281 744.371 556.49 722.08 542.863C750.722 579.875 752.55 580.805 788.1 579.621C791.625 590.605 780.715 598.384 780.771 607.886C786.065 618.142 800.833 601.92 803.485 616.899C804.498 622.598 810.161 628.711 803.848 634.236C796.694 640.515 793.001 634.485 789.328 629.278C784.384 622.281 778.454 622.474 770.269 624.086C751.407 627.797 733.285 637.796 712.593 629.306C703.091 625.411 696.397 636.924 688.369 641.174C679.263 645.989 670.93 655.703 660.214 650.344C642.987 641.736 630.125 650.841 616.563 657.976C605.717 663.685 595.396 670.405 584.845 676.676C579.348 681.022 497.691 713.964 490.531 714.728C455.867 703.053 421.064 710.769 386.28 713.881C379.863 714.452 373.556 715.594 369.432 720.653C345.521 749.949 311.262 749.31 278.512 751.358C253.717 752.904 228.739 751.468 203.834 751.358C200.041 748.181 194.259 749.277 190.825 745.312L190.908 745.348C161.657 728.103 130.105 721.309 96.2133 722.726C81.0988 723.353 65.0473 725.406 51.743 714.542C42.3237 700.345 43.5305 685.135 47.4796 669.704C58.1963 650.038 76.7217 660.272 92.0876 658.572C87.3006 605.974 95.42 601.895 164.501 625.353C139.569 589.971 171.066 574.973 186.699 555.537C196.809 542.969 211.318 546.644 222.248 558.087C230.875 567.138 238.535 577.054 251.872 579.779C260.757 581.593 269.034 593.461 277.449 587.098C287.606 579.42 284.221 565.454 281.602 554.781C276.971 535.962 272.708 518.368 248.245 511.01C211.214 499.878 195.284 455.528 215.09 422.025C228.283 399.716 220.623 397.028 199.613 394.265C168.447 390.169 135.513 333.619 144.334 305.178C147.409 295.244 135.439 292.51 130.201 286.848C96.356 250.305 56.6377 219.701 23.7125 182.1C22.3983 179.161 21.476 176.063 20.9689 172.884C17.4697 144.711 32.5321 131.802 58.3124 131.083C89.3467 130.204 120.279 127.118 150.875 121.848C172.459 118.165 190.909 129.518 209.461 138.632Z" fill="#6B8EAE"/>
<path d="M28.213 182.329C40.9369 195.267 61.6255 199.961 67.2783 220.401C67.9046 222.684 71.8815 225.6 74.3035 225.593C94.4576 225.556 104.761 233.573 106.62 255.258C107.394 264.253 118.369 273.497 128.459 275.845C144.212 279.51 145.427 301.578 163.657 301.479C165.6 301.469 164.928 309.185 160.812 311.441C155.445 314.378 148.972 305.557 142.398 314.213C150.435 323.107 163.951 330.344 157.074 347.045C154.698 352.817 162.285 357.743 167.395 361.192C173.389 365.234 181.214 367.721 183.148 375.426C186.628 389.347 195.614 391.161 206.801 386.631C221.716 380.601 227.655 390.646 233.695 400.506C237.157 406.159 236.826 409.584 230.068 415.145C212.869 429.292 207.04 449.156 216.993 469.762C226.311 489.05 236.014 510.549 264.446 505.696C268.948 504.922 273.479 505.567 275.053 509.793C284.758 535.72 296.183 561.371 290.392 590.322C288.109 601.702 279.993 603.092 271.591 600.091C258.857 595.552 250.915 578.851 232.986 585.581C231.514 586.134 225.732 572.01 220.354 566.173C214.536 559.876 208.868 548.33 197.834 555.493C191.04 559.903 176.52 562.039 186.132 577.93C190.243 584.734 181.224 588.481 174.743 586.962C155.04 582.341 158.769 592.671 163.703 603.617C168.344 613.92 173.831 623.891 173.666 635.66C167.119 641.705 160.988 637.98 157.434 633.349C147.591 620.523 129.602 628.764 118.213 615.773C111.547 608.177 98.657 620.156 96.7876 634.123C95.0199 647.335 106.381 656.947 105.157 672.912C88.5166 665.675 70.3341 662.7 52.2546 664.257C39.7604 656.478 29.2372 666.734 17.8941 668.078C14.7636 668.199 8.27292 663.668 11.3478 672.939C7.89566 688.711 -5.77744 696.361 -15.389 707.208C-33.2603 697.347 -19.5969 683.573 -19.2656 674.146C-52.7591 650.539 -84.2852 629.713 -91.4664 585.685C-96.4662 555.036 -114.41 528.216 -127.585 500.143C-130.191 494.581 -134.905 490.006 -135.218 483.377C-125.873 460.102 -126.537 433.032 -108.582 413.017C-98.9426 414.877 -94.5413 408.745 -90.9283 401.435C-89.9248 400.526 -88.6732 399.937 -87.3333 399.743C-85.9934 399.549 -84.6261 399.759 -83.4062 400.347C-78.5539 402.713 -71.64 409.222 -71.2434 397.613C-70.8383 385.487 -73.8032 373.269 -70.3232 361.135C-66.0513 348.605 -68.4538 333.09 -54.2753 325.016C-36.4875 324.611 -44.0737 345.925 -30.7331 351.579C-14.759 328.801 -0.00979614 306.041 -4.40991 275.713C-6.03015 264.536 -5.1644 253.027 -4.53928 241.674C-4.1983 235.451 -2.76303 224.356 -0.0557251 224.625C36.8307 228.235 12.985 192.208 28.213 182.329Z" fill="#6B8EAE"/>
<path d="M1091.7 144.902C1090.29 157.939 1084.21 168.758 1074.7 177.329C1062.75 188.091 1058.62 199.048 1063.67 215.944C1069.47 235.315 1058.7 245.802 1039.39 245.001C1029.77 244.605 1022.97 241.723 1023.11 230.822C1023.28 217.521 1017.79 209.42 1004.14 206.47C995.702 204.646 990.094 197.483 985.068 190.975C978.521 182.51 972.39 175.774 960.061 175.635C945.837 175.479 939.253 167.183 944.189 152.6C945.865 147.655 948.351 142.841 946.306 137.593C944.907 134.002 940.865 127.631 938.351 131.789C927.856 149.052 917.506 137 907.646 132.571C902.242 130.153 898.789 131.061 893.531 132.866C867.697 141.733 867.374 141.199 865.035 114.802C864.897 113.181 862.659 111.745 861.37 110.189C854.337 110.576 855.221 117.25 852.449 121.117C843.077 134.164 832.619 136.861 821.505 126.098C811.469 116.375 805.401 113.125 789.971 118.493C779.061 122.286 764.643 119.487 751.191 124.8C736.57 130.573 720.116 112.491 718.451 92.0417C718.295 90.1446 720.173 88.1374 720.237 86.158C720.293 84.4459 719.123 82.6962 717.819 79.1232C710.149 87.9065 703.198 95.6499 690.161 95.668C677.04 95.6777 673.781 109.984 666.986 118.649C655.689 133.038 649.759 135.277 637.799 122.019C629.094 112.362 623.823 109.074 612.821 117.452C606.873 121.973 599.084 119.661 591.967 116.632C571.491 107.913 571.399 108.125 555.813 120.398C550.601 107.075 539.755 96.3355 539.268 81.5342C533.735 80.1897 531.239 83.799 527.925 85.99C509.391 98.2266 507.753 97.4624 503.324 75.6046C502.504 71.5539 501.316 67.5855 500.387 63.5529C499.466 59.6026 498.655 55.6257 496.98 47.8183C518.673 55.2485 532.299 35.5272 552.83 37.9939C573.361 40.4606 594.425 38.5284 615.254 38.5005C622.536 38.4824 630.022 38.9975 634.919 31.8623C641.328 24.9483 647.597 24.8927 653.738 32.225C673.073 45.7506 693.798 31.5346 713.851 35.1064C725.903 37.243 738.784 36.7086 751.029 35.2358C772.941 32.6023 787.062 39.2962 791.052 62.4695C791.918 67.496 795.499 71.7594 799.449 75.2865C798.012 71.3737 798.896 77.1644 802.22 74.6517C791.154 63.9254 792.617 54.8749 806.52 48.7155C813.95 45.4193 820.468 49.8387 826.683 53.7939C828.968 55.3121 831.724 55.956 834.445 55.6076C821.685 43.9151 822.78 36.6046 841.249 35.5913C858.687 34.6433 876.033 36.5852 893.387 38.3167C903.847 55.6257 915.539 69.3254 939.055 69.5128C956.575 69.6604 967.928 79.2356 963.223 100.225C959.586 116.457 960.222 129.817 984.132 122.957C997.113 119.238 1002.53 128.933 1004.58 140.34C1006.04 148.516 1005.53 156.849 1006.22 165.079C1006.95 173.725 1009.21 181.688 1018.6 184.617C1027.31 187.342 1035.19 184.938 1041.08 178.144C1049.87 168.008 1058.96 158.128 1066.2 146.685C1073.59 134.987 1082.1 129.49 1091.7 144.902Z" fill="#6B8EAE"/>
<path d="M2017.89 357.624C2017.83 374.169 2016.89 390.502 2021.77 406.983C2025.55 419.78 2024.29 433.434 2020 446.83C2015.99 459.343 2012.97 470.981 1996.25 470.207C1990.95 469.958 1986.37 472.996 1982.61 476.835C1977.34 482.203 1972.62 488.252 1975.36 496.069C1977.66 502.606 1984.25 503.687 1990.55 504.825C2012.33 508.756 2016.3 515.809 2006.8 534.784C2003.62 541.155 1998.7 546.755 1994.09 552.305C1988.99 558.454 1986.91 564.136 1991.51 571.893C2004.78 594.192 2000.89 617.247 1993.32 640.264C1973.59 635.855 1963.15 649.425 1964.21 663.843C1964.89 673.252 1966.98 689.043 1980.12 695.515C1981.01 707.908 1977.98 718.818 1968.13 727.15C1948.74 718.625 1938.33 694.668 1912.25 696.27C1906.31 696.633 1906.14 684.568 1908.65 677.165C1917.28 651.634 1915.47 624.409 1921.3 598.45C1917.56 580.837 1903.12 566.814 1906.55 546.255C1908.13 536.703 1894.61 533.733 1887.43 528.32C1883.51 526.362 1879.93 523.79 1876.83 520.702C1869.27 509.203 1852.91 500.677 1861.63 483.285C1867.9 470.763 1874.25 453.592 1892.7 471.073C1900.01 477.987 1903.89 476.312 1909.83 468.798C1935.6 436.206 1936.68 410.509 1912.38 379.73C1889.69 351.004 1886.29 299.223 1904.24 266.724C1913.49 249.949 1925.57 246.496 1943.17 253.355C1981.89 268.436 1989.54 262.212 1986.77 219.703C1986.4 215.558 1986.67 211.381 1987.59 207.32C1988.57 204.577 1990.2 202.108 1992.33 200.121C2005.84 202.948 2020.47 200.425 2032.99 208.417C2036.02 213.979 2035.98 219.686 2033.84 225.505C2023.38 236.167 2013.05 244.941 2009.45 262.397C2005.05 283.748 1977.75 292.747 1971 315.467C1969.78 319.564 1953.38 313.911 1961.5 327.298C1965.91 334.563 1966.16 348.318 1979.54 343.797C1996.86 337.946 2006.96 347.973 2017.89 357.624Z" fill="#6B8EAE"/>
<path d="M1973.64 76.3202C1979.6 85.0261 1987.8 91.171 1996.23 97.3304C2009 106.666 2016.34 117.954 2019.24 135.328C2022.13 152.729 2031.47 169.348 2031.84 187.926C2030.61 188.708 2029.38 189.491 2028.16 190.292C2012.1 186.181 1999.79 178.692 1998.87 159.781C1998.08 143.493 1982.46 137.841 1973.9 126.378C2003.91 145.778 2002.85 172.357 1992.77 201.184L1992.65 201.222C1983.07 206.342 1984.07 217.196 1979.75 225.163C1975.99 232.077 1971.33 237.077 1962.74 235.752C1952.86 234.241 1952.98 226.6 1952.99 219.179C1952.99 213.995 1953.59 208.803 1953.03 203.638C1952.57 199.384 1951.15 195.268 1945.96 195.407C1941.32 195.537 1938.96 198.023 1938.63 203.298C1937.41 223.001 1922.13 228.313 1906.77 230.855C1897.01 232.466 1884.85 226.389 1892.72 215.166C1905.39 197.121 1892.12 191.025 1882.09 183.116C1869.09 172.869 1853.6 164.895 1857.48 143.967C1841.73 145.698 1840.16 156.913 1836.5 166.138C1828.23 187.085 1810.9 186.863 1792.52 186.183C1773.62 185.482 1756.58 183.605 1755.08 159.28C1754.76 147.127 1760.09 136.456 1769.39 130.389C1794.44 114.028 1783.18 103.854 1764.78 93.8094C1763.93 91.6533 1763.56 89.3411 1763.67 87.0276C1763.79 84.7141 1764.41 82.4528 1765.47 80.3951C1777.6 65.4983 1794.67 66.7038 1810.34 69.2709C1826.94 72.0047 1840.06 68.6264 1851.67 57.108C1867.65 57.1261 1881.86 43.3164 1898.83 51.0502C1903.51 53.8772 1904.73 58.4707 1905.19 63.4609C1916.02 80.4011 1930.39 96.2567 1922.22 119.015C1938.97 72.0483 1939.79 71.3663 1973.64 76.3202Z" fill="#6B8EAE"/>
<path d="M1467.17 69.6917C1485.42 73.7702 1503.56 75.8874 1521.83 69.2951C1528.8 66.791 1535.11 63.7705 1540.76 58.8964C1572.95 31.0859 1615.22 46.1266 1623.69 88.2945C1652.66 91.4528 1681.6 93.3028 1710.38 86.5267C1712.71 88.297 1714.46 90.7243 1715.4 93.4963C1715.35 116.09 1700.89 127.691 1681.53 130.49C1654.39 134.421 1654.28 155.184 1648.33 173.763C1670.57 164.318 1690.77 152.891 1713.19 146.51C1716.16 145.853 1719.21 145.584 1722.25 145.71C1725.3 146.061 1728.29 146.868 1731.11 148.104C1737.73 152.029 1743.51 157.216 1748.14 163.37C1757.55 196.561 1773.68 222.368 1809.48 234.613C1824.6 239.787 1839.16 253.745 1838.7 274.498C1834.37 281.461 1825.29 284.316 1823.06 293.311C1821.14 301.109 1820.34 311.035 1808.59 309.902C1798.17 308.898 1792.6 301.196 1788.38 292.463C1786.56 288.707 1788.9 293.393 1787.31 289.536C1771.57 251.41 1771.57 251.41 1744.78 284.684C1728.31 240.214 1685.73 248.4 1653.92 243.851C1604.85 236.826 1603.74 241.843 1589.47 193.572C1586.25 180.608 1595.27 171.963 1600.54 161.983C1613.16 147.371 1617.47 131.028 1610.8 112.407C1609.15 100.476 1605.48 91.627 1590.93 99.2277C1583.61 103.049 1576.23 106.759 1568.84 110.433C1545.17 122.191 1522.14 134.15 1501.83 103.914C1497.87 98.0222 1487.45 96.3922 1481.18 90.8555C1477.89 88.2679 1474.69 85.5618 1471.4 82.9646C1469.19 81.2825 1467.23 79.2866 1465.6 77.0397C1465.05 75.8057 1464.9 74.4292 1465.19 73.1086C1465.47 71.788 1466.17 70.5916 1467.17 69.6917Z" fill="#6B8EAE"/>
<path d="M1467.17 69.6942V75.9335C1448.41 106.114 1423.96 117.494 1394.18 107.173C1369.58 98.6474 1343.34 98.4999 1318.84 89.5969C1297.68 81.8994 1293.12 100.471 1285.68 113.538C1277.48 113.409 1273.36 109.128 1272.95 101.054C1259.67 84.2597 1261.8 64.1515 1260.84 44.7156C1261.16 40.6045 1260.92 35.7207 1265.15 33.7498C1283.72 25.0681 1303.55 19.3863 1318.89 3.97444C1325.33 -2.50783 1336.75 0.181328 1345.74 3.32029C1378.96 14.9281 1410.37 30.3339 1438.68 51.2245C1447.88 58.0163 1456.82 64.848 1467.17 69.6942Z" fill="#6B8EAE"/>
<path d="M209.461 138.633C203.799 140.493 197.584 146.763 192.254 141.57C171.215 121.113 146.064 130.421 123.695 134.094C104.084 137.307 84.851 138.164 65.3317 138.615C31.6713 139.397 29.178 141.837 27.9048 176.363C22.749 178.122 19.9679 175.093 17.5557 171.285C14.5546 165.006 13.3575 157.925 9.11334 152.19C-18.9039 130.535 -17.5315 117.618 14.7117 103.679C25.1709 99.1676 36.1645 95.973 45.9139 89.7737C56.3271 83.1536 65.5796 83.9359 72.3109 95.3261C81.7665 111.356 93.6899 119.596 113.543 112.691C133.099 105.887 135.207 90.6588 136.146 73.8008C136.238 72.1806 138.917 70.8819 140.649 69.7042C161.171 69.934 179.576 60.5147 199.066 56.1146C217.664 51.9164 235.019 51.6588 252.874 57.0903C258.159 51.7507 267.021 57.1641 271.941 50.729L271.803 50.8209C282.418 48.1608 296.312 41.1634 298.853 58.2874C300.694 70.6981 288.091 74.1418 277.096 75.5323C260.671 77.5951 243.831 77.2082 259.917 102.712C268.212 115.859 252.726 120.537 242.451 119.726C226.248 118.455 217.436 127.092 209.463 138.627L209.461 138.633Z" fill="#6B8EAE"/>
<path d="M209.461 138.633C211.717 110.791 211.698 110.966 239.206 113.221C244.979 113.69 251.81 115.569 256.433 107.955C254.257 98.4636 239.326 100.415 238.332 89.5134C238.148 87.5159 237.31 85.5728 236.058 80.9696C250.084 76.1088 259.977 60.1722 279.423 68.5407C285.468 71.1368 292.723 66.9289 293.85 60.0888C295.379 50.7529 287.064 51.8387 281.172 51.2136C278.079 50.8907 274.931 50.9463 271.8 50.8363C298.62 39.457 325.523 45.1654 352.407 50.4736C366.586 49.9125 379.604 41.6069 397.254 43.6237C386.602 58.5846 379.881 74.5321 358.355 66.2917C352.748 64.1467 348.043 66.0801 344.259 69.8176C337.924 76.0786 323.332 77.266 325.615 87.9827C328.165 99.9605 341.377 94.5471 349.755 94.4734C363.501 94.344 376.308 97.1891 389.208 101.185C394.805 102.925 399.832 105.771 406.885 103.819C432.545 96.7115 437.213 101.522 430.98 126.744C430.321 128.708 429.489 130.61 428.494 132.427C416.282 134.858 410.163 126.01 402.715 117.503C394.631 121.342 396.537 132.4 388.73 136.073C379.873 140.243 372.89 134.066 365.031 133.394C346.948 131.865 327.65 131.929 310.893 134.692C276.829 140.291 243.177 136.562 209.461 138.633Z" fill="#6B8EAE"/>
<path d="M891.58 38.7373C878.505 48.3404 865.478 35.8741 852.496 38.6636C845.489 40.1738 832.908 34.0507 833.162 46.1301C833.374 55.8529 846.143 44.9149 852.524 52.7804C840.361 58.6364 829.948 66.8211 816.424 55.2386C810.697 50.3319 803.948 52.6426 801.02 59.299C797.997 66.1766 802.705 68.0049 808.948 67.7413C816.212 67.4462 815.125 72.041 812.529 75.7144C808.377 81.6066 803.414 86.9196 795.33 96.6509C795.956 71.8754 778.057 60.9736 775.13 42.8726C774.394 38.2972 766.309 38.3432 761.172 38.6745C732.28 40.516 703.02 34.0253 674.414 43.0842C664.701 46.1591 655.373 45.8097 653.737 32.22C714.209 32.11 774.698 31.4002 835.17 32.0906C877.017 32.5743 917.932 26.8986 958.342 17.0186C967.387 14.7344 976.679 13.5749 986.008 13.5664C996.504 13.5942 1012.83 30.0194 1014.75 3.81583C1014.8 3.11574 1020.79 1.65266 1023.32 2.53655C1047.75 11.0441 1073.09 4.74688 1097.83 7.53639C1129.24 25.4995 1161.36 40.331 1199.2 37.4315C1213.06 36.3638 1222.23 45.3224 1226.2 58.5614C1230.04 71.3591 1229.97 83.1991 1215.58 89.9751C1194.06 70.2998 1166.42 75.5294 1140.97 72.0676C1131.24 70.7375 1123.08 75.1606 1116.44 82.5727C1109.82 89.957 1103.93 100.867 1091.52 91.0622C1081.24 82.9415 1072.91 72.492 1079.01 59.2433C1093.26 28.2431 1071.23 39.0251 1057.57 39.7518C1011.13 43.9959 964.382 36.5657 918.107 44.4566C908.502 46.112 899.405 45.3296 891.58 38.7373Z" fill="#6B8EAE"/>
<path d="M140.648 69.7102C139.856 72.6835 137.462 77.2323 138.567 78.3641C143.374 83.2902 152.949 85.3615 138.586 92.1932C130.335 96.1156 144.389 103.997 141.752 111.188C133.917 113.674 125.944 115.727 118.33 118.7C89.6729 129.914 81.6671 127.18 66.0436 99.9728C64.5431 97.3575 63.4742 94.476 60.5747 88.1788C41.8933 110.709 7.11925 102.984 -9.00238 131.728C0.112213 137.592 15.35 135.576 15.4056 150.98C-3.45718 170.434 -25.6572 180.433 -53.2331 175.284C-56.0045 173.865 -58.7202 172.301 -61.3622 170.653C-63.864 166.849 -65.0627 162.335 -64.7781 157.791C-60.1374 139.193 -52.5052 120.659 -63.0648 101.546C-62.6655 98.7366 -61.2543 96.1698 -59.0963 94.3273C-29.0537 100.285 -2.89612 83.1318 25.6822 79.6966C39.0687 78.0945 51.8579 73.9144 65.1247 79.0618C77.4581 83.8403 89.3077 81.7594 101.492 77.8369C114.181 73.7342 126.644 67.7864 140.648 69.7102Z" fill="#6B8EAE"/>
<path d="M1711.05 88.511C1708.17 89.459 1703.39 89.6803 1702.72 91.4662C1696.1 108.923 1686.93 109.531 1672.73 98.7864C1663.08 91.4855 1651.37 94.4504 1640.46 98.6848C1630.68 102.478 1624.54 99.4103 1623.69 88.2861C1627.78 87.9089 1634 89.1059 1635.62 86.9053C1651.49 65.4344 1676.63 64.6424 1698.9 58.6583C1719.99 52.9874 1740.87 47.8581 1758.98 35.0327C1761.34 33.3664 1765.41 30.2178 1766.19 30.843C1785.09 46.0529 1801.4 30.1066 1818.67 26.8286C1830.73 24.5312 1843.56 28.4404 1850.77 35.0871C1862.65 46.0432 1873.44 50.002 1888.5 45.4543C1892.49 44.2452 1896.22 47.5813 1898.83 51.0431C1883.33 52.0648 1868.55 55.6644 1854.97 63.4719C1845.42 65.9942 1835.21 76.5187 1826.42 69.2758C1803.62 50.4566 1786.76 62.8951 1765.2 72.913C1749.05 80.4085 1728.39 80.2429 1711.05 88.511Z" fill="#6B8EAE"/>
<path d="M1210.68 88.6951C1226.08 81.017 1222.2 69.894 1217.81 57.0782C1213.75 45.2104 1205.63 44.5562 1195.95 44.7449C1194.91 44.7727 1193.86 44.6433 1192.84 44.7352C1154.91 48.3264 1121.68 39.8925 1097.82 7.53925C1125.41 11.4896 1153.3 12.8245 1180.7 18.6889C1195.96 21.7762 1210.32 28.2792 1222.71 37.71C1233.8 46.1342 1245.54 56.6671 1260.83 44.7171C1270.94 62.1917 1273.98 81.1863 1272.95 101.055C1264.01 107.896 1267.81 117.775 1266.87 126.521C1246.72 116.022 1213.58 124.823 1210.68 88.6951Z" fill="#6B8EAE"/>
<path d="M1973.64 76.3202C1953.12 73.8064 1940.24 81.3841 1934.98 102.532C1932.32 113.231 1925.97 123.008 1919.7 133.321C1922.93 108.085 1909.03 86.8894 1905.19 63.4584C1917.37 71.5791 1931.28 68.8633 1944.64 69.8935C1954.55 70.6674 1965.82 65.9251 1973.64 76.3202Z" fill="#6B8EAE"/>
<path d="M271.94 50.7348C267.485 58.5423 259.981 57.2255 252.873 57.0961C257.836 50.7952 264.86 50.6743 271.94 50.7348Z" fill="#6B8EAE"/>
<path d="M1220 83C1229.35 96.2209 1227.48 116.813 1249.05 112.03C1253.7 110.999 1260.86 121.384 1266.88 126.512C1269.32 134.753 1283.16 139.964 1275.21 150.575C1268.71 159.238 1259.27 163.436 1247.87 157.452C1235.9 151.173 1230.65 156.817 1229.33 168.712C1228.87 172.8 1227.68 176.813 1227.23 180.903C1223.99 210.135 1224.99 211.373 1255.06 214.535C1246.6 231.463 1222.01 239.909 1229.33 263.756C1222.4 265.763 1213.72 265.799 1208.83 270.119C1189.67 287.047 1168.5 276.563 1148.88 274.648C1127.67 272.567 1115.53 235.955 1131.07 221.229C1144.1 208.873 1134.51 204.997 1126.31 202.262C1114.38 198.272 1101.48 197.208 1082.06 193.599C1102.39 183.2 1112.33 172.966 1113.07 154.653C1113.49 144.341 1128.88 149.174 1136.13 142.51C1146.28 133.156 1148.65 125.476 1139.27 117.568C1134.82 113.82 1127.98 112.611 1125.97 118.052C1121.44 130.223 1114.43 132.526 1102.22 130.877C1096.5 130.104 1094.65 139.583 1091.71 144.904C1086.21 143.597 1076.62 136.737 1075.89 144.057C1073.87 164.331 1052.53 169.064 1046.56 186.327C1041.29 201.573 1025.1 194.318 1013.62 194.005C1002.38 193.692 998.246 184.918 998.035 174.477C997.823 164.119 997.952 153.761 997.759 143.402C997.657 137.235 998.164 130.235 990.67 127.869C984.925 126.065 981.186 129.95 978.074 134.498C976.352 137.012 974.243 139.709 971.657 141.027C969.227 142.26 963.666 142.693 963.353 141.921C958.602 130.163 948.171 115.924 951.449 106.621C960.545 80.786 960.555 77.6095 933.052 76.0812C902.393 74.369 897.882 70.3087 891.579 38.7377C899.874 38.6644 908.173 38.5837 916.474 38.4959C954.26 31.8758 992.376 37.3907 1030.28 35.3751C1042.41 34.7306 1055 38.6712 1066.65 32.2312C1084.52 17.5824 1090.44 37.9953 1103.1 42.497C1076.34 64.778 1076.32 66.7018 1102.22 90.8703C1112.07 61.5278 1133.71 58.3876 1158.94 66.3608C1167.53 69.0766 1174.61 67.235 1182.84 65.6703C1199.54 62.4915 1214.42 62.2764 1220 83Z" fill="#6B8EAE"/>
<path d="M428.495 132.418C481.887 127.934 533.658 139.019 585.889 147.452C629.769 154.524 673.816 159.845 718.949 157.074C737.878 155.904 758.264 166.705 776.714 174.917C784.015 178.158 789.079 179.754 796.527 177.615C815.706 172.118 833.447 180.45 851.207 185.376C858.959 187.531 865.838 194.832 865.276 204.177C864.659 214.397 853.261 220.437 847.801 218.19C832.582 211.929 824.756 235.996 809.316 225.203C805.404 222.478 803.93 229.457 803.949 233.406C803.967 240.745 803.682 248.57 813.313 250.633C837.186 255.725 857.285 247.489 875.525 232.762C884.11 225.828 889.372 213.814 905.042 214.577C907.04 224.309 897.327 227.844 894.196 234.308C892.273 238.285 891.407 242.345 893.713 246.093C896.668 250.889 900.572 248.293 904.549 246.958C928.248 239.021 938.385 247.952 939.029 277.167C930.761 273.87 930.669 258.816 922.714 260.428C908.296 263.356 893.519 261.644 879.598 265.474C872.15 267.53 873.467 274.82 875.317 281.314C878.152 291.285 888.4 297.5 889.343 312.396C865.018 298.862 843.952 277.667 812.308 291.939C821.083 301.772 835.491 296.671 842.406 305.915C846.356 311.191 856.768 315.196 849.22 323.298C843.732 329.19 838.024 323.952 834.387 318.198C832.112 314.589 829.351 311.164 824.835 311.21C800.473 311.44 790.953 295.144 785.153 275.298C781.829 263.955 779.228 254.279 764.597 264.508C758.935 268.467 752.536 263.873 746.644 262.639C733.423 259.858 730.633 251.305 735.678 239.665C737.713 234.96 741.349 230.89 743.054 226.103C745.807 218.364 740.031 214.125 734.243 212.302C726.048 209.714 729.907 228.551 719.761 222.144C715.249 219.291 714.429 211.132 710.571 206.529C706.581 201.778 700.866 202.552 697.498 207.808C692.35 215.828 677.896 211.27 676.616 223.691C676.45 225.311 679.341 228.727 679.424 228.681C692.967 221.527 698.519 252.167 714.107 236.037C716.058 234.012 720.459 236.139 720.984 239.471C721.407 242.215 720.892 246.652 719.097 247.914C712.327 252.705 705.128 256.859 697.592 260.323C690.521 263.527 674.289 259.872 688.348 275.984C690.824 278.819 686.442 283.682 682.446 285.449C677.759 287.53 674.666 284.769 672.254 281.03C671.693 280.156 670.803 279.234 670.772 278.314C669.492 248.622 647.064 243.217 624.525 237.928C618.31 236.464 617.003 231.53 616.175 226.236V226.226C610.577 221.669 604.638 217.461 599.455 212.471C593.018 206.274 587.449 200.695 579.079 210.224C571.687 218.64 573.573 225.011 581.795 230.931C585.128 233.334 588.765 235.48 587.458 241.115C555.408 240.065 561.116 214.424 558.722 194.417C546.403 199.306 540.677 205.337 545.629 218.576C549.117 228.321 548.614 239.049 544.23 248.425C515.846 239.54 511.987 236.557 518.037 212.49C523.304 191.498 512.218 182.226 499.614 170.452C484.081 197.925 484.081 197.925 501.657 218.917C497.956 228.502 486.834 227.157 480.618 233.86C476.953 219.713 473.611 206.828 470.279 193.947C453.592 195.365 448.412 225.067 426.024 211.864C413.667 204.581 415.122 193.441 417.82 180.035C420.425 184.026 422.101 186.452 423.624 188.966C427.96 196.055 434.009 195.19 439.598 191.516C445.523 187.612 447.535 181.646 442.682 175.579C432.545 162.873 426.68 148.952 428.494 132.412L428.495 132.418Z" fill="#6B8EAE"/>
<path d="M1930.09 595.355C1920.74 599.194 1913.56 613.474 1900.8 601.173C1898.56 599.018 1894.32 599.469 1894.55 603.364C1896.39 633.48 1861.49 623.831 1852.35 642.393C1850.81 645.537 1843.55 643.738 1841.76 640.055C1826.09 607.959 1795.11 611.881 1767.47 607.877C1753.06 596.57 1741.78 577.347 1718.14 593.062C1711.58 597.426 1701.92 592.501 1698.57 582.814C1713.44 559.962 1716.84 534.23 1717.37 507.777C1718.97 506.414 1719.53 505.033 1719.04 503.625C1718.54 502.216 1718.03 501.498 1717.51 501.498C1717.47 497.336 1717.44 493.174 1717.41 489.013C1714.22 465.048 1737.6 460.236 1749.75 454.146C1762.95 447.536 1763.43 469.043 1770.39 480.644C1773.87 473.435 1781.06 470.003 1787.78 473.297C1820.26 489.271 1829.95 463.019 1839.89 443.282C1845.34 432.464 1849.91 424.076 1861.32 420.246C1876.9 419.814 1881.07 407.504 1884.94 396.142C1888.5 385.719 1890.01 374.607 1892.42 363.807C1869.25 337.484 1845.47 311.557 1836.44 276.203C1827.16 256.094 1813.88 239.54 1791.85 233.344C1764.81 225.727 1750.86 208.595 1748.27 180.957C1747.71 175.055 1744.48 169.412 1742.48 163.638C1744.58 149.477 1752.65 152.866 1761.08 157.313C1762.86 170.958 1766.26 181.738 1784.46 176.887C1789.78 175.468 1796.65 180.756 1802.45 180.045C1815.42 178.48 1830.23 178.387 1830.21 158.611C1830.18 137.371 1849.58 137.398 1861.55 129.618C1864.02 131.883 1866.84 133.729 1866.59 134.341C1857.32 157.231 1870.88 167.965 1888.42 177.485C1897.59 182.466 1905.63 189.818 1909.65 199.674C1911.68 204.674 1914.49 211.993 1906.06 215.492C1902.23 217.076 1893.22 213.862 1897.47 222.765C1899.74 227.526 1909.74 227.442 1911.12 224.266C1915.52 214.138 1942.12 219.202 1930.06 197.068C1929.51 196.075 1945.54 186.039 1954.71 179.612C1967.29 195.899 1958.62 214 1960.29 231.88C1977.83 229.589 1975.83 217.092 1976.19 206.331C1976.8 188.441 1986.42 200.484 1992.64 201.221C1992.87 209.517 1991.84 218.005 1995.67 225.794C2005.21 245.144 1990.64 257.163 1981.41 270.154C1976.09 277.651 1967 277.759 1958.87 273.073C1956.24 271.563 1954.56 268.479 1952.01 266.804C1923.51 248.062 1907.32 255.056 1905.63 288.873C1904.75 306.661 1896.23 323.104 1898.73 341.151C1899.69 348.185 1896.44 358.358 1903.68 361.259C1928.45 371.165 1925.91 400.24 1943.44 414.871C1948.24 418.875 1946.67 423.792 1943.23 428.59C1931.47 444.987 1919.41 460.961 1915.07 481.696C1912.9 492.094 1895.18 491.979 1887.84 481.861C1885.14 478.142 1887.27 471.807 1882.59 468.373C1862.77 487.625 1862.78 487.625 1877.11 505.321C1880.71 509.759 1879.77 515.146 1880.18 520.255C1868.62 522.52 1853.46 513.363 1847.59 533.237C1844.93 542.232 1835.99 541.096 1831.02 533.025C1822.49 519.132 1815.69 527.281 1810.05 534.811C1801.32 546.467 1812.56 549.57 1819.63 551.025C1834.62 554.1 1830.6 568.942 1838.55 580.57C1846.56 548.816 1866.64 531.754 1892.55 520.365C1899.13 524.582 1902.57 533.099 1912.29 533.209C1919.71 533.291 1924.91 538.816 1919.51 545.039C1906.46 560.13 1913.72 570.653 1924.98 581.397C1928.85 585.099 1929.78 590.19 1930.09 595.355Z" fill="#6B8EAE"/>
<path d="M1836.43 276.204C1837.33 276.688 1838.67 276.929 1839.09 277.686C1855.62 307.167 1880.76 331.317 1892.41 363.808C1887.23 364.702 1880.88 366.414 1881.2 372.085C1882.67 397.693 1865.51 395.868 1848.79 395.167V395.177C1857.51 382.49 1850.54 371.645 1845.09 360.605C1834.55 358.017 1827.85 367.565 1818.58 368.237C1817.74 366.737 1815.85 364.361 1816.24 363.901C1827.67 350.229 1823.07 339.19 1810.92 329.228C1809.31 327.911 1808.01 326.125 1806.26 325.084C1784.88 312.442 1770.52 295.299 1771.07 268.341C1757.09 302.103 1779.43 322.947 1799.73 346.011C1781.5 344.37 1781.5 344.37 1753.62 309.718C1742.03 325.756 1759.45 339.309 1755.61 356.14C1740.85 347.66 1720.01 347.835 1724.97 318.317C1696.71 353.009 1664.9 340.754 1634.58 337.763C1630.86 324.901 1641.02 324.532 1646.22 321.236C1655.6 315.288 1655.06 308.494 1650.78 299.969C1646.5 291.425 1642.12 289.812 1634.15 296.571C1627.69 302.04 1620.74 297.961 1621.29 290.706C1622.5 274.714 1617.27 267.587 1600.67 267.733C1589.35 267.834 1593.4 257.503 1592.09 251.068C1581.63 239.053 1579.49 224.671 1580.24 209.443C1581.88 202.519 1585.29 197.11 1592.6 195.034C1602.5 190.513 1606.83 193.515 1603.02 203.955C1600.29 211.451 1598.16 219.081 1606.27 222.902C1615.07 227.046 1621.87 231.652 1626.5 227.5C1637.49 217.649 1651.12 243.978 1659.78 231.327C1661.82 228.335 1668.81 226.153 1669.21 231.641C1670.78 252.761 1683.6 244.364 1693.36 241.178C1702.62 238.149 1709.28 240.524 1715.92 246.592C1718.87 249.289 1724.31 253.745 1725.88 252.815C1748.19 239.529 1740.56 258.827 1742.41 267.63C1743.03 270.603 1743.48 273.614 1744.31 278.365C1746.67 274.495 1748.36 272.141 1749.62 269.572C1755.02 258.588 1762.77 249.685 1775.88 252.171C1789.61 254.776 1791.74 267.141 1792.27 278.724C1792.91 292.535 1798.45 301.723 1812.44 306.005C1814.08 276.517 1814.49 276.038 1836.43 276.204Z" fill="#6B8EAE"/>
<path d="M1285.68 113.536C1276.76 101.033 1283.72 92.7834 1292.83 84.4234C1300.57 77.316 1308.25 74.5349 1318.08 79.8201C1345.83 94.735 1379.37 89.4135 1406.95 105.02C1418.87 93.6407 1444.81 110.186 1449.3 83.4573C1451.08 72.8602 1463.13 83.1719 1467.17 75.9351L1473.37 76.2979C1475.46 78.3131 1477.6 80.2881 1479.78 82.2227C1488.14 85.9239 1493.69 94.7906 1503.97 95.0204C1506.02 95.0168 1508.05 95.449 1509.93 96.2886C1511.8 97.1282 1513.48 98.356 1514.84 99.8908C1530.59 117.218 1536.43 118.443 1556.71 108.057C1568.5 102.027 1579.9 95.232 1591.62 89.0544C1611.32 78.6871 1615.48 81.2106 1617.32 104.32C1617.56 107.395 1617.32 110.498 1617.31 113.592C1604.22 124.889 1589.23 132.236 1580.72 150.502C1566.03 182.018 1537.43 163.033 1514.13 162.11C1511.35 161.179 1508.77 159.736 1506.51 157.856C1501.1 152.497 1499.27 145.777 1498.69 138.375C1496.17 106.638 1494.09 104.263 1465.17 114.703C1449.16 120.475 1429.52 116.746 1417.08 132.141C1402.73 135.585 1398.23 122.373 1389.37 116.287C1384.05 112.622 1377.43 105.293 1370.25 111.867C1364.53 117.087 1368.35 123.717 1372.68 128.256C1381.3 137.271 1377.88 146.79 1371.57 153.271C1360.18 164.955 1357.9 189.062 1332.06 182.654C1317.98 179.164 1312.64 171.228 1320.61 158.592C1325.51 150.82 1333.15 144.818 1338.53 137.278C1342.31 132.002 1343.43 125.079 1335.78 121.727C1329.14 118.808 1323.3 121.81 1320.88 128.513C1319.59 132.122 1322.02 137.36 1320.29 140.5C1313.96 151.987 1298.67 151.88 1293.53 140.187C1289.84 131.775 1288.22 122.448 1285.68 113.536Z" fill="#6B8EAE"/>
<path d="M1861.31 420.247C1857.39 424.924 1849.52 430.301 1850.19 434.177C1854.75 460.15 1830.6 467.452 1819.87 483.214C1812.5 494.051 1802.46 494.502 1794.2 484.544C1782.1 469.979 1776.37 480.834 1769.91 490.207C1760.79 480.476 1758.51 467.89 1751.14 455.184C1747.69 466.499 1747.91 479.785 1730.75 474.841C1721.72 472.235 1721.32 483.596 1717.4 489.011C1715.9 486.479 1712.93 483.846 1713.12 481.443C1715.12 455.204 1715.26 455.102 1690.56 455.239C1686.11 455.267 1682.05 455.489 1681.15 450.111C1680.42 445.692 1681.71 440.831 1686.82 441.135C1701.8 442.009 1700.73 433.253 1694.2 426.376C1681.72 413.229 1689.41 401.517 1693.85 389.042C1701.22 387.753 1697.75 401.375 1706.45 398.232C1707.26 396.539 1709.15 394.447 1708.71 393.177C1706 385.388 1702.37 377.912 1699.92 370.058C1699.17 367.656 1700.42 363.797 1702.11 361.689C1702.62 361.102 1703.24 360.626 1703.94 360.291C1704.64 359.957 1705.4 359.771 1706.18 359.745C1706.95 359.719 1707.73 359.854 1708.45 360.141C1709.17 360.428 1709.82 360.861 1710.37 361.413C1725.14 377.682 1751.23 373.52 1764.94 394.135C1773.11 406.436 1792.52 406.334 1806.53 412.107C1823.11 418.93 1842.91 417.88 1861.31 420.247Z" fill="#6B8EAE"/>
<path d="M1417.08 132.133C1414.2 124.702 1407.68 114.427 1422.38 114.358C1440.62 114.266 1457.03 110.005 1473.25 102.398C1477.61 100.343 1483.47 101.165 1488.64 101.173C1509.99 101.219 1513.42 104.294 1507.81 124.67C1504.48 136.767 1504.99 146.918 1510.93 157.364C1504.2 167.658 1500.62 179.829 1491.93 188.923C1484.44 178.805 1473.08 173.989 1463.04 167.204C1447.1 156.431 1432.33 143.918 1417.08 132.133Z" fill="#6B8EAE"/>
<path d="M1491.93 188.923C1492.42 174.882 1489.89 159.037 1510.93 157.364L1510.88 157.511C1515.62 161.572 1522.7 160.752 1527.19 165.273C1547.57 185.776 1565 179.166 1581.11 159.546C1586.38 153.147 1591.99 146.14 1601.45 149.483C1608.59 152.014 1609.46 157.87 1605.11 164.168C1605.14 176.165 1591.43 182.582 1592.6 195.039C1590.45 199.2 1588.29 203.362 1586.13 207.523C1572.29 238.264 1567.84 239.794 1538.21 223.737C1527.3 217.826 1516.29 212.08 1504.94 207.062C1500.6 201.012 1496.27 194.965 1491.93 188.923Z" fill="#6B8EAE"/>
<path d="M1504.94 207.059C1518.51 200.016 1528.59 209.627 1538.48 215.419C1565.26 231.117 1564.95 231.66 1586.12 207.52C1585.34 222.416 1594.95 235.896 1592.09 251.078C1584.86 257.772 1578.78 268.074 1567.69 255.055C1556.27 241.641 1544.15 230.196 1523.47 231.826C1507.92 233.051 1511.09 215.511 1504.94 207.059Z" fill="#6B8EAE"/>
<path d="M1848.79 395.167C1847.4 397.883 1843.19 401.078 1842.62 399.679C1839.7 392.552 1846.65 396.816 1848.79 395.176V395.167Z" fill="#6B8EAE"/>
<path d="M21.6653 170.038L27.907 176.363C27.9344 178.352 28.0355 180.341 28.2105 182.329C25.7619 199.049 31.9855 214.894 35.4473 232.025C22.5396 236.896 16.5639 220.323 2.87271 227.189C2.87271 241.745 0.184757 258.603 3.51718 274.172C8.23287 296.139 2.88238 313.953 -8.9129 331.633C-14.059 339.358 -17.3008 348.335 -21.6646 356.612C-24.5279 362.043 -27.3549 368.719 -35.0511 367.131C-42.0207 365.695 -43.3193 358.495 -45.7122 352.943C-49.2853 344.666 -43.5358 333.717 -52.9949 327.053C-29.876 318.702 -20.181 299 -17.99 277.598C-15.3939 252.224 -7.18987 227.393 -9.68555 201.493C-14.6298 187.664 -20.1907 173.522 -3.85744 163.21C6.66823 156.55 15.6172 158.575 21.6653 170.038Z" fill="#6B8EAE"/>
<path d="M1761.07 157.315C1754.27 157.646 1746.9 156.329 1742.47 163.64C1739.61 162.576 1737 160.911 1734.83 158.755C1732.67 156.6 1730.98 154.005 1729.9 151.145C1716.04 134.904 1731.5 108.886 1711.11 94.8172C1711.09 92.7181 1711.07 90.619 1711.05 88.5102C1716.01 76.1769 1731.6 74.9109 1737.37 63.0527C1739.4 58.8824 1745.51 58.6889 1746.94 63.3478C1751.17 77.1587 1758.82 71.3209 1765.62 67.0671C1770.79 63.8169 1774.94 58.9561 1779.71 55.0058C1791.56 45.2117 1805.58 42.7692 1815.76 54.3517C1827.7 67.9317 1840.98 64.7093 1854.97 63.4759C1844.66 75.5675 1835.06 84.2467 1815.85 77.6726C1807.95 74.912 1799.54 73.899 1791.2 74.7033C1782.87 75.5076 1774.81 78.1102 1767.58 82.3314C1762.29 86.4752 1763.91 90.654 1767.52 94.8438C1775.67 94.4188 1783.77 96.3458 1790.85 100.395C1805.45 108.525 1805.17 111.351 1791.12 121.203C1778.01 130.402 1763.77 139.216 1761.07 157.315Z" fill="#6B8EAE"/>
<path d="M1767.52 94.8447C1763.84 93.3623 1759.62 91.5208 1759.31 87.3963C1758.88 81.7895 1764.08 82.9031 1767.58 82.3324C1767.56 86.5032 1767.54 90.674 1767.52 94.8447Z" fill="#6B8EAE"/>
<path d="M1711.11 94.8166C1720.27 90.6644 1729.56 86.5763 1729.8 102.808C1730.04 118.92 1729.89 135.033 1729.91 151.145C1727.84 151.117 1725.78 151.081 1723.73 151.062C1721.58 148.764 1719.47 148.898 1717.4 151.153C1706.92 155.601 1696.46 160.094 1685.95 164.486C1677.35 168.085 1668.35 170.968 1662.81 179.392C1659.11 185.017 1657.02 195.09 1647.37 189.52C1637.48 183.802 1632.47 173.075 1637.68 162.709C1644.05 150.059 1655.31 140.115 1657.51 124.887C1658.11 120.799 1664.24 119.943 1668.24 121.324C1693.57 130.101 1703.31 114.134 1711.11 94.8166Z" fill="#6B8EAE"/>
<path d="M1605.11 164.165C1601.81 148.706 1594.43 149.857 1588.22 161.449C1583.41 170.436 1581.49 179.329 1569.13 182.663C1540.15 190.461 1540.42 191.248 1519.68 165.906C1517.13 162.794 1513.83 160.29 1510.88 157.51C1523.14 158.84 1536 147.925 1548.1 161.285C1552.45 166.091 1560.34 163.366 1566.43 156.69C1583.25 138.23 1583.79 138.719 1575.23 114.698C1590.64 121.529 1603.99 117.708 1617.32 113.584C1628.9 134.214 1622.3 150.474 1605.11 164.165Z" fill="#6B8EAE"/>
<path d="M1717.4 151.155C1719.44 146.845 1721.55 146.883 1723.73 151.063C1721.62 151.091 1719.51 151.127 1717.4 151.155Z" fill="#6B8EAE"/>
<path d="M1479.78 82.2124C1477.64 80.2423 1475.5 78.2674 1473.36 76.2876C1475.5 78.2585 1477.65 80.2334 1479.78 82.2124Z" fill="#6B8EAE"/>
<path d="M21.6677 170.039C-5.84289 161.182 -8.42078 163.125 -5.32656 190.939C-4.81146 195.524 -6.11856 198.839 -9.67951 201.49L-9.66135 201.389C-13.7301 197.071 -17.8461 197.338 -21.9947 201.259C-39.1937 199.851 -50.463 189.364 -60.112 176.382C-59.9831 174.273 -59.8541 172.165 -59.7251 170.057C-31.5519 176.005 -9.51988 157.802 15.4128 150.98C22.7995 155.584 21.6302 163.013 21.6677 170.039Z" fill="#6B8EAE"/>
<path d="M286.082 82.4156C290.005 74.6444 298.687 69.0835 308.124 66.4778C313.98 64.8672 315.742 71.763 315.204 77.047C314.403 84.7855 296.965 94.9908 289.57 92.0538C286.635 90.8954 285.54 87.8193 286.082 82.4156Z" fill="#6B8EAE"/>
<path d="M1066.65 32.2235C1058.59 41.8266 1047.5 38.2814 1037.58 38.3648C997.211 38.7143 956.847 38.5026 916.475 38.4942C924.642 29.1305 935.671 32.5464 945.616 32.4629C985.961 32.0893 1026.31 32.2634 1066.65 32.2235Z" fill="#6B8EAE"/>
<path d="M799.492 263.59C800.701 262.26 801.739 260.073 803.165 259.769C805.578 259.254 806.645 261.077 805.688 263.407C805.294 264.347 804.614 265.139 803.745 265.671C801.444 266.978 799.971 266.186 799.492 263.59Z" fill="#6B8EAE"/>
<path d="M616.171 226.227C617.534 223.493 621.778 220.289 622.368 221.716C625.323 228.879 618.336 224.607 616.171 226.237V226.227Z" fill="#6B8EAE"/>
</g>
<defs>
<clipPath id="clip0_18_3177">
<rect width="1920" height="459" fill="white"/>
</clipPath>
</defs>
</svg>
