<svg width="175" height="50" viewBox="0 0 175 50" fill="none" xmlns="http://www.w3.org/2000/svg">
<g clip-path="url(#clip0_18_3154)">
<path d="M15.2732 25.724C17.4974 25.8037 19.7124 25.4007 21.7659 24.5426H21.8583L21.1392 21.7586L20.9954 21.8305C19.3962 22.5304 17.6659 22.8807 15.9204 22.8578C10.1468 22.8578 6.67447 19.1902 6.67447 13.0571C6.67447 6.92395 10.2701 2.99957 16.0437 2.99957C17.7196 2.97743 19.3794 3.32834 20.9029 4.0269L21.0468 4.09881L21.8789 1.24283H21.7864C19.9536 0.413614 17.9505 0.0298999 15.9409 0.123052C8.25651 0.123052 3.08911 5.39324 3.08911 13.2215C3.10966 20.7723 7.88671 25.724 15.2732 25.724Z" fill="white"/>
<path d="M28.9264 13.7767H40.4427V25.3649H43.8842V0.400879H40.4427V10.7358H28.9264V0.400879H25.5156V25.3649H28.9264V13.7767Z" fill="white"/>
<path d="M53.2431 17.5982H61.6877L64.2868 25.3648H67.9236L59.5304 0.452148H55.5443L47.1819 25.4162H50.7672L53.2431 17.5982ZM57.4449 3.74987C57.7736 5.06485 58.1229 6.42092 58.6263 7.85917L60.948 14.8039H53.9828L56.3046 7.82836C56.6847 6.61611 57.0442 5.34222 57.4449 3.74987Z" fill="white"/>
<path d="M74.3956 14.6807C74.3956 10.7255 74.334 7.83874 74.1696 4.8595C75.4831 7.57805 76.9512 10.2192 78.5666 12.7699L86.3332 25.3649H89.713V0.452262H86.5181V10.9207C86.5181 14.3623 86.5694 17.3518 86.8365 20.5776C85.5961 17.9794 84.2069 15.4548 82.6759 13.0165L74.8682 0.452262V0.390625H71.2314V25.3547H74.3956V14.6807Z" fill="white"/>
<path d="M99.596 25.3649H103.038V3.38013H110.486V0.400879H92.1992V3.38013H99.596V25.3649Z" fill="white"/>
<path d="M116.341 0.400879H112.941V25.3547H116.341V0.400879Z" fill="white"/>
<path d="M135.388 22.4268H124.981V0.400879H121.571V25.3649H135.388V22.4268Z" fill="white"/>
<path d="M152.442 22.4268H142.035V0.400879H138.624V25.3649H152.442V22.4268Z" fill="white"/>
<path d="M158.061 25.3645H161.503V14.7522L169.721 0.369629H165.848L162.304 7.26299L161.914 8.03349C161.154 9.53338 160.496 10.8484 159.921 12.1428C159.15 10.3861 158.421 8.89644 157.589 7.23217L154.157 0.451817H150.284L158.061 14.8344V25.3645Z" fill="white"/>
<path d="M12.7562 44.2883C13.1817 44.0873 13.5389 43.7658 13.7835 43.3637C14.0478 42.9687 14.1874 42.5034 14.1842 42.0281C14.1889 41.5982 14.0751 41.1752 13.8554 40.8056C13.6649 40.458 13.3957 40.1599 13.0692 39.9351C12.7427 39.7103 12.3681 39.5651 11.9754 39.5112C11.3626 39.4284 10.7443 39.3941 10.1262 39.4085H5.97583V49.8153H9.52006C10.8659 49.8153 11.7186 49.8153 12.0679 49.7434C12.5711 49.7005 13.0553 49.5309 13.4753 49.2502C13.8574 48.9884 14.1682 48.6352 14.3794 48.2229C14.5994 47.7935 14.7154 47.3185 14.7183 46.836C14.7275 46.2726 14.5465 45.7225 14.2047 45.2745C13.8426 44.7962 13.3339 44.4498 12.7562 44.2883ZM8.10234 41.1344H9.31464C10.342 41.1344 10.907 41.1344 11.1125 41.1344C11.4115 41.1524 11.6933 41.2804 11.9035 41.4939C12.0867 41.7158 12.1817 41.9974 12.1706 42.285C12.1764 42.434 12.1521 42.5827 12.0992 42.7222C12.0462 42.8616 11.9657 42.9889 11.8624 43.0966C11.6287 43.3135 11.3278 43.444 11.0097 43.4664C10.4998 43.4926 9.98889 43.4926 9.47899 43.4664H8.10234V41.1344ZM12.2116 47.586C12.0107 47.8088 11.7381 47.9541 11.4412 47.9969C10.9639 48.0527 10.4832 48.0733 10.0029 48.0585H8.05099V45.2745H9.7461C10.3735 45.2408 11.0025 45.2926 11.6158 45.4286C11.8806 45.5104 12.1114 45.6763 12.2733 45.9012C12.4351 46.1364 12.5179 46.4171 12.5096 46.7025C12.5322 47.0198 12.4371 47.3343 12.2425 47.586H12.2116Z" fill="white"/>
<path d="M24.4368 45.2331H29.6762V43.4764H24.4368V41.1649H30.0666V39.4082H22.3308V49.815H30.2618V48.0583H24.4368V45.2331Z" fill="white"/>
<path d="M37.1345 41.1649H40.2268V49.815H42.3328V41.1649H45.425V39.4082H37.1345V41.1649Z" fill="white"/>
<path d="M51.8665 41.1649H54.9587V49.815H57.075V41.1649H60.157V39.4082H51.8665V41.1649Z" fill="white"/>
<path d="M69.4542 45.2331H74.6935V43.4764H69.4542V41.1649H75.0839V39.4082H67.3481V49.815H75.2894V48.0583H69.4542V45.2331Z" fill="white"/>
<path d="M89.8055 46.0962C89.4721 45.7531 89.0916 45.4591 88.6755 45.223C89.4528 45.1536 90.1806 44.8115 90.7301 44.2573C91.2006 43.7267 91.4473 43.0345 91.4184 42.3259C91.4253 41.7464 91.2686 41.1767 90.9664 40.6822C90.6917 40.2112 90.2639 39.8486 89.7542 39.6549C88.9626 39.4328 88.1406 39.3391 87.3194 39.3775H82.8813V49.7843H84.9874V45.4387H85.4188C85.7648 45.4285 86.1106 45.4666 86.4461 45.5517C86.6916 45.6443 86.9104 45.796 87.0831 45.9935C87.4845 46.4801 87.8551 46.9913 88.1926 47.5242L89.713 49.7843H92.2403L90.9664 47.7297C90.6264 47.1533 90.238 46.6069 89.8055 46.0962ZM86.5592 43.8053H84.9976V41.1651H86.6516C87.5043 41.1651 88.018 41.1651 88.1823 41.1651C88.4882 41.2076 88.7707 41.3524 88.9837 41.576C89.1764 41.8172 89.2749 42.1202 89.261 42.4287C89.271 42.7049 89.1957 42.9775 89.0453 43.2094C88.9035 43.4166 88.6979 43.5718 88.4597 43.6512C87.8374 43.7735 87.2033 43.8252 86.5694 43.8053H86.5592Z" fill="white"/>
<path d="M125.403 44.0723C124.677 43.7278 123.91 43.4758 123.122 43.3223C122.442 43.2053 121.788 42.9688 121.19 42.6237C121.094 42.5477 121.017 42.4509 120.963 42.3406C120.91 42.2303 120.882 42.1093 120.882 41.9868C120.878 41.8599 120.906 41.734 120.963 41.6208C121.021 41.5076 121.106 41.4108 121.211 41.3396C121.641 41.0702 122.143 40.9409 122.649 40.9698C123.121 40.9336 123.591 41.0566 123.985 41.319C124.313 41.6179 124.518 42.028 124.56 42.4696L126.615 42.3772C126.614 41.9446 126.522 41.5171 126.345 41.1224C126.168 40.7277 125.91 40.3746 125.587 40.0863C124.737 39.4519 123.687 39.1455 122.629 39.2233C121.926 39.2046 121.226 39.3305 120.574 39.5931C120.046 39.7977 119.592 40.1555 119.269 40.6205C118.9 41.1771 118.749 41.8499 118.844 42.511C118.938 43.172 119.273 43.7752 119.783 44.2058C120.483 44.7284 121.296 45.0802 122.156 45.2332C123.04 45.4489 123.594 45.603 123.851 45.6954C124.138 45.7755 124.397 45.9318 124.601 46.1475C124.748 46.3225 124.825 46.5458 124.817 46.7741C124.818 46.9736 124.772 47.1705 124.682 47.349C124.593 47.5274 124.463 47.6824 124.303 47.8015C123.856 48.1127 123.316 48.2613 122.773 48.2227C122.22 48.2544 121.676 48.0826 121.242 47.7398C120.825 47.3381 120.56 46.8045 120.492 46.2297L118.437 46.4249C118.497 47.4422 118.95 48.3964 119.701 49.0856C120.58 49.7613 121.678 50.087 122.783 49.9999C123.557 50.0247 124.329 49.8955 125.053 49.6198C125.634 49.3933 126.128 48.9864 126.461 48.459C126.768 47.9613 126.938 47.3908 126.953 46.8058C126.967 46.2209 126.826 45.6427 126.543 45.1304C126.268 44.6793 125.873 44.3131 125.403 44.0723Z" fill="white"/>
<path d="M143.802 39.4082H140.967L136.713 44.0312V39.4082H134.607V49.815H136.713V46.6714L138.419 44.9249L141.285 49.815H144.018L139.867 43.4559L143.802 39.4082Z" fill="white"/>
<path d="M152.976 39.4082H150.87V49.8253H152.976V39.4082Z" fill="white"/>
<path d="M167.153 46.3632L162.89 39.4082H160.835V49.815H162.797V43.0244L166.999 49.815H169.115V39.4082H167.153V46.3632Z" fill="white"/>
<path d="M173.481 32.5972H2V33.3266H173.481V32.5972Z" fill="white"/>
</g>
<defs>
<clipPath id="clip0_18_3154">
<rect width="175" height="50" fill="white"/>
</clipPath>
</defs>
</svg>
