<svg width="105" height="30" viewBox="0 0 105 30" fill="none" xmlns="http://www.w3.org/2000/svg">
<g clip-path="url(#clip0_49_1456)">
<path d="M9.96389 15.4345C11.2984 15.4823 12.6274 15.2404 13.8595 14.7256H13.915L13.4835 13.0552L13.3972 13.0983C12.4377 13.5183 11.3995 13.7285 10.3522 13.7147C6.88808 13.7147 4.80466 11.5142 4.80466 7.83431C4.80466 4.15442 6.96204 1.79979 10.4262 1.79979C11.4317 1.7865 12.4276 1.99705 13.3417 2.41619L13.428 2.45933L13.9273 0.745749H13.8718C12.7721 0.248217 11.5703 0.0179888 10.3645 0.0738798C5.75388 0.0738798 2.65344 3.23599 2.65344 7.93293C2.66577 12.4634 5.532 15.4345 9.96389 15.4345Z" fill="#333333"/>
<path d="M18.1557 8.26596H25.0655V15.2189H27.1304V0.240479H25.0655V6.44142H18.1557V0.240479H16.1093V15.2189H18.1557V8.26596Z" fill="#333333"/>
<path d="M32.7458 10.5589H37.8126L39.3721 15.2188H41.5542L36.5182 0.27124H34.1266L29.1091 15.2497H31.2603L32.7458 10.5589ZM35.2669 2.24987C35.4642 3.03886 35.6738 3.8525 35.9758 4.71546L37.3688 8.8823H33.1897L34.5827 4.69697C34.8108 3.96962 35.0265 3.20529 35.2669 2.24987Z" fill="#333333"/>
<path d="M45.4375 8.8082C45.4375 6.43507 45.4005 4.703 45.3019 2.91545C46.09 4.54659 46.9708 6.13126 47.94 7.6617L52.6 15.2187H54.6279V0.271113H52.7109V6.55219C52.7109 8.61712 52.7417 10.4108 52.902 12.3463C52.1577 10.7874 51.3242 9.27264 50.4056 7.80964L45.721 0.271113V0.234131H43.5389V15.2126H45.4375V8.8082Z" fill="#333333"/>
<path d="M60.5576 15.2189H62.6225V2.02803H67.0914V0.240479H56.1196V2.02803H60.5576V15.2189Z" fill="#333333"/>
<path d="M70.6049 0.240479H68.5646V15.2127H70.6049V0.240479Z" fill="#333333"/>
<path d="M82.0329 13.456H75.7888V0.240479H73.7424V15.2189H82.0329V13.456Z" fill="#333333"/>
<path d="M92.2651 13.456H86.021V0.240479H83.9745V15.2189H92.2651V13.456Z" fill="#333333"/>
<path d="M95.6368 15.2188H97.7017V8.85147L102.633 0.221924H100.309L98.1825 4.35794L97.9483 4.82024C97.4921 5.72018 97.0976 6.50916 96.7524 7.28582C96.2901 6.23179 95.8525 5.33801 95.3532 4.33945L93.2945 0.271237H90.9706L95.6368 8.90078V15.2188Z" fill="#333333"/>
<path d="M8.4537 26.5729C8.70904 26.4523 8.92336 26.2594 9.07009 26.0181C9.22866 25.7811 9.31241 25.5019 9.3105 25.2168C9.31332 24.9588 9.24507 24.705 9.11325 24.4833C8.99895 24.2747 8.83739 24.0958 8.64151 23.9609C8.44562 23.8261 8.22085 23.739 7.98523 23.7066C7.61759 23.657 7.24661 23.6364 6.87572 23.645H4.3855V29.8891H6.51203C7.31951 29.8891 7.83115 29.8891 8.04072 29.8459C8.34268 29.8202 8.63321 29.7184 8.88518 29.55C9.11446 29.3929 9.3009 29.181 9.42761 28.9337C9.55962 28.676 9.62926 28.391 9.631 28.1015C9.6365 27.7634 9.52793 27.4334 9.3228 27.1646C9.10559 26.8776 8.80031 26.6698 8.4537 26.5729ZM5.6614 24.6805H6.38879C7.00518 24.6805 7.3442 24.6805 7.46748 24.6805C7.64691 24.6913 7.81596 24.7682 7.94208 24.8963C8.05199 25.0294 8.10905 25.1984 8.10235 25.3709C8.10584 25.4603 8.09127 25.5495 8.0595 25.6332C8.02772 25.7169 7.97941 25.7933 7.91744 25.8578C7.77722 25.988 7.59668 26.0663 7.40582 26.0797C7.09988 26.0955 6.79333 26.0955 6.48739 26.0797H5.6614V24.6805ZM8.12699 28.5515C8.00642 28.6852 7.84286 28.7724 7.66469 28.798C7.37834 28.8315 7.08993 28.8439 6.80176 28.835H5.63059V27.1646H6.64766C7.02407 27.1444 7.40149 27.1755 7.76951 27.2571C7.92834 27.3062 8.06685 27.4057 8.16401 27.5406C8.26107 27.6818 8.31071 27.8501 8.30577 28.0214C8.3193 28.2118 8.26224 28.4005 8.1455 28.5515H8.12699Z" fill="#333333"/>
<path d="M15.4621 27.14H18.6057V26.0859H15.4621V24.6991H18.8399V23.645H14.1985V29.8891H18.9571V28.8351H15.4621V27.14Z" fill="#333333"/>
<path d="M23.0808 24.6991H24.9362V29.8891H26.1998V24.6991H28.0551V23.645H23.0808V24.6991Z" fill="#333333"/>
<path d="M31.9199 24.6991H33.7752V29.8891H35.045V24.6991H36.8942V23.645H31.9199V24.6991Z" fill="#333333"/>
<path d="M42.4726 27.14H45.6162V26.0859H42.4726V24.6991H45.8504V23.645H41.209V29.8891H45.9737V28.8351H42.4726V27.14Z" fill="#333333"/>
<path d="M54.6834 27.6576C54.4833 27.4517 54.255 27.2753 54.0054 27.1337C54.4718 27.092 54.9084 26.8868 55.2381 26.5542C55.5204 26.2359 55.6684 25.8206 55.6511 25.3954C55.6552 25.0477 55.5612 24.7059 55.3799 24.4092C55.2151 24.1266 54.9584 23.909 54.6526 23.7928C54.1776 23.6595 53.6844 23.6033 53.1917 23.6264H50.5289V29.8705H51.7925V27.2631H52.0514C52.259 27.257 52.4664 27.2798 52.6677 27.3309C52.815 27.3864 52.9463 27.4775 53.0499 27.596C53.2908 27.8879 53.5131 28.1947 53.7156 28.5144L54.6279 29.8705H56.1442L55.3799 28.6377C55.1759 28.2919 54.9429 27.964 54.6834 27.6576ZM52.7356 26.283H51.7986V24.6989H52.791C53.3026 24.6989 53.6108 24.6989 53.7095 24.6989C53.893 24.7244 54.0625 24.8113 54.1903 24.9455C54.3059 25.0902 54.365 25.272 54.3567 25.4571C54.3627 25.6228 54.3175 25.7864 54.2272 25.9255C54.1422 26.0498 54.0188 26.1429 53.8759 26.1906C53.5025 26.2639 53.122 26.2949 52.7417 26.283H52.7356Z" fill="#333333"/>
<path d="M76.0416 26.4434C75.6061 26.2367 75.1463 26.0855 74.6731 25.9934C74.2651 25.9232 73.8728 25.7813 73.5143 25.5742C73.4566 25.5286 73.41 25.4706 73.378 25.4044C73.346 25.3382 73.3294 25.2656 73.3294 25.1921C73.3267 25.1159 73.3434 25.0404 73.3779 24.9725C73.4124 24.9045 73.4636 24.8465 73.5266 24.8038C73.7843 24.6421 74.0859 24.5646 74.3896 24.5819C74.6726 24.5602 74.9547 24.634 75.1909 24.7914C75.3877 24.9707 75.5107 25.2168 75.5361 25.4818L76.7689 25.4263C76.7684 25.1668 76.7132 24.9102 76.607 24.6734C76.5008 24.4366 76.346 24.2248 76.1525 24.0518C75.6424 23.6711 75.012 23.4873 74.3773 23.534C73.9555 23.5228 73.5359 23.5983 73.1445 23.7559C72.8279 23.8786 72.5552 24.0933 72.3616 24.3723C72.1402 24.7062 72.0493 25.1099 72.1061 25.5066C72.1629 25.9032 72.3636 26.2651 72.6698 26.5235C73.09 26.8371 73.5776 27.0481 74.0937 27.1399C74.6238 27.2693 74.9567 27.3618 75.1108 27.4173C75.2825 27.4653 75.438 27.5591 75.5607 27.6885C75.6489 27.7935 75.695 27.9275 75.6902 28.0645C75.6907 28.1842 75.663 28.3023 75.6095 28.4094C75.556 28.5165 75.4781 28.6094 75.382 28.6809C75.1137 28.8676 74.7896 28.9568 74.4636 28.9336C74.1323 28.9527 73.8055 28.8496 73.5451 28.6439C73.295 28.4029 73.136 28.0827 73.0952 27.7378L71.8624 27.8549C71.8982 28.4653 72.1701 29.0379 72.6205 29.4514C73.1478 29.8568 73.8067 30.0522 74.4697 30C74.9344 30.0148 75.3974 29.9373 75.832 29.7719C76.1807 29.636 76.4766 29.3919 76.6764 29.0754C76.8611 28.7768 76.963 28.4345 76.9716 28.0835C76.9803 27.7325 76.8954 27.3856 76.7257 27.0783C76.5606 26.8076 76.3238 26.5879 76.0416 26.4434Z" fill="#333333"/>
<path d="M87.0811 23.645H85.3799L82.828 26.4188V23.645H81.5644V29.8891H82.828V28.0029L83.8512 26.9551L85.571 29.8891H87.2106L84.7203 26.0736L87.0811 23.645Z" fill="#333333"/>
<path d="M92.5856 23.645H91.322V29.8953H92.5856V23.645Z" fill="#333333"/>
<path d="M101.092 27.818L98.5338 23.645H97.301V29.8891H98.4783V25.8147L100.999 29.8891H102.269V23.645H101.092V27.818Z" fill="#333333"/>
<path d="M104.889 19.5583H2V19.996H104.889V19.5583Z" fill="#333333"/>
</g>
<defs>
<clipPath id="clip0_49_1456">
<rect width="105" height="30" fill="white"/>
</clipPath>
</defs>
</svg>
