<svg width="414" height="367" viewBox="0 0 414 367" fill="none" xmlns="http://www.w3.org/2000/svg">
<rect width="414" height="366.562" fill="#6B8EAE"/>
<path d="M16.9974 284.377C16.9974 285.137 16.3782 285.753 15.6144 285.753C14.8506 285.753 14.2314 285.137 14.2314 284.377C14.2314 283.616 14.8506 283 15.6144 283C16.3782 283 16.9974 283.616 16.9974 284.377Z" fill="url(#paint0_linear_52_2145)"/>
<path d="M21.1463 284.377C21.1463 285.137 20.5271 285.753 19.7633 285.753C18.9995 285.753 18.3804 285.137 18.3804 284.377C18.3804 283.616 18.9995 283 19.7633 283C20.5271 283 21.1463 283.616 21.1463 284.377Z" fill="url(#paint1_linear_52_2145)"/>
<path d="M25.2952 284.377C25.2952 285.137 24.6761 285.753 23.9123 285.753C23.1485 285.753 22.5293 285.137 22.5293 284.377C22.5293 283.616 23.1485 283 23.9123 283C24.6761 283 25.2952 283.616 25.2952 284.377Z" fill="url(#paint2_linear_52_2145)"/>
<path d="M29.4442 284.377C29.4442 285.137 28.825 285.753 28.0612 285.753C27.2974 285.753 26.6782 285.137 26.6782 284.377C26.6782 283.616 27.2974 283 28.0612 283C28.825 283 29.4442 283.616 29.4442 284.377Z" fill="url(#paint3_linear_52_2145)"/>
<path d="M33.5931 284.377C33.5931 285.137 32.9739 285.753 32.2101 285.753C31.4463 285.753 30.8271 285.137 30.8271 284.377C30.8271 283.616 31.4463 283 32.2101 283C32.9739 283 33.5931 283.616 33.5931 284.377Z" fill="url(#paint4_linear_52_2145)"/>
<path d="M37.742 284.377C37.742 285.137 37.1228 285.753 36.359 285.753C35.5952 285.753 34.9761 285.137 34.9761 284.377C34.9761 283.616 35.5952 283 36.359 283C37.1228 283 37.742 283.616 37.742 284.377Z" fill="url(#paint5_linear_52_2145)"/>
<path d="M41.8909 284.377C41.8909 285.137 41.2718 285.753 40.508 285.753C39.7442 285.753 39.125 285.137 39.125 284.377C39.125 283.616 39.7442 283 40.508 283C41.2718 283 41.8909 283.616 41.8909 284.377Z" fill="url(#paint6_linear_52_2145)"/>
<path d="M46.0399 284.377C46.0399 285.137 45.4207 285.753 44.6569 285.753C43.8931 285.753 43.2739 285.137 43.2739 284.377C43.2739 283.616 43.8931 283 44.6569 283C45.4207 283 46.0399 283.616 46.0399 284.377Z" fill="url(#paint7_linear_52_2145)"/>
<path d="M50.1888 284.377C50.1888 285.137 49.5696 285.753 48.8058 285.753C48.042 285.753 47.4228 285.137 47.4228 284.377C47.4228 283.616 48.042 283 48.8058 283C49.5696 283 50.1888 283.616 50.1888 284.377Z" fill="url(#paint8_linear_52_2145)"/>
<path d="M54.3377 284.377C54.3377 285.137 53.7185 285.753 52.9547 285.753C52.1909 285.753 51.5718 285.137 51.5718 284.377C51.5718 283.616 52.1909 283 52.9547 283C53.7185 283 54.3377 283.616 54.3377 284.377Z" fill="url(#paint9_linear_52_2145)"/>
<path d="M58.4866 284.377C58.4866 285.137 57.8674 285.753 57.1036 285.753C56.3399 285.753 55.7207 285.137 55.7207 284.377C55.7207 283.616 56.3399 283 57.1036 283C57.8674 283 58.4866 283.616 58.4866 284.377Z" fill="url(#paint10_linear_52_2145)"/>
<path d="M62.6355 284.377C62.6355 285.137 62.0164 285.753 61.2526 285.753C60.4888 285.753 59.8696 285.137 59.8696 284.377C59.8696 283.616 60.4888 283 61.2526 283C62.0164 283 62.6355 283.616 62.6355 284.377Z" fill="url(#paint11_linear_52_2145)"/>
<path d="M66.7845 284.377C66.7845 285.137 66.1653 285.753 65.4015 285.753C64.6377 285.753 64.0185 285.137 64.0185 284.377C64.0185 283.616 64.6377 283 65.4015 283C66.1653 283 66.7845 283.616 66.7845 284.377Z" fill="url(#paint12_linear_52_2145)"/>
<path d="M70.9334 284.377C70.9334 285.137 70.3142 285.753 69.5504 285.753C68.7866 285.753 68.1674 285.137 68.1674 284.377C68.1674 283.616 68.7866 283 69.5504 283C70.3142 283 70.9334 283.616 70.9334 284.377Z" fill="url(#paint13_linear_52_2145)"/>
<path d="M75.0823 284.377C75.0823 285.137 74.4631 285.753 73.6993 285.753C72.9355 285.753 72.3164 285.137 72.3164 284.377C72.3164 283.616 72.9355 283 73.6993 283C74.4631 283 75.0823 283.616 75.0823 284.377Z" fill="url(#paint14_linear_52_2145)"/>
<path d="M79.2312 284.377C79.2312 285.137 78.6121 285.753 77.8483 285.753C77.0845 285.753 76.4653 285.137 76.4653 284.377C76.4653 283.616 77.0845 283 77.8483 283C78.6121 283 79.2312 283.616 79.2312 284.377Z" fill="url(#paint15_linear_52_2145)"/>
<path d="M83.3802 284.377C83.3802 285.137 82.761 285.753 81.9972 285.753C81.2334 285.753 80.6142 285.137 80.6142 284.377C80.6142 283.616 81.2334 283 81.9972 283C82.761 283 83.3802 283.616 83.3802 284.377Z" fill="url(#paint16_linear_52_2145)"/>
<path d="M87.5291 284.377C87.5291 285.137 86.9099 285.753 86.1461 285.753C85.3823 285.753 84.7631 285.137 84.7631 284.377C84.7631 283.616 85.3823 283 86.1461 283C86.9099 283 87.5291 283.616 87.5291 284.377Z" fill="url(#paint17_linear_52_2145)"/>
<path d="M91.678 284.377C91.678 285.137 91.0588 285.753 90.295 285.753C89.5312 285.753 88.9121 285.137 88.9121 284.377C88.9121 283.616 89.5312 283 90.295 283C91.0588 283 91.678 283.616 91.678 284.377Z" fill="url(#paint18_linear_52_2145)"/>
<path d="M19.7633 288.507C19.7633 289.267 19.1442 289.883 18.3804 289.883C17.6166 289.883 16.9974 289.267 16.9974 288.507C16.9974 287.746 17.6166 287.13 18.3804 287.13C19.1442 287.13 19.7633 287.746 19.7633 288.507Z" fill="url(#paint19_linear_52_2145)"/>
<path d="M23.9123 288.507C23.9123 289.267 23.2931 289.883 22.5293 289.883C21.7655 289.883 21.1463 289.267 21.1463 288.507C21.1463 287.746 21.7655 287.13 22.5293 287.13C23.2931 287.13 23.9123 287.746 23.9123 288.507Z" fill="url(#paint20_linear_52_2145)"/>
<path d="M28.0612 288.507C28.0612 289.267 27.442 289.883 26.6782 289.883C25.9144 289.883 25.2952 289.267 25.2952 288.507C25.2952 287.746 25.9144 287.13 26.6782 287.13C27.442 287.13 28.0612 287.746 28.0612 288.507Z" fill="url(#paint21_linear_52_2145)"/>
<path d="M32.2101 288.507C32.2101 289.267 31.5909 289.883 30.8271 289.883C30.0633 289.883 29.4442 289.267 29.4442 288.507C29.4442 287.746 30.0633 287.13 30.8271 287.13C31.5909 287.13 32.2101 287.746 32.2101 288.507Z" fill="url(#paint22_linear_52_2145)"/>
<path d="M36.359 288.507C36.359 289.267 35.7399 289.883 34.9761 289.883C34.2123 289.883 33.5931 289.267 33.5931 288.507C33.5931 287.746 34.2123 287.13 34.9761 287.13C35.7399 287.13 36.359 287.746 36.359 288.507Z" fill="url(#paint23_linear_52_2145)"/>
<path d="M40.508 288.507C40.508 289.267 39.8888 289.883 39.125 289.883C38.3612 289.883 37.742 289.267 37.742 288.507C37.742 287.746 38.3612 287.13 39.125 287.13C39.8888 287.13 40.508 287.746 40.508 288.507Z" fill="url(#paint24_linear_52_2145)"/>
<path d="M44.6569 288.507C44.6569 289.267 44.0377 289.883 43.2739 289.883C42.5101 289.883 41.8909 289.267 41.8909 288.507C41.8909 287.746 42.5101 287.13 43.2739 287.13C44.0377 287.13 44.6569 287.746 44.6569 288.507Z" fill="url(#paint25_linear_52_2145)"/>
<path d="M48.8058 288.507C48.8058 289.267 48.1866 289.883 47.4228 289.883C46.659 289.883 46.0399 289.267 46.0399 288.507C46.0399 287.746 46.659 287.13 47.4228 287.13C48.1866 287.13 48.8058 287.746 48.8058 288.507Z" fill="url(#paint26_linear_52_2145)"/>
<path d="M52.9547 288.507C52.9547 289.267 52.3355 289.883 51.5718 289.883C50.808 289.883 50.1888 289.267 50.1888 288.507C50.1888 287.746 50.808 287.13 51.5718 287.13C52.3355 287.13 52.9547 287.746 52.9547 288.507Z" fill="url(#paint27_linear_52_2145)"/>
<path d="M57.1036 288.507C57.1036 289.267 56.4845 289.883 55.7207 289.883C54.9569 289.883 54.3377 289.267 54.3377 288.507C54.3377 287.746 54.9569 287.13 55.7207 287.13C56.4845 287.13 57.1036 287.746 57.1036 288.507Z" fill="url(#paint28_linear_52_2145)"/>
<path d="M61.2526 288.507C61.2526 289.267 60.6334 289.883 59.8696 289.883C59.1058 289.883 58.4866 289.267 58.4866 288.507C58.4866 287.746 59.1058 287.13 59.8696 287.13C60.6334 287.13 61.2526 287.746 61.2526 288.507Z" fill="url(#paint29_linear_52_2145)"/>
<path d="M65.4015 288.507C65.4015 289.267 64.7823 289.883 64.0185 289.883C63.2547 289.883 62.6355 289.267 62.6355 288.507C62.6355 287.746 63.2547 287.13 64.0185 287.13C64.7823 287.13 65.4015 287.746 65.4015 288.507Z" fill="url(#paint30_linear_52_2145)"/>
<path d="M69.5504 288.507C69.5504 289.267 68.9312 289.883 68.1674 289.883C67.4036 289.883 66.7845 289.267 66.7845 288.507C66.7845 287.746 67.4036 287.13 68.1674 287.13C68.9312 287.13 69.5504 287.746 69.5504 288.507Z" fill="url(#paint31_linear_52_2145)"/>
<path d="M73.6993 288.507C73.6993 289.267 73.0802 289.883 72.3164 289.883C71.5526 289.883 70.9334 289.267 70.9334 288.507C70.9334 287.746 71.5526 287.13 72.3164 287.13C73.0802 287.13 73.6993 287.746 73.6993 288.507Z" fill="url(#paint32_linear_52_2145)"/>
<path d="M77.8483 288.507C77.8483 289.267 77.2291 289.883 76.4653 289.883C75.7015 289.883 75.0823 289.267 75.0823 288.507C75.0823 287.746 75.7015 287.13 76.4653 287.13C77.2291 287.13 77.8483 287.746 77.8483 288.507Z" fill="url(#paint33_linear_52_2145)"/>
<path d="M81.9972 288.507C81.9972 289.267 81.378 289.883 80.6142 289.883C79.8504 289.883 79.2312 289.267 79.2312 288.507C79.2312 287.746 79.8504 287.13 80.6142 287.13C81.378 287.13 81.9972 287.746 81.9972 288.507Z" fill="url(#paint34_linear_52_2145)"/>
<path d="M86.1461 288.507C86.1461 289.267 85.5269 289.883 84.7631 289.883C83.9993 289.883 83.3802 289.267 83.3802 288.507C83.3802 287.746 83.9993 287.13 84.7631 287.13C85.5269 287.13 86.1461 287.746 86.1461 288.507Z" fill="url(#paint35_linear_52_2145)"/>
<path d="M90.295 288.507C90.295 289.267 89.6758 289.883 88.9121 289.883C88.1483 289.883 87.5291 289.267 87.5291 288.507C87.5291 287.746 88.1483 287.13 88.9121 287.13C89.6758 287.13 90.295 287.746 90.295 288.507Z" fill="url(#paint36_linear_52_2145)"/>
<path d="M94.444 288.507C94.444 289.267 93.8248 289.883 93.061 289.883C92.2972 289.883 91.678 289.267 91.678 288.507C91.678 287.746 92.2972 287.13 93.061 287.13C93.8248 287.13 94.444 287.746 94.444 288.507Z" fill="url(#paint37_linear_52_2145)"/>
<path d="M16.9974 300.897C16.9974 301.657 16.3782 302.274 15.6144 302.274C14.8506 302.274 14.2314 301.657 14.2314 300.897C14.2314 300.137 14.8506 299.52 15.6144 299.52C16.3782 299.52 16.9974 300.137 16.9974 300.897Z" fill="url(#paint38_linear_52_2145)"/>
<path d="M21.1463 300.897C21.1463 301.657 20.5271 302.274 19.7633 302.274C18.9995 302.274 18.3804 301.657 18.3804 300.897C18.3804 300.137 18.9995 299.52 19.7633 299.52C20.5271 299.52 21.1463 300.137 21.1463 300.897Z" fill="url(#paint39_linear_52_2145)"/>
<path d="M25.2952 300.897C25.2952 301.657 24.6761 302.274 23.9123 302.274C23.1485 302.274 22.5293 301.657 22.5293 300.897C22.5293 300.137 23.1485 299.52 23.9123 299.52C24.6761 299.52 25.2952 300.137 25.2952 300.897Z" fill="url(#paint40_linear_52_2145)"/>
<path d="M29.4442 300.897C29.4442 301.657 28.825 302.274 28.0612 302.274C27.2974 302.274 26.6782 301.657 26.6782 300.897C26.6782 300.137 27.2974 299.52 28.0612 299.52C28.825 299.52 29.4442 300.137 29.4442 300.897Z" fill="url(#paint41_linear_52_2145)"/>
<path d="M33.5931 300.897C33.5931 301.657 32.9739 302.274 32.2101 302.274C31.4463 302.274 30.8271 301.657 30.8271 300.897C30.8271 300.137 31.4463 299.52 32.2101 299.52C32.9739 299.52 33.5931 300.137 33.5931 300.897Z" fill="url(#paint42_linear_52_2145)"/>
<path d="M37.742 300.897C37.742 301.657 37.1228 302.274 36.359 302.274C35.5952 302.274 34.9761 301.657 34.9761 300.897C34.9761 300.137 35.5952 299.52 36.359 299.52C37.1228 299.52 37.742 300.137 37.742 300.897Z" fill="url(#paint43_linear_52_2145)"/>
<path d="M41.8909 300.897C41.8909 301.657 41.2718 302.274 40.508 302.274C39.7442 302.274 39.125 301.657 39.125 300.897C39.125 300.137 39.7442 299.52 40.508 299.52C41.2718 299.52 41.8909 300.137 41.8909 300.897Z" fill="url(#paint44_linear_52_2145)"/>
<path d="M46.0399 300.897C46.0399 301.657 45.4207 302.274 44.6569 302.274C43.8931 302.274 43.2739 301.657 43.2739 300.897C43.2739 300.137 43.8931 299.52 44.6569 299.52C45.4207 299.52 46.0399 300.137 46.0399 300.897Z" fill="url(#paint45_linear_52_2145)"/>
<path d="M50.1888 300.897C50.1888 301.657 49.5696 302.274 48.8058 302.274C48.042 302.274 47.4228 301.657 47.4228 300.897C47.4228 300.137 48.042 299.52 48.8058 299.52C49.5696 299.52 50.1888 300.137 50.1888 300.897Z" fill="url(#paint46_linear_52_2145)"/>
<path d="M54.3377 300.897C54.3377 301.657 53.7185 302.274 52.9547 302.274C52.1909 302.274 51.5718 301.657 51.5718 300.897C51.5718 300.137 52.1909 299.52 52.9547 299.52C53.7185 299.52 54.3377 300.137 54.3377 300.897Z" fill="url(#paint47_linear_52_2145)"/>
<path d="M58.4866 300.897C58.4866 301.657 57.8674 302.274 57.1036 302.274C56.3399 302.274 55.7207 301.657 55.7207 300.897C55.7207 300.137 56.3399 299.52 57.1036 299.52C57.8674 299.52 58.4866 300.137 58.4866 300.897Z" fill="url(#paint48_linear_52_2145)"/>
<path d="M62.6355 300.897C62.6355 301.657 62.0164 302.274 61.2526 302.274C60.4888 302.274 59.8696 301.657 59.8696 300.897C59.8696 300.137 60.4888 299.52 61.2526 299.52C62.0164 299.52 62.6355 300.137 62.6355 300.897Z" fill="url(#paint49_linear_52_2145)"/>
<path d="M66.7845 300.897C66.7845 301.657 66.1653 302.274 65.4015 302.274C64.6377 302.274 64.0185 301.657 64.0185 300.897C64.0185 300.137 64.6377 299.52 65.4015 299.52C66.1653 299.52 66.7845 300.137 66.7845 300.897Z" fill="url(#paint50_linear_52_2145)"/>
<path d="M70.9334 300.897C70.9334 301.657 70.3142 302.274 69.5504 302.274C68.7866 302.274 68.1674 301.657 68.1674 300.897C68.1674 300.137 68.7866 299.52 69.5504 299.52C70.3142 299.52 70.9334 300.137 70.9334 300.897Z" fill="url(#paint51_linear_52_2145)"/>
<path d="M75.0823 300.897C75.0823 301.657 74.4631 302.274 73.6993 302.274C72.9355 302.274 72.3164 301.657 72.3164 300.897C72.3164 300.137 72.9355 299.52 73.6993 299.52C74.4631 299.52 75.0823 300.137 75.0823 300.897Z" fill="url(#paint52_linear_52_2145)"/>
<path d="M79.2312 300.897C79.2312 301.657 78.6121 302.274 77.8483 302.274C77.0845 302.274 76.4653 301.657 76.4653 300.897C76.4653 300.137 77.0845 299.52 77.8483 299.52C78.6121 299.52 79.2312 300.137 79.2312 300.897Z" fill="url(#paint53_linear_52_2145)"/>
<path d="M83.3802 300.897C83.3802 301.657 82.761 302.274 81.9972 302.274C81.2334 302.274 80.6142 301.657 80.6142 300.897C80.6142 300.137 81.2334 299.52 81.9972 299.52C82.761 299.52 83.3802 300.137 83.3802 300.897Z" fill="url(#paint54_linear_52_2145)"/>
<path d="M87.5291 300.897C87.5291 301.657 86.9099 302.274 86.1461 302.274C85.3823 302.274 84.7631 301.657 84.7631 300.897C84.7631 300.137 85.3823 299.52 86.1461 299.52C86.9099 299.52 87.5291 300.137 87.5291 300.897Z" fill="url(#paint55_linear_52_2145)"/>
<path d="M91.678 300.897C91.678 301.657 91.0588 302.274 90.295 302.274C89.5312 302.274 88.9121 301.657 88.9121 300.897C88.9121 300.137 89.5312 299.52 90.295 299.52C91.0588 299.52 91.678 300.137 91.678 300.897Z" fill="url(#paint56_linear_52_2145)"/>
<path d="M19.7633 305.027C19.7633 305.787 19.1442 306.404 18.3804 306.404C17.6166 306.404 16.9974 305.787 16.9974 305.027C16.9974 304.267 17.6166 303.65 18.3804 303.65C19.1442 303.65 19.7633 304.267 19.7633 305.027Z" fill="url(#paint57_linear_52_2145)"/>
<path d="M23.9123 305.027C23.9123 305.787 23.2931 306.404 22.5293 306.404C21.7655 306.404 21.1463 305.787 21.1463 305.027C21.1463 304.267 21.7655 303.65 22.5293 303.65C23.2931 303.65 23.9123 304.267 23.9123 305.027Z" fill="url(#paint58_linear_52_2145)"/>
<path d="M28.0612 305.027C28.0612 305.787 27.442 306.404 26.6782 306.404C25.9144 306.404 25.2952 305.787 25.2952 305.027C25.2952 304.267 25.9144 303.65 26.6782 303.65C27.442 303.65 28.0612 304.267 28.0612 305.027Z" fill="url(#paint59_linear_52_2145)"/>
<path d="M32.2101 305.027C32.2101 305.787 31.5909 306.404 30.8271 306.404C30.0633 306.404 29.4442 305.787 29.4442 305.027C29.4442 304.267 30.0633 303.65 30.8271 303.65C31.5909 303.65 32.2101 304.267 32.2101 305.027Z" fill="url(#paint60_linear_52_2145)"/>
<path d="M36.359 305.027C36.359 305.787 35.7399 306.404 34.9761 306.404C34.2123 306.404 33.5931 305.787 33.5931 305.027C33.5931 304.267 34.2123 303.65 34.9761 303.65C35.7399 303.65 36.359 304.267 36.359 305.027Z" fill="url(#paint61_linear_52_2145)"/>
<path d="M40.508 305.027C40.508 305.787 39.8888 306.404 39.125 306.404C38.3612 306.404 37.742 305.787 37.742 305.027C37.742 304.267 38.3612 303.65 39.125 303.65C39.8888 303.65 40.508 304.267 40.508 305.027Z" fill="url(#paint62_linear_52_2145)"/>
<path d="M44.6569 305.027C44.6569 305.787 44.0377 306.404 43.2739 306.404C42.5101 306.404 41.8909 305.787 41.8909 305.027C41.8909 304.267 42.5101 303.65 43.2739 303.65C44.0377 303.65 44.6569 304.267 44.6569 305.027Z" fill="url(#paint63_linear_52_2145)"/>
<path d="M48.8058 305.027C48.8058 305.787 48.1866 306.404 47.4228 306.404C46.659 306.404 46.0399 305.787 46.0399 305.027C46.0399 304.267 46.659 303.65 47.4228 303.65C48.1866 303.65 48.8058 304.267 48.8058 305.027Z" fill="url(#paint64_linear_52_2145)"/>
<path d="M52.9547 305.027C52.9547 305.787 52.3355 306.404 51.5718 306.404C50.808 306.404 50.1888 305.787 50.1888 305.027C50.1888 304.267 50.808 303.65 51.5718 303.65C52.3355 303.65 52.9547 304.267 52.9547 305.027Z" fill="url(#paint65_linear_52_2145)"/>
<path d="M57.1036 305.027C57.1036 305.787 56.4845 306.404 55.7207 306.404C54.9569 306.404 54.3377 305.787 54.3377 305.027C54.3377 304.267 54.9569 303.65 55.7207 303.65C56.4845 303.65 57.1036 304.267 57.1036 305.027Z" fill="url(#paint66_linear_52_2145)"/>
<path d="M61.2526 305.027C61.2526 305.787 60.6334 306.404 59.8696 306.404C59.1058 306.404 58.4866 305.787 58.4866 305.027C58.4866 304.267 59.1058 303.65 59.8696 303.65C60.6334 303.65 61.2526 304.267 61.2526 305.027Z" fill="url(#paint67_linear_52_2145)"/>
<path d="M65.4015 305.027C65.4015 305.787 64.7823 306.404 64.0185 306.404C63.2547 306.404 62.6355 305.787 62.6355 305.027C62.6355 304.267 63.2547 303.65 64.0185 303.65C64.7823 303.65 65.4015 304.267 65.4015 305.027Z" fill="url(#paint68_linear_52_2145)"/>
<path d="M69.5504 305.027C69.5504 305.787 68.9312 306.404 68.1674 306.404C67.4036 306.404 66.7845 305.787 66.7845 305.027C66.7845 304.267 67.4036 303.65 68.1674 303.65C68.9312 303.65 69.5504 304.267 69.5504 305.027Z" fill="url(#paint69_linear_52_2145)"/>
<path d="M73.6993 305.027C73.6993 305.787 73.0802 306.404 72.3164 306.404C71.5526 306.404 70.9334 305.787 70.9334 305.027C70.9334 304.267 71.5526 303.65 72.3164 303.65C73.0802 303.65 73.6993 304.267 73.6993 305.027Z" fill="url(#paint70_linear_52_2145)"/>
<path d="M77.8483 305.027C77.8483 305.787 77.2291 306.404 76.4653 306.404C75.7015 306.404 75.0823 305.787 75.0823 305.027C75.0823 304.267 75.7015 303.65 76.4653 303.65C77.2291 303.65 77.8483 304.267 77.8483 305.027Z" fill="url(#paint71_linear_52_2145)"/>
<path d="M81.9972 305.027C81.9972 305.787 81.378 306.404 80.6142 306.404C79.8504 306.404 79.2312 305.787 79.2312 305.027C79.2312 304.267 79.8504 303.65 80.6142 303.65C81.378 303.65 81.9972 304.267 81.9972 305.027Z" fill="url(#paint72_linear_52_2145)"/>
<path d="M86.1461 305.027C86.1461 305.787 85.5269 306.404 84.7631 306.404C83.9993 306.404 83.3802 305.787 83.3802 305.027C83.3802 304.267 83.9993 303.65 84.7631 303.65C85.5269 303.65 86.1461 304.267 86.1461 305.027Z" fill="url(#paint73_linear_52_2145)"/>
<path d="M90.295 305.027C90.295 305.787 89.6758 306.404 88.9121 306.404C88.1483 306.404 87.5291 305.787 87.5291 305.027C87.5291 304.267 88.1483 303.65 88.9121 303.65C89.6758 303.65 90.295 304.267 90.295 305.027Z" fill="url(#paint74_linear_52_2145)"/>
<path d="M94.444 305.027C94.444 305.787 93.8248 306.404 93.061 306.404C92.2972 306.404 91.678 305.787 91.678 305.027C91.678 304.267 92.2972 303.65 93.061 303.65C93.8248 303.65 94.444 304.267 94.444 305.027Z" fill="url(#paint75_linear_52_2145)"/>
<path d="M16.9974 292.637C16.9974 293.397 16.3782 294.013 15.6144 294.013C14.8506 294.013 14.2314 293.397 14.2314 292.637C14.2314 291.876 14.8506 291.26 15.6144 291.26C16.3782 291.26 16.9974 291.876 16.9974 292.637Z" fill="url(#paint76_linear_52_2145)"/>
<path d="M21.1463 292.637C21.1463 293.397 20.5271 294.013 19.7633 294.013C18.9995 294.013 18.3804 293.397 18.3804 292.637C18.3804 291.876 18.9995 291.26 19.7633 291.26C20.5271 291.26 21.1463 291.876 21.1463 292.637Z" fill="url(#paint77_linear_52_2145)"/>
<path d="M25.2952 292.637C25.2952 293.397 24.6761 294.013 23.9123 294.013C23.1485 294.013 22.5293 293.397 22.5293 292.637C22.5293 291.876 23.1485 291.26 23.9123 291.26C24.6761 291.26 25.2952 291.876 25.2952 292.637Z" fill="url(#paint78_linear_52_2145)"/>
<path d="M29.4442 292.637C29.4442 293.397 28.825 294.013 28.0612 294.013C27.2974 294.013 26.6782 293.397 26.6782 292.637C26.6782 291.876 27.2974 291.26 28.0612 291.26C28.825 291.26 29.4442 291.876 29.4442 292.637Z" fill="url(#paint79_linear_52_2145)"/>
<path d="M33.5931 292.637C33.5931 293.397 32.9739 294.013 32.2101 294.013C31.4463 294.013 30.8271 293.397 30.8271 292.637C30.8271 291.876 31.4463 291.26 32.2101 291.26C32.9739 291.26 33.5931 291.876 33.5931 292.637Z" fill="url(#paint80_linear_52_2145)"/>
<path d="M37.742 292.637C37.742 293.397 37.1228 294.013 36.359 294.013C35.5952 294.013 34.9761 293.397 34.9761 292.637C34.9761 291.876 35.5952 291.26 36.359 291.26C37.1228 291.26 37.742 291.876 37.742 292.637Z" fill="url(#paint81_linear_52_2145)"/>
<path d="M41.8909 292.637C41.8909 293.397 41.2718 294.013 40.508 294.013C39.7442 294.013 39.125 293.397 39.125 292.637C39.125 291.876 39.7442 291.26 40.508 291.26C41.2718 291.26 41.8909 291.876 41.8909 292.637Z" fill="url(#paint82_linear_52_2145)"/>
<path d="M46.0399 292.637C46.0399 293.397 45.4207 294.013 44.6569 294.013C43.8931 294.013 43.2739 293.397 43.2739 292.637C43.2739 291.876 43.8931 291.26 44.6569 291.26C45.4207 291.26 46.0399 291.876 46.0399 292.637Z" fill="url(#paint83_linear_52_2145)"/>
<path d="M50.1888 292.637C50.1888 293.397 49.5696 294.013 48.8058 294.013C48.042 294.013 47.4228 293.397 47.4228 292.637C47.4228 291.876 48.042 291.26 48.8058 291.26C49.5696 291.26 50.1888 291.876 50.1888 292.637Z" fill="url(#paint84_linear_52_2145)"/>
<path d="M54.3377 292.637C54.3377 293.397 53.7185 294.013 52.9547 294.013C52.1909 294.013 51.5718 293.397 51.5718 292.637C51.5718 291.876 52.1909 291.26 52.9547 291.26C53.7185 291.26 54.3377 291.876 54.3377 292.637Z" fill="url(#paint85_linear_52_2145)"/>
<path d="M58.4866 292.637C58.4866 293.397 57.8674 294.013 57.1036 294.013C56.3399 294.013 55.7207 293.397 55.7207 292.637C55.7207 291.876 56.3399 291.26 57.1036 291.26C57.8674 291.26 58.4866 291.876 58.4866 292.637Z" fill="url(#paint86_linear_52_2145)"/>
<path d="M62.6355 292.637C62.6355 293.397 62.0164 294.013 61.2526 294.013C60.4888 294.013 59.8696 293.397 59.8696 292.637C59.8696 291.876 60.4888 291.26 61.2526 291.26C62.0164 291.26 62.6355 291.876 62.6355 292.637Z" fill="url(#paint87_linear_52_2145)"/>
<path d="M66.7845 292.637C66.7845 293.397 66.1653 294.013 65.4015 294.013C64.6377 294.013 64.0185 293.397 64.0185 292.637C64.0185 291.876 64.6377 291.26 65.4015 291.26C66.1653 291.26 66.7845 291.876 66.7845 292.637Z" fill="url(#paint88_linear_52_2145)"/>
<path d="M70.9334 292.637C70.9334 293.397 70.3142 294.013 69.5504 294.013C68.7866 294.013 68.1674 293.397 68.1674 292.637C68.1674 291.876 68.7866 291.26 69.5504 291.26C70.3142 291.26 70.9334 291.876 70.9334 292.637Z" fill="url(#paint89_linear_52_2145)"/>
<path d="M75.0823 292.637C75.0823 293.397 74.4631 294.013 73.6993 294.013C72.9355 294.013 72.3164 293.397 72.3164 292.637C72.3164 291.876 72.9355 291.26 73.6993 291.26C74.4631 291.26 75.0823 291.876 75.0823 292.637Z" fill="url(#paint90_linear_52_2145)"/>
<path d="M79.2312 292.637C79.2312 293.397 78.6121 294.013 77.8483 294.013C77.0845 294.013 76.4653 293.397 76.4653 292.637C76.4653 291.876 77.0845 291.26 77.8483 291.26C78.6121 291.26 79.2312 291.876 79.2312 292.637Z" fill="url(#paint91_linear_52_2145)"/>
<path d="M83.3802 292.637C83.3802 293.397 82.761 294.013 81.9972 294.013C81.2334 294.013 80.6142 293.397 80.6142 292.637C80.6142 291.876 81.2334 291.26 81.9972 291.26C82.761 291.26 83.3802 291.876 83.3802 292.637Z" fill="url(#paint92_linear_52_2145)"/>
<path d="M87.5291 292.637C87.5291 293.397 86.9099 294.013 86.1461 294.013C85.3823 294.013 84.7631 293.397 84.7631 292.637C84.7631 291.876 85.3823 291.26 86.1461 291.26C86.9099 291.26 87.5291 291.876 87.5291 292.637Z" fill="url(#paint93_linear_52_2145)"/>
<path d="M91.678 292.637C91.678 293.397 91.0588 294.013 90.295 294.013C89.5312 294.013 88.9121 293.397 88.9121 292.637C88.9121 291.876 89.5312 291.26 90.295 291.26C91.0588 291.26 91.678 291.876 91.678 292.637Z" fill="url(#paint94_linear_52_2145)"/>
<path d="M19.7633 296.767C19.7633 297.527 19.1442 298.144 18.3804 298.144C17.6166 298.144 16.9974 297.527 16.9974 296.767C16.9974 296.007 17.6166 295.39 18.3804 295.39C19.1442 295.39 19.7633 296.007 19.7633 296.767Z" fill="url(#paint95_linear_52_2145)"/>
<path d="M23.9123 296.767C23.9123 297.527 23.2931 298.144 22.5293 298.144C21.7655 298.144 21.1463 297.527 21.1463 296.767C21.1463 296.007 21.7655 295.39 22.5293 295.39C23.2931 295.39 23.9123 296.007 23.9123 296.767Z" fill="url(#paint96_linear_52_2145)"/>
<path d="M28.0612 296.767C28.0612 297.527 27.442 298.144 26.6782 298.144C25.9144 298.144 25.2952 297.527 25.2952 296.767C25.2952 296.007 25.9144 295.39 26.6782 295.39C27.442 295.39 28.0612 296.007 28.0612 296.767Z" fill="url(#paint97_linear_52_2145)"/>
<path d="M32.2101 296.767C32.2101 297.527 31.5909 298.144 30.8271 298.144C30.0633 298.144 29.4442 297.527 29.4442 296.767C29.4442 296.007 30.0633 295.39 30.8271 295.39C31.5909 295.39 32.2101 296.007 32.2101 296.767Z" fill="url(#paint98_linear_52_2145)"/>
<path d="M36.359 296.767C36.359 297.527 35.7399 298.144 34.9761 298.144C34.2123 298.144 33.5931 297.527 33.5931 296.767C33.5931 296.007 34.2123 295.39 34.9761 295.39C35.7399 295.39 36.359 296.007 36.359 296.767Z" fill="url(#paint99_linear_52_2145)"/>
<path d="M40.508 296.767C40.508 297.527 39.8888 298.144 39.125 298.144C38.3612 298.144 37.742 297.527 37.742 296.767C37.742 296.007 38.3612 295.39 39.125 295.39C39.8888 295.39 40.508 296.007 40.508 296.767Z" fill="url(#paint100_linear_52_2145)"/>
<path d="M44.6569 296.767C44.6569 297.527 44.0377 298.144 43.2739 298.144C42.5101 298.144 41.8909 297.527 41.8909 296.767C41.8909 296.007 42.5101 295.39 43.2739 295.39C44.0377 295.39 44.6569 296.007 44.6569 296.767Z" fill="url(#paint101_linear_52_2145)"/>
<path d="M48.8058 296.767C48.8058 297.527 48.1866 298.144 47.4228 298.144C46.659 298.144 46.0399 297.527 46.0399 296.767C46.0399 296.007 46.659 295.39 47.4228 295.39C48.1866 295.39 48.8058 296.007 48.8058 296.767Z" fill="url(#paint102_linear_52_2145)"/>
<path d="M52.9547 296.767C52.9547 297.527 52.3355 298.144 51.5718 298.144C50.808 298.144 50.1888 297.527 50.1888 296.767C50.1888 296.007 50.808 295.39 51.5718 295.39C52.3355 295.39 52.9547 296.007 52.9547 296.767Z" fill="url(#paint103_linear_52_2145)"/>
<path d="M57.1036 296.767C57.1036 297.527 56.4845 298.144 55.7207 298.144C54.9569 298.144 54.3377 297.527 54.3377 296.767C54.3377 296.007 54.9569 295.39 55.7207 295.39C56.4845 295.39 57.1036 296.007 57.1036 296.767Z" fill="url(#paint104_linear_52_2145)"/>
<path d="M61.2526 296.767C61.2526 297.527 60.6334 298.144 59.8696 298.144C59.1058 298.144 58.4866 297.527 58.4866 296.767C58.4866 296.007 59.1058 295.39 59.8696 295.39C60.6334 295.39 61.2526 296.007 61.2526 296.767Z" fill="url(#paint105_linear_52_2145)"/>
<path d="M65.4015 296.767C65.4015 297.527 64.7823 298.144 64.0185 298.144C63.2547 298.144 62.6355 297.527 62.6355 296.767C62.6355 296.007 63.2547 295.39 64.0185 295.39C64.7823 295.39 65.4015 296.007 65.4015 296.767Z" fill="url(#paint106_linear_52_2145)"/>
<path d="M69.5504 296.767C69.5504 297.527 68.9312 298.144 68.1674 298.144C67.4036 298.144 66.7845 297.527 66.7845 296.767C66.7845 296.007 67.4036 295.39 68.1674 295.39C68.9312 295.39 69.5504 296.007 69.5504 296.767Z" fill="url(#paint107_linear_52_2145)"/>
<path d="M73.6993 296.767C73.6993 297.527 73.0802 298.144 72.3164 298.144C71.5526 298.144 70.9334 297.527 70.9334 296.767C70.9334 296.007 71.5526 295.39 72.3164 295.39C73.0802 295.39 73.6993 296.007 73.6993 296.767Z" fill="url(#paint108_linear_52_2145)"/>
<path d="M77.8483 296.767C77.8483 297.527 77.2291 298.144 76.4653 298.144C75.7015 298.144 75.0823 297.527 75.0823 296.767C75.0823 296.007 75.7015 295.39 76.4653 295.39C77.2291 295.39 77.8483 296.007 77.8483 296.767Z" fill="url(#paint109_linear_52_2145)"/>
<path d="M81.9972 296.767C81.9972 297.527 81.378 298.144 80.6142 298.144C79.8504 298.144 79.2312 297.527 79.2312 296.767C79.2312 296.007 79.8504 295.39 80.6142 295.39C81.378 295.39 81.9972 296.007 81.9972 296.767Z" fill="url(#paint110_linear_52_2145)"/>
<path d="M86.1461 296.767C86.1461 297.527 85.5269 298.144 84.7631 298.144C83.9993 298.144 83.3802 297.527 83.3802 296.767C83.3802 296.007 83.9993 295.39 84.7631 295.39C85.5269 295.39 86.1461 296.007 86.1461 296.767Z" fill="url(#paint111_linear_52_2145)"/>
<path d="M90.295 296.767C90.295 297.527 89.6758 298.144 88.9121 298.144C88.1483 298.144 87.5291 297.527 87.5291 296.767C87.5291 296.007 88.1483 295.39 88.9121 295.39C89.6758 295.39 90.295 296.007 90.295 296.767Z" fill="url(#paint112_linear_52_2145)"/>
<path d="M94.444 296.767C94.444 297.527 93.8248 298.144 93.061 298.144C92.2972 298.144 91.678 297.527 91.678 296.767C91.678 296.007 92.2972 295.39 93.061 295.39C93.8248 295.39 94.444 296.007 94.444 296.767Z" fill="url(#paint113_linear_52_2145)"/>
<path d="M16.9974 309.157C16.9974 309.917 16.3782 310.534 15.6144 310.534C14.8506 310.534 14.2314 309.917 14.2314 309.157C14.2314 308.397 14.8506 307.78 15.6144 307.78C16.3782 307.78 16.9974 308.397 16.9974 309.157Z" fill="url(#paint114_linear_52_2145)"/>
<path d="M21.1463 309.157C21.1463 309.917 20.5271 310.534 19.7633 310.534C18.9995 310.534 18.3804 309.917 18.3804 309.157C18.3804 308.397 18.9995 307.78 19.7633 307.78C20.5271 307.78 21.1463 308.397 21.1463 309.157Z" fill="url(#paint115_linear_52_2145)"/>
<path d="M25.2952 309.157C25.2952 309.917 24.6761 310.534 23.9123 310.534C23.1485 310.534 22.5293 309.917 22.5293 309.157C22.5293 308.397 23.1485 307.78 23.9123 307.78C24.6761 307.78 25.2952 308.397 25.2952 309.157Z" fill="url(#paint116_linear_52_2145)"/>
<path d="M29.4442 309.157C29.4442 309.917 28.825 310.534 28.0612 310.534C27.2974 310.534 26.6782 309.917 26.6782 309.157C26.6782 308.397 27.2974 307.78 28.0612 307.78C28.825 307.78 29.4442 308.397 29.4442 309.157Z" fill="url(#paint117_linear_52_2145)"/>
<path d="M33.5931 309.157C33.5931 309.917 32.9739 310.534 32.2101 310.534C31.4463 310.534 30.8271 309.917 30.8271 309.157C30.8271 308.397 31.4463 307.78 32.2101 307.78C32.9739 307.78 33.5931 308.397 33.5931 309.157Z" fill="url(#paint118_linear_52_2145)"/>
<path d="M37.742 309.157C37.742 309.917 37.1228 310.534 36.359 310.534C35.5952 310.534 34.9761 309.917 34.9761 309.157C34.9761 308.397 35.5952 307.78 36.359 307.78C37.1228 307.78 37.742 308.397 37.742 309.157Z" fill="url(#paint119_linear_52_2145)"/>
<path d="M41.8909 309.157C41.8909 309.917 41.2718 310.534 40.508 310.534C39.7442 310.534 39.125 309.917 39.125 309.157C39.125 308.397 39.7442 307.78 40.508 307.78C41.2718 307.78 41.8909 308.397 41.8909 309.157Z" fill="url(#paint120_linear_52_2145)"/>
<path d="M46.0399 309.157C46.0399 309.917 45.4207 310.534 44.6569 310.534C43.8931 310.534 43.2739 309.917 43.2739 309.157C43.2739 308.397 43.8931 307.78 44.6569 307.78C45.4207 307.78 46.0399 308.397 46.0399 309.157Z" fill="url(#paint121_linear_52_2145)"/>
<path d="M50.1888 309.157C50.1888 309.917 49.5696 310.534 48.8058 310.534C48.042 310.534 47.4228 309.917 47.4228 309.157C47.4228 308.397 48.042 307.78 48.8058 307.78C49.5696 307.78 50.1888 308.397 50.1888 309.157Z" fill="url(#paint122_linear_52_2145)"/>
<path d="M54.3377 309.157C54.3377 309.917 53.7185 310.534 52.9547 310.534C52.1909 310.534 51.5718 309.917 51.5718 309.157C51.5718 308.397 52.1909 307.78 52.9547 307.78C53.7185 307.78 54.3377 308.397 54.3377 309.157Z" fill="url(#paint123_linear_52_2145)"/>
<path d="M58.4866 309.157C58.4866 309.917 57.8674 310.534 57.1036 310.534C56.3399 310.534 55.7207 309.917 55.7207 309.157C55.7207 308.397 56.3399 307.78 57.1036 307.78C57.8674 307.78 58.4866 308.397 58.4866 309.157Z" fill="url(#paint124_linear_52_2145)"/>
<path d="M62.6355 309.157C62.6355 309.917 62.0164 310.534 61.2526 310.534C60.4888 310.534 59.8696 309.917 59.8696 309.157C59.8696 308.397 60.4888 307.78 61.2526 307.78C62.0164 307.78 62.6355 308.397 62.6355 309.157Z" fill="url(#paint125_linear_52_2145)"/>
<path d="M66.7845 309.157C66.7845 309.917 66.1653 310.534 65.4015 310.534C64.6377 310.534 64.0185 309.917 64.0185 309.157C64.0185 308.397 64.6377 307.78 65.4015 307.78C66.1653 307.78 66.7845 308.397 66.7845 309.157Z" fill="url(#paint126_linear_52_2145)"/>
<path d="M70.9334 309.157C70.9334 309.917 70.3142 310.534 69.5504 310.534C68.7866 310.534 68.1674 309.917 68.1674 309.157C68.1674 308.397 68.7866 307.78 69.5504 307.78C70.3142 307.78 70.9334 308.397 70.9334 309.157Z" fill="url(#paint127_linear_52_2145)"/>
<path d="M75.0823 309.157C75.0823 309.917 74.4631 310.534 73.6993 310.534C72.9355 310.534 72.3164 309.917 72.3164 309.157C72.3164 308.397 72.9355 307.78 73.6993 307.78C74.4631 307.78 75.0823 308.397 75.0823 309.157Z" fill="url(#paint128_linear_52_2145)"/>
<path d="M79.2312 309.157C79.2312 309.917 78.6121 310.534 77.8483 310.534C77.0845 310.534 76.4653 309.917 76.4653 309.157C76.4653 308.397 77.0845 307.78 77.8483 307.78C78.6121 307.78 79.2312 308.397 79.2312 309.157Z" fill="url(#paint129_linear_52_2145)"/>
<path d="M83.3802 309.157C83.3802 309.917 82.761 310.534 81.9972 310.534C81.2334 310.534 80.6142 309.917 80.6142 309.157C80.6142 308.397 81.2334 307.78 81.9972 307.78C82.761 307.78 83.3802 308.397 83.3802 309.157Z" fill="url(#paint130_linear_52_2145)"/>
<path d="M87.5291 309.157C87.5291 309.917 86.9099 310.534 86.1461 310.534C85.3823 310.534 84.7631 309.917 84.7631 309.157C84.7631 308.397 85.3823 307.78 86.1461 307.78C86.9099 307.78 87.5291 308.397 87.5291 309.157Z" fill="url(#paint131_linear_52_2145)"/>
<path d="M91.678 309.157C91.678 309.917 91.0588 310.534 90.295 310.534C89.5312 310.534 88.9121 309.917 88.9121 309.157C88.9121 308.397 89.5312 307.78 90.295 307.78C91.0588 307.78 91.678 308.397 91.678 309.157Z" fill="url(#paint132_linear_52_2145)"/>
<path d="M16.9974 317.417C16.9974 318.177 16.3782 318.794 15.6144 318.794C14.8506 318.794 14.2314 318.177 14.2314 317.417C14.2314 316.657 14.8506 316.04 15.6144 316.04C16.3782 316.04 16.9974 316.657 16.9974 317.417Z" fill="url(#paint133_linear_52_2145)"/>
<path d="M21.1463 317.417C21.1463 318.177 20.5271 318.794 19.7633 318.794C18.9995 318.794 18.3804 318.177 18.3804 317.417C18.3804 316.657 18.9995 316.04 19.7633 316.04C20.5271 316.04 21.1463 316.657 21.1463 317.417Z" fill="url(#paint134_linear_52_2145)"/>
<path d="M25.2952 317.417C25.2952 318.177 24.6761 318.794 23.9123 318.794C23.1485 318.794 22.5293 318.177 22.5293 317.417C22.5293 316.657 23.1485 316.04 23.9123 316.04C24.6761 316.04 25.2952 316.657 25.2952 317.417Z" fill="url(#paint135_linear_52_2145)"/>
<path d="M29.4442 317.417C29.4442 318.177 28.825 318.794 28.0612 318.794C27.2974 318.794 26.6782 318.177 26.6782 317.417C26.6782 316.657 27.2974 316.04 28.0612 316.04C28.825 316.04 29.4442 316.657 29.4442 317.417Z" fill="url(#paint136_linear_52_2145)"/>
<path d="M33.5931 317.417C33.5931 318.177 32.9739 318.794 32.2101 318.794C31.4463 318.794 30.8271 318.177 30.8271 317.417C30.8271 316.657 31.4463 316.04 32.2101 316.04C32.9739 316.04 33.5931 316.657 33.5931 317.417Z" fill="url(#paint137_linear_52_2145)"/>
<path d="M37.742 317.417C37.742 318.177 37.1228 318.794 36.359 318.794C35.5952 318.794 34.9761 318.177 34.9761 317.417C34.9761 316.657 35.5952 316.04 36.359 316.04C37.1228 316.04 37.742 316.657 37.742 317.417Z" fill="url(#paint138_linear_52_2145)"/>
<path d="M41.8909 317.417C41.8909 318.177 41.2718 318.794 40.508 318.794C39.7442 318.794 39.125 318.177 39.125 317.417C39.125 316.657 39.7442 316.04 40.508 316.04C41.2718 316.04 41.8909 316.657 41.8909 317.417Z" fill="url(#paint139_linear_52_2145)"/>
<path d="M46.0399 317.417C46.0399 318.177 45.4207 318.794 44.6569 318.794C43.8931 318.794 43.2739 318.177 43.2739 317.417C43.2739 316.657 43.8931 316.04 44.6569 316.04C45.4207 316.04 46.0399 316.657 46.0399 317.417Z" fill="url(#paint140_linear_52_2145)"/>
<path d="M50.1888 317.417C50.1888 318.177 49.5696 318.794 48.8058 318.794C48.042 318.794 47.4228 318.177 47.4228 317.417C47.4228 316.657 48.042 316.04 48.8058 316.04C49.5696 316.04 50.1888 316.657 50.1888 317.417Z" fill="url(#paint141_linear_52_2145)"/>
<path d="M54.3377 317.417C54.3377 318.177 53.7185 318.794 52.9547 318.794C52.1909 318.794 51.5718 318.177 51.5718 317.417C51.5718 316.657 52.1909 316.04 52.9547 316.04C53.7185 316.04 54.3377 316.657 54.3377 317.417Z" fill="url(#paint142_linear_52_2145)"/>
<path d="M58.4866 317.417C58.4866 318.177 57.8674 318.794 57.1036 318.794C56.3399 318.794 55.7207 318.177 55.7207 317.417C55.7207 316.657 56.3399 316.04 57.1036 316.04C57.8674 316.04 58.4866 316.657 58.4866 317.417Z" fill="url(#paint143_linear_52_2145)"/>
<path d="M62.6355 317.417C62.6355 318.177 62.0164 318.794 61.2526 318.794C60.4888 318.794 59.8696 318.177 59.8696 317.417C59.8696 316.657 60.4888 316.04 61.2526 316.04C62.0164 316.04 62.6355 316.657 62.6355 317.417Z" fill="url(#paint144_linear_52_2145)"/>
<path d="M66.7845 317.417C66.7845 318.177 66.1653 318.794 65.4015 318.794C64.6377 318.794 64.0185 318.177 64.0185 317.417C64.0185 316.657 64.6377 316.04 65.4015 316.04C66.1653 316.04 66.7845 316.657 66.7845 317.417Z" fill="url(#paint145_linear_52_2145)"/>
<path d="M70.9334 317.417C70.9334 318.177 70.3142 318.794 69.5504 318.794C68.7866 318.794 68.1674 318.177 68.1674 317.417C68.1674 316.657 68.7866 316.04 69.5504 316.04C70.3142 316.04 70.9334 316.657 70.9334 317.417Z" fill="url(#paint146_linear_52_2145)"/>
<path d="M75.0823 317.417C75.0823 318.177 74.4631 318.794 73.6993 318.794C72.9355 318.794 72.3164 318.177 72.3164 317.417C72.3164 316.657 72.9355 316.04 73.6993 316.04C74.4631 316.04 75.0823 316.657 75.0823 317.417Z" fill="url(#paint147_linear_52_2145)"/>
<path d="M79.2312 317.417C79.2312 318.177 78.6121 318.794 77.8483 318.794C77.0845 318.794 76.4653 318.177 76.4653 317.417C76.4653 316.657 77.0845 316.04 77.8483 316.04C78.6121 316.04 79.2312 316.657 79.2312 317.417Z" fill="url(#paint148_linear_52_2145)"/>
<path d="M83.3802 317.417C83.3802 318.177 82.761 318.794 81.9972 318.794C81.2334 318.794 80.6142 318.177 80.6142 317.417C80.6142 316.657 81.2334 316.04 81.9972 316.04C82.761 316.04 83.3802 316.657 83.3802 317.417Z" fill="url(#paint149_linear_52_2145)"/>
<path d="M87.5291 317.417C87.5291 318.177 86.9099 318.794 86.1461 318.794C85.3823 318.794 84.7631 318.177 84.7631 317.417C84.7631 316.657 85.3823 316.04 86.1461 316.04C86.9099 316.04 87.5291 316.657 87.5291 317.417Z" fill="url(#paint150_linear_52_2145)"/>
<path d="M91.678 317.417C91.678 318.177 91.0588 318.794 90.295 318.794C89.5312 318.794 88.9121 318.177 88.9121 317.417C88.9121 316.657 89.5312 316.04 90.295 316.04C91.0588 316.04 91.678 316.657 91.678 317.417Z" fill="url(#paint151_linear_52_2145)"/>
<path d="M19.7633 313.287C19.7633 314.047 19.1442 314.664 18.3804 314.664C17.6166 314.664 16.9974 314.047 16.9974 313.287C16.9974 312.527 17.6166 311.91 18.3804 311.91C19.1442 311.91 19.7633 312.527 19.7633 313.287Z" fill="url(#paint152_linear_52_2145)"/>
<path d="M23.9123 313.287C23.9123 314.047 23.2931 314.664 22.5293 314.664C21.7655 314.664 21.1463 314.047 21.1463 313.287C21.1463 312.527 21.7655 311.91 22.5293 311.91C23.2931 311.91 23.9123 312.527 23.9123 313.287Z" fill="url(#paint153_linear_52_2145)"/>
<path d="M28.0612 313.287C28.0612 314.047 27.442 314.664 26.6782 314.664C25.9144 314.664 25.2952 314.047 25.2952 313.287C25.2952 312.527 25.9144 311.91 26.6782 311.91C27.442 311.91 28.0612 312.527 28.0612 313.287Z" fill="url(#paint154_linear_52_2145)"/>
<path d="M32.2101 313.287C32.2101 314.047 31.5909 314.664 30.8271 314.664C30.0633 314.664 29.4442 314.047 29.4442 313.287C29.4442 312.527 30.0633 311.91 30.8271 311.91C31.5909 311.91 32.2101 312.527 32.2101 313.287Z" fill="url(#paint155_linear_52_2145)"/>
<path d="M36.359 313.287C36.359 314.047 35.7399 314.664 34.9761 314.664C34.2123 314.664 33.5931 314.047 33.5931 313.287C33.5931 312.527 34.2123 311.91 34.9761 311.91C35.7399 311.91 36.359 312.527 36.359 313.287Z" fill="url(#paint156_linear_52_2145)"/>
<path d="M40.508 313.287C40.508 314.047 39.8888 314.664 39.125 314.664C38.3612 314.664 37.742 314.047 37.742 313.287C37.742 312.527 38.3612 311.91 39.125 311.91C39.8888 311.91 40.508 312.527 40.508 313.287Z" fill="url(#paint157_linear_52_2145)"/>
<path d="M44.6569 313.287C44.6569 314.047 44.0377 314.664 43.2739 314.664C42.5101 314.664 41.8909 314.047 41.8909 313.287C41.8909 312.527 42.5101 311.91 43.2739 311.91C44.0377 311.91 44.6569 312.527 44.6569 313.287Z" fill="url(#paint158_linear_52_2145)"/>
<path d="M48.8058 313.287C48.8058 314.047 48.1866 314.664 47.4228 314.664C46.659 314.664 46.0399 314.047 46.0399 313.287C46.0399 312.527 46.659 311.91 47.4228 311.91C48.1866 311.91 48.8058 312.527 48.8058 313.287Z" fill="url(#paint159_linear_52_2145)"/>
<path d="M52.9547 313.287C52.9547 314.047 52.3355 314.664 51.5718 314.664C50.808 314.664 50.1888 314.047 50.1888 313.287C50.1888 312.527 50.808 311.91 51.5718 311.91C52.3355 311.91 52.9547 312.527 52.9547 313.287Z" fill="url(#paint160_linear_52_2145)"/>
<path d="M57.1036 313.287C57.1036 314.047 56.4845 314.664 55.7207 314.664C54.9569 314.664 54.3377 314.047 54.3377 313.287C54.3377 312.527 54.9569 311.91 55.7207 311.91C56.4845 311.91 57.1036 312.527 57.1036 313.287Z" fill="url(#paint161_linear_52_2145)"/>
<path d="M61.2526 313.287C61.2526 314.047 60.6334 314.664 59.8696 314.664C59.1058 314.664 58.4866 314.047 58.4866 313.287C58.4866 312.527 59.1058 311.91 59.8696 311.91C60.6334 311.91 61.2526 312.527 61.2526 313.287Z" fill="url(#paint162_linear_52_2145)"/>
<path d="M65.4015 313.287C65.4015 314.047 64.7823 314.664 64.0185 314.664C63.2547 314.664 62.6355 314.047 62.6355 313.287C62.6355 312.527 63.2547 311.91 64.0185 311.91C64.7823 311.91 65.4015 312.527 65.4015 313.287Z" fill="url(#paint163_linear_52_2145)"/>
<path d="M69.5504 313.287C69.5504 314.047 68.9312 314.664 68.1674 314.664C67.4036 314.664 66.7845 314.047 66.7845 313.287C66.7845 312.527 67.4036 311.91 68.1674 311.91C68.9312 311.91 69.5504 312.527 69.5504 313.287Z" fill="url(#paint164_linear_52_2145)"/>
<path d="M73.6993 313.287C73.6993 314.047 73.0802 314.664 72.3164 314.664C71.5526 314.664 70.9334 314.047 70.9334 313.287C70.9334 312.527 71.5526 311.91 72.3164 311.91C73.0802 311.91 73.6993 312.527 73.6993 313.287Z" fill="url(#paint165_linear_52_2145)"/>
<path d="M77.8483 313.287C77.8483 314.047 77.2291 314.664 76.4653 314.664C75.7015 314.664 75.0823 314.047 75.0823 313.287C75.0823 312.527 75.7015 311.91 76.4653 311.91C77.2291 311.91 77.8483 312.527 77.8483 313.287Z" fill="url(#paint166_linear_52_2145)"/>
<path d="M81.9972 313.287C81.9972 314.047 81.378 314.664 80.6142 314.664C79.8504 314.664 79.2312 314.047 79.2312 313.287C79.2312 312.527 79.8504 311.91 80.6142 311.91C81.378 311.91 81.9972 312.527 81.9972 313.287Z" fill="url(#paint167_linear_52_2145)"/>
<path d="M86.1461 313.287C86.1461 314.047 85.5269 314.664 84.7631 314.664C83.9993 314.664 83.3802 314.047 83.3802 313.287C83.3802 312.527 83.9993 311.91 84.7631 311.91C85.5269 311.91 86.1461 312.527 86.1461 313.287Z" fill="url(#paint168_linear_52_2145)"/>
<path d="M90.295 313.287C90.295 314.047 89.6758 314.664 88.9121 314.664C88.1483 314.664 87.5291 314.047 87.5291 313.287C87.5291 312.527 88.1483 311.91 88.9121 311.91C89.6758 311.91 90.295 312.527 90.295 313.287Z" fill="url(#paint169_linear_52_2145)"/>
<path d="M94.444 313.287C94.444 314.047 93.8248 314.664 93.061 314.664C92.2972 314.664 91.678 314.047 91.678 313.287C91.678 312.527 92.2972 311.91 93.061 311.91C93.8248 311.91 94.444 312.527 94.444 313.287Z" fill="url(#paint170_linear_52_2145)"/>
<rect x="43" y="66" width="334" height="235" stroke="url(#paint171_linear_52_2145)" stroke-width="2"/>
<path d="M366.994 183.712L377.451 189.75V201.825L366.994 207.862L356.536 201.825V189.75L366.994 183.712Z" stroke="url(#paint172_linear_52_2145)" stroke-width="2"/>
<circle cx="20.4846" cy="81.2907" r="6.25313" stroke="url(#paint173_linear_52_2145)" stroke-width="2"/>
<path d="M259.916 15.9271L268.081 7.76284L271.069 18.9154L259.916 15.9271Z" stroke="url(#paint174_linear_52_2145)" stroke-width="2"/>
<path d="M18.2218 158.561L29.6872 159.922L22.7758 169.171L18.2218 158.561Z" stroke="url(#paint175_linear_52_2145)" stroke-width="2"/>
<rect x="394.472" y="82.3594" width="18.6841" height="18.6841" transform="rotate(53.773 394.472 82.3594)" stroke="url(#paint176_linear_52_2145)" stroke-width="2"/>
<defs>
<linearGradient id="paint0_linear_52_2145" x1="14.2314" y1="301.678" x2="93.468" y2="301.678" gradientUnits="userSpaceOnUse">
<stop stop-color="#CEBB8B"/>
<stop offset="1" stop-color="#CEBB8B" stop-opacity="0.2"/>
</linearGradient>
<linearGradient id="paint1_linear_52_2145" x1="14.2314" y1="301.678" x2="93.468" y2="301.678" gradientUnits="userSpaceOnUse">
<stop stop-color="#CEBB8B"/>
<stop offset="1" stop-color="#CEBB8B" stop-opacity="0.2"/>
</linearGradient>
<linearGradient id="paint2_linear_52_2145" x1="14.2314" y1="301.678" x2="93.468" y2="301.678" gradientUnits="userSpaceOnUse">
<stop stop-color="#CEBB8B"/>
<stop offset="1" stop-color="#CEBB8B" stop-opacity="0.2"/>
</linearGradient>
<linearGradient id="paint3_linear_52_2145" x1="14.2314" y1="301.678" x2="93.468" y2="301.678" gradientUnits="userSpaceOnUse">
<stop stop-color="#CEBB8B"/>
<stop offset="1" stop-color="#CEBB8B" stop-opacity="0.2"/>
</linearGradient>
<linearGradient id="paint4_linear_52_2145" x1="14.2314" y1="301.678" x2="93.468" y2="301.678" gradientUnits="userSpaceOnUse">
<stop stop-color="#CEBB8B"/>
<stop offset="1" stop-color="#CEBB8B" stop-opacity="0.2"/>
</linearGradient>
<linearGradient id="paint5_linear_52_2145" x1="14.2314" y1="301.678" x2="93.468" y2="301.678" gradientUnits="userSpaceOnUse">
<stop stop-color="#CEBB8B"/>
<stop offset="1" stop-color="#CEBB8B" stop-opacity="0.2"/>
</linearGradient>
<linearGradient id="paint6_linear_52_2145" x1="14.2314" y1="301.678" x2="93.468" y2="301.678" gradientUnits="userSpaceOnUse">
<stop stop-color="#CEBB8B"/>
<stop offset="1" stop-color="#CEBB8B" stop-opacity="0.2"/>
</linearGradient>
<linearGradient id="paint7_linear_52_2145" x1="14.2314" y1="301.678" x2="93.468" y2="301.678" gradientUnits="userSpaceOnUse">
<stop stop-color="#CEBB8B"/>
<stop offset="1" stop-color="#CEBB8B" stop-opacity="0.2"/>
</linearGradient>
<linearGradient id="paint8_linear_52_2145" x1="14.2314" y1="301.678" x2="93.468" y2="301.678" gradientUnits="userSpaceOnUse">
<stop stop-color="#CEBB8B"/>
<stop offset="1" stop-color="#CEBB8B" stop-opacity="0.2"/>
</linearGradient>
<linearGradient id="paint9_linear_52_2145" x1="14.2314" y1="301.678" x2="93.468" y2="301.678" gradientUnits="userSpaceOnUse">
<stop stop-color="#CEBB8B"/>
<stop offset="1" stop-color="#CEBB8B" stop-opacity="0.2"/>
</linearGradient>
<linearGradient id="paint10_linear_52_2145" x1="14.2314" y1="301.678" x2="93.468" y2="301.678" gradientUnits="userSpaceOnUse">
<stop stop-color="#CEBB8B"/>
<stop offset="1" stop-color="#CEBB8B" stop-opacity="0.2"/>
</linearGradient>
<linearGradient id="paint11_linear_52_2145" x1="14.2314" y1="301.678" x2="93.468" y2="301.678" gradientUnits="userSpaceOnUse">
<stop stop-color="#CEBB8B"/>
<stop offset="1" stop-color="#CEBB8B" stop-opacity="0.2"/>
</linearGradient>
<linearGradient id="paint12_linear_52_2145" x1="14.2314" y1="301.678" x2="93.468" y2="301.678" gradientUnits="userSpaceOnUse">
<stop stop-color="#CEBB8B"/>
<stop offset="1" stop-color="#CEBB8B" stop-opacity="0.2"/>
</linearGradient>
<linearGradient id="paint13_linear_52_2145" x1="14.2314" y1="301.678" x2="93.468" y2="301.678" gradientUnits="userSpaceOnUse">
<stop stop-color="#CEBB8B"/>
<stop offset="1" stop-color="#CEBB8B" stop-opacity="0.2"/>
</linearGradient>
<linearGradient id="paint14_linear_52_2145" x1="14.2314" y1="301.678" x2="93.468" y2="301.678" gradientUnits="userSpaceOnUse">
<stop stop-color="#CEBB8B"/>
<stop offset="1" stop-color="#CEBB8B" stop-opacity="0.2"/>
</linearGradient>
<linearGradient id="paint15_linear_52_2145" x1="14.2314" y1="301.678" x2="93.468" y2="301.678" gradientUnits="userSpaceOnUse">
<stop stop-color="#CEBB8B"/>
<stop offset="1" stop-color="#CEBB8B" stop-opacity="0.2"/>
</linearGradient>
<linearGradient id="paint16_linear_52_2145" x1="14.2314" y1="301.678" x2="93.468" y2="301.678" gradientUnits="userSpaceOnUse">
<stop stop-color="#CEBB8B"/>
<stop offset="1" stop-color="#CEBB8B" stop-opacity="0.2"/>
</linearGradient>
<linearGradient id="paint17_linear_52_2145" x1="14.2314" y1="301.678" x2="93.468" y2="301.678" gradientUnits="userSpaceOnUse">
<stop stop-color="#CEBB8B"/>
<stop offset="1" stop-color="#CEBB8B" stop-opacity="0.2"/>
</linearGradient>
<linearGradient id="paint18_linear_52_2145" x1="14.2314" y1="301.678" x2="93.468" y2="301.678" gradientUnits="userSpaceOnUse">
<stop stop-color="#CEBB8B"/>
<stop offset="1" stop-color="#CEBB8B" stop-opacity="0.2"/>
</linearGradient>
<linearGradient id="paint19_linear_52_2145" x1="14.2314" y1="301.678" x2="93.468" y2="301.678" gradientUnits="userSpaceOnUse">
<stop stop-color="#CEBB8B"/>
<stop offset="1" stop-color="#CEBB8B" stop-opacity="0.2"/>
</linearGradient>
<linearGradient id="paint20_linear_52_2145" x1="14.2314" y1="301.678" x2="93.468" y2="301.678" gradientUnits="userSpaceOnUse">
<stop stop-color="#CEBB8B"/>
<stop offset="1" stop-color="#CEBB8B" stop-opacity="0.2"/>
</linearGradient>
<linearGradient id="paint21_linear_52_2145" x1="14.2314" y1="301.678" x2="93.468" y2="301.678" gradientUnits="userSpaceOnUse">
<stop stop-color="#CEBB8B"/>
<stop offset="1" stop-color="#CEBB8B" stop-opacity="0.2"/>
</linearGradient>
<linearGradient id="paint22_linear_52_2145" x1="14.2314" y1="301.678" x2="93.468" y2="301.678" gradientUnits="userSpaceOnUse">
<stop stop-color="#CEBB8B"/>
<stop offset="1" stop-color="#CEBB8B" stop-opacity="0.2"/>
</linearGradient>
<linearGradient id="paint23_linear_52_2145" x1="14.2314" y1="301.678" x2="93.468" y2="301.678" gradientUnits="userSpaceOnUse">
<stop stop-color="#CEBB8B"/>
<stop offset="1" stop-color="#CEBB8B" stop-opacity="0.2"/>
</linearGradient>
<linearGradient id="paint24_linear_52_2145" x1="14.2314" y1="301.678" x2="93.468" y2="301.678" gradientUnits="userSpaceOnUse">
<stop stop-color="#CEBB8B"/>
<stop offset="1" stop-color="#CEBB8B" stop-opacity="0.2"/>
</linearGradient>
<linearGradient id="paint25_linear_52_2145" x1="14.2314" y1="301.678" x2="93.468" y2="301.678" gradientUnits="userSpaceOnUse">
<stop stop-color="#CEBB8B"/>
<stop offset="1" stop-color="#CEBB8B" stop-opacity="0.2"/>
</linearGradient>
<linearGradient id="paint26_linear_52_2145" x1="14.2314" y1="301.678" x2="93.468" y2="301.678" gradientUnits="userSpaceOnUse">
<stop stop-color="#CEBB8B"/>
<stop offset="1" stop-color="#CEBB8B" stop-opacity="0.2"/>
</linearGradient>
<linearGradient id="paint27_linear_52_2145" x1="14.2314" y1="301.678" x2="93.468" y2="301.678" gradientUnits="userSpaceOnUse">
<stop stop-color="#CEBB8B"/>
<stop offset="1" stop-color="#CEBB8B" stop-opacity="0.2"/>
</linearGradient>
<linearGradient id="paint28_linear_52_2145" x1="14.2314" y1="301.678" x2="93.468" y2="301.678" gradientUnits="userSpaceOnUse">
<stop stop-color="#CEBB8B"/>
<stop offset="1" stop-color="#CEBB8B" stop-opacity="0.2"/>
</linearGradient>
<linearGradient id="paint29_linear_52_2145" x1="14.2314" y1="301.678" x2="93.468" y2="301.678" gradientUnits="userSpaceOnUse">
<stop stop-color="#CEBB8B"/>
<stop offset="1" stop-color="#CEBB8B" stop-opacity="0.2"/>
</linearGradient>
<linearGradient id="paint30_linear_52_2145" x1="14.2314" y1="301.678" x2="93.468" y2="301.678" gradientUnits="userSpaceOnUse">
<stop stop-color="#CEBB8B"/>
<stop offset="1" stop-color="#CEBB8B" stop-opacity="0.2"/>
</linearGradient>
<linearGradient id="paint31_linear_52_2145" x1="14.2314" y1="301.678" x2="93.468" y2="301.678" gradientUnits="userSpaceOnUse">
<stop stop-color="#CEBB8B"/>
<stop offset="1" stop-color="#CEBB8B" stop-opacity="0.2"/>
</linearGradient>
<linearGradient id="paint32_linear_52_2145" x1="14.2314" y1="301.678" x2="93.468" y2="301.678" gradientUnits="userSpaceOnUse">
<stop stop-color="#CEBB8B"/>
<stop offset="1" stop-color="#CEBB8B" stop-opacity="0.2"/>
</linearGradient>
<linearGradient id="paint33_linear_52_2145" x1="14.2314" y1="301.678" x2="93.468" y2="301.678" gradientUnits="userSpaceOnUse">
<stop stop-color="#CEBB8B"/>
<stop offset="1" stop-color="#CEBB8B" stop-opacity="0.2"/>
</linearGradient>
<linearGradient id="paint34_linear_52_2145" x1="14.2314" y1="301.678" x2="93.468" y2="301.678" gradientUnits="userSpaceOnUse">
<stop stop-color="#CEBB8B"/>
<stop offset="1" stop-color="#CEBB8B" stop-opacity="0.2"/>
</linearGradient>
<linearGradient id="paint35_linear_52_2145" x1="14.2314" y1="301.678" x2="93.468" y2="301.678" gradientUnits="userSpaceOnUse">
<stop stop-color="#CEBB8B"/>
<stop offset="1" stop-color="#CEBB8B" stop-opacity="0.2"/>
</linearGradient>
<linearGradient id="paint36_linear_52_2145" x1="14.2314" y1="301.678" x2="93.468" y2="301.678" gradientUnits="userSpaceOnUse">
<stop stop-color="#CEBB8B"/>
<stop offset="1" stop-color="#CEBB8B" stop-opacity="0.2"/>
</linearGradient>
<linearGradient id="paint37_linear_52_2145" x1="14.2314" y1="301.678" x2="93.468" y2="301.678" gradientUnits="userSpaceOnUse">
<stop stop-color="#CEBB8B"/>
<stop offset="1" stop-color="#CEBB8B" stop-opacity="0.2"/>
</linearGradient>
<linearGradient id="paint38_linear_52_2145" x1="14.2314" y1="301.678" x2="93.468" y2="301.678" gradientUnits="userSpaceOnUse">
<stop stop-color="#CEBB8B"/>
<stop offset="1" stop-color="#CEBB8B" stop-opacity="0.2"/>
</linearGradient>
<linearGradient id="paint39_linear_52_2145" x1="14.2314" y1="301.678" x2="93.468" y2="301.678" gradientUnits="userSpaceOnUse">
<stop stop-color="#CEBB8B"/>
<stop offset="1" stop-color="#CEBB8B" stop-opacity="0.2"/>
</linearGradient>
<linearGradient id="paint40_linear_52_2145" x1="14.2314" y1="301.678" x2="93.468" y2="301.678" gradientUnits="userSpaceOnUse">
<stop stop-color="#CEBB8B"/>
<stop offset="1" stop-color="#CEBB8B" stop-opacity="0.2"/>
</linearGradient>
<linearGradient id="paint41_linear_52_2145" x1="14.2314" y1="301.678" x2="93.468" y2="301.678" gradientUnits="userSpaceOnUse">
<stop stop-color="#CEBB8B"/>
<stop offset="1" stop-color="#CEBB8B" stop-opacity="0.2"/>
</linearGradient>
<linearGradient id="paint42_linear_52_2145" x1="14.2314" y1="301.678" x2="93.468" y2="301.678" gradientUnits="userSpaceOnUse">
<stop stop-color="#CEBB8B"/>
<stop offset="1" stop-color="#CEBB8B" stop-opacity="0.2"/>
</linearGradient>
<linearGradient id="paint43_linear_52_2145" x1="14.2314" y1="301.678" x2="93.468" y2="301.678" gradientUnits="userSpaceOnUse">
<stop stop-color="#CEBB8B"/>
<stop offset="1" stop-color="#CEBB8B" stop-opacity="0.2"/>
</linearGradient>
<linearGradient id="paint44_linear_52_2145" x1="14.2314" y1="301.678" x2="93.468" y2="301.678" gradientUnits="userSpaceOnUse">
<stop stop-color="#CEBB8B"/>
<stop offset="1" stop-color="#CEBB8B" stop-opacity="0.2"/>
</linearGradient>
<linearGradient id="paint45_linear_52_2145" x1="14.2314" y1="301.678" x2="93.468" y2="301.678" gradientUnits="userSpaceOnUse">
<stop stop-color="#CEBB8B"/>
<stop offset="1" stop-color="#CEBB8B" stop-opacity="0.2"/>
</linearGradient>
<linearGradient id="paint46_linear_52_2145" x1="14.2314" y1="301.678" x2="93.468" y2="301.678" gradientUnits="userSpaceOnUse">
<stop stop-color="#CEBB8B"/>
<stop offset="1" stop-color="#CEBB8B" stop-opacity="0.2"/>
</linearGradient>
<linearGradient id="paint47_linear_52_2145" x1="14.2314" y1="301.678" x2="93.468" y2="301.678" gradientUnits="userSpaceOnUse">
<stop stop-color="#CEBB8B"/>
<stop offset="1" stop-color="#CEBB8B" stop-opacity="0.2"/>
</linearGradient>
<linearGradient id="paint48_linear_52_2145" x1="14.2314" y1="301.678" x2="93.468" y2="301.678" gradientUnits="userSpaceOnUse">
<stop stop-color="#CEBB8B"/>
<stop offset="1" stop-color="#CEBB8B" stop-opacity="0.2"/>
</linearGradient>
<linearGradient id="paint49_linear_52_2145" x1="14.2314" y1="301.678" x2="93.468" y2="301.678" gradientUnits="userSpaceOnUse">
<stop stop-color="#CEBB8B"/>
<stop offset="1" stop-color="#CEBB8B" stop-opacity="0.2"/>
</linearGradient>
<linearGradient id="paint50_linear_52_2145" x1="14.2314" y1="301.678" x2="93.468" y2="301.678" gradientUnits="userSpaceOnUse">
<stop stop-color="#CEBB8B"/>
<stop offset="1" stop-color="#CEBB8B" stop-opacity="0.2"/>
</linearGradient>
<linearGradient id="paint51_linear_52_2145" x1="14.2314" y1="301.678" x2="93.468" y2="301.678" gradientUnits="userSpaceOnUse">
<stop stop-color="#CEBB8B"/>
<stop offset="1" stop-color="#CEBB8B" stop-opacity="0.2"/>
</linearGradient>
<linearGradient id="paint52_linear_52_2145" x1="14.2314" y1="301.678" x2="93.468" y2="301.678" gradientUnits="userSpaceOnUse">
<stop stop-color="#CEBB8B"/>
<stop offset="1" stop-color="#CEBB8B" stop-opacity="0.2"/>
</linearGradient>
<linearGradient id="paint53_linear_52_2145" x1="14.2314" y1="301.678" x2="93.468" y2="301.678" gradientUnits="userSpaceOnUse">
<stop stop-color="#CEBB8B"/>
<stop offset="1" stop-color="#CEBB8B" stop-opacity="0.2"/>
</linearGradient>
<linearGradient id="paint54_linear_52_2145" x1="14.2314" y1="301.678" x2="93.468" y2="301.678" gradientUnits="userSpaceOnUse">
<stop stop-color="#CEBB8B"/>
<stop offset="1" stop-color="#CEBB8B" stop-opacity="0.2"/>
</linearGradient>
<linearGradient id="paint55_linear_52_2145" x1="14.2314" y1="301.678" x2="93.468" y2="301.678" gradientUnits="userSpaceOnUse">
<stop stop-color="#CEBB8B"/>
<stop offset="1" stop-color="#CEBB8B" stop-opacity="0.2"/>
</linearGradient>
<linearGradient id="paint56_linear_52_2145" x1="14.2314" y1="301.678" x2="93.468" y2="301.678" gradientUnits="userSpaceOnUse">
<stop stop-color="#CEBB8B"/>
<stop offset="1" stop-color="#CEBB8B" stop-opacity="0.2"/>
</linearGradient>
<linearGradient id="paint57_linear_52_2145" x1="14.2314" y1="301.678" x2="93.468" y2="301.678" gradientUnits="userSpaceOnUse">
<stop stop-color="#CEBB8B"/>
<stop offset="1" stop-color="#CEBB8B" stop-opacity="0.2"/>
</linearGradient>
<linearGradient id="paint58_linear_52_2145" x1="14.2314" y1="301.678" x2="93.468" y2="301.678" gradientUnits="userSpaceOnUse">
<stop stop-color="#CEBB8B"/>
<stop offset="1" stop-color="#CEBB8B" stop-opacity="0.2"/>
</linearGradient>
<linearGradient id="paint59_linear_52_2145" x1="14.2314" y1="301.678" x2="93.468" y2="301.678" gradientUnits="userSpaceOnUse">
<stop stop-color="#CEBB8B"/>
<stop offset="1" stop-color="#CEBB8B" stop-opacity="0.2"/>
</linearGradient>
<linearGradient id="paint60_linear_52_2145" x1="14.2314" y1="301.678" x2="93.468" y2="301.678" gradientUnits="userSpaceOnUse">
<stop stop-color="#CEBB8B"/>
<stop offset="1" stop-color="#CEBB8B" stop-opacity="0.2"/>
</linearGradient>
<linearGradient id="paint61_linear_52_2145" x1="14.2314" y1="301.678" x2="93.468" y2="301.678" gradientUnits="userSpaceOnUse">
<stop stop-color="#CEBB8B"/>
<stop offset="1" stop-color="#CEBB8B" stop-opacity="0.2"/>
</linearGradient>
<linearGradient id="paint62_linear_52_2145" x1="14.2314" y1="301.678" x2="93.468" y2="301.678" gradientUnits="userSpaceOnUse">
<stop stop-color="#CEBB8B"/>
<stop offset="1" stop-color="#CEBB8B" stop-opacity="0.2"/>
</linearGradient>
<linearGradient id="paint63_linear_52_2145" x1="14.2314" y1="301.678" x2="93.468" y2="301.678" gradientUnits="userSpaceOnUse">
<stop stop-color="#CEBB8B"/>
<stop offset="1" stop-color="#CEBB8B" stop-opacity="0.2"/>
</linearGradient>
<linearGradient id="paint64_linear_52_2145" x1="14.2314" y1="301.678" x2="93.468" y2="301.678" gradientUnits="userSpaceOnUse">
<stop stop-color="#CEBB8B"/>
<stop offset="1" stop-color="#CEBB8B" stop-opacity="0.2"/>
</linearGradient>
<linearGradient id="paint65_linear_52_2145" x1="14.2314" y1="301.678" x2="93.468" y2="301.678" gradientUnits="userSpaceOnUse">
<stop stop-color="#CEBB8B"/>
<stop offset="1" stop-color="#CEBB8B" stop-opacity="0.2"/>
</linearGradient>
<linearGradient id="paint66_linear_52_2145" x1="14.2314" y1="301.678" x2="93.468" y2="301.678" gradientUnits="userSpaceOnUse">
<stop stop-color="#CEBB8B"/>
<stop offset="1" stop-color="#CEBB8B" stop-opacity="0.2"/>
</linearGradient>
<linearGradient id="paint67_linear_52_2145" x1="14.2314" y1="301.678" x2="93.468" y2="301.678" gradientUnits="userSpaceOnUse">
<stop stop-color="#CEBB8B"/>
<stop offset="1" stop-color="#CEBB8B" stop-opacity="0.2"/>
</linearGradient>
<linearGradient id="paint68_linear_52_2145" x1="14.2314" y1="301.678" x2="93.468" y2="301.678" gradientUnits="userSpaceOnUse">
<stop stop-color="#CEBB8B"/>
<stop offset="1" stop-color="#CEBB8B" stop-opacity="0.2"/>
</linearGradient>
<linearGradient id="paint69_linear_52_2145" x1="14.2314" y1="301.678" x2="93.468" y2="301.678" gradientUnits="userSpaceOnUse">
<stop stop-color="#CEBB8B"/>
<stop offset="1" stop-color="#CEBB8B" stop-opacity="0.2"/>
</linearGradient>
<linearGradient id="paint70_linear_52_2145" x1="14.2314" y1="301.678" x2="93.468" y2="301.678" gradientUnits="userSpaceOnUse">
<stop stop-color="#CEBB8B"/>
<stop offset="1" stop-color="#CEBB8B" stop-opacity="0.2"/>
</linearGradient>
<linearGradient id="paint71_linear_52_2145" x1="14.2314" y1="301.678" x2="93.468" y2="301.678" gradientUnits="userSpaceOnUse">
<stop stop-color="#CEBB8B"/>
<stop offset="1" stop-color="#CEBB8B" stop-opacity="0.2"/>
</linearGradient>
<linearGradient id="paint72_linear_52_2145" x1="14.2314" y1="301.678" x2="93.468" y2="301.678" gradientUnits="userSpaceOnUse">
<stop stop-color="#CEBB8B"/>
<stop offset="1" stop-color="#CEBB8B" stop-opacity="0.2"/>
</linearGradient>
<linearGradient id="paint73_linear_52_2145" x1="14.2314" y1="301.678" x2="93.468" y2="301.678" gradientUnits="userSpaceOnUse">
<stop stop-color="#CEBB8B"/>
<stop offset="1" stop-color="#CEBB8B" stop-opacity="0.2"/>
</linearGradient>
<linearGradient id="paint74_linear_52_2145" x1="14.2314" y1="301.678" x2="93.468" y2="301.678" gradientUnits="userSpaceOnUse">
<stop stop-color="#CEBB8B"/>
<stop offset="1" stop-color="#CEBB8B" stop-opacity="0.2"/>
</linearGradient>
<linearGradient id="paint75_linear_52_2145" x1="14.2314" y1="301.678" x2="93.468" y2="301.678" gradientUnits="userSpaceOnUse">
<stop stop-color="#CEBB8B"/>
<stop offset="1" stop-color="#CEBB8B" stop-opacity="0.2"/>
</linearGradient>
<linearGradient id="paint76_linear_52_2145" x1="14.2314" y1="301.678" x2="93.468" y2="301.678" gradientUnits="userSpaceOnUse">
<stop stop-color="#CEBB8B"/>
<stop offset="1" stop-color="#CEBB8B" stop-opacity="0.2"/>
</linearGradient>
<linearGradient id="paint77_linear_52_2145" x1="14.2314" y1="301.678" x2="93.468" y2="301.678" gradientUnits="userSpaceOnUse">
<stop stop-color="#CEBB8B"/>
<stop offset="1" stop-color="#CEBB8B" stop-opacity="0.2"/>
</linearGradient>
<linearGradient id="paint78_linear_52_2145" x1="14.2314" y1="301.678" x2="93.468" y2="301.678" gradientUnits="userSpaceOnUse">
<stop stop-color="#CEBB8B"/>
<stop offset="1" stop-color="#CEBB8B" stop-opacity="0.2"/>
</linearGradient>
<linearGradient id="paint79_linear_52_2145" x1="14.2314" y1="301.678" x2="93.468" y2="301.678" gradientUnits="userSpaceOnUse">
<stop stop-color="#CEBB8B"/>
<stop offset="1" stop-color="#CEBB8B" stop-opacity="0.2"/>
</linearGradient>
<linearGradient id="paint80_linear_52_2145" x1="14.2314" y1="301.678" x2="93.468" y2="301.678" gradientUnits="userSpaceOnUse">
<stop stop-color="#CEBB8B"/>
<stop offset="1" stop-color="#CEBB8B" stop-opacity="0.2"/>
</linearGradient>
<linearGradient id="paint81_linear_52_2145" x1="14.2314" y1="301.678" x2="93.468" y2="301.678" gradientUnits="userSpaceOnUse">
<stop stop-color="#CEBB8B"/>
<stop offset="1" stop-color="#CEBB8B" stop-opacity="0.2"/>
</linearGradient>
<linearGradient id="paint82_linear_52_2145" x1="14.2314" y1="301.678" x2="93.468" y2="301.678" gradientUnits="userSpaceOnUse">
<stop stop-color="#CEBB8B"/>
<stop offset="1" stop-color="#CEBB8B" stop-opacity="0.2"/>
</linearGradient>
<linearGradient id="paint83_linear_52_2145" x1="14.2314" y1="301.678" x2="93.468" y2="301.678" gradientUnits="userSpaceOnUse">
<stop stop-color="#CEBB8B"/>
<stop offset="1" stop-color="#CEBB8B" stop-opacity="0.2"/>
</linearGradient>
<linearGradient id="paint84_linear_52_2145" x1="14.2314" y1="301.678" x2="93.468" y2="301.678" gradientUnits="userSpaceOnUse">
<stop stop-color="#CEBB8B"/>
<stop offset="1" stop-color="#CEBB8B" stop-opacity="0.2"/>
</linearGradient>
<linearGradient id="paint85_linear_52_2145" x1="14.2314" y1="301.678" x2="93.468" y2="301.678" gradientUnits="userSpaceOnUse">
<stop stop-color="#CEBB8B"/>
<stop offset="1" stop-color="#CEBB8B" stop-opacity="0.2"/>
</linearGradient>
<linearGradient id="paint86_linear_52_2145" x1="14.2314" y1="301.678" x2="93.468" y2="301.678" gradientUnits="userSpaceOnUse">
<stop stop-color="#CEBB8B"/>
<stop offset="1" stop-color="#CEBB8B" stop-opacity="0.2"/>
</linearGradient>
<linearGradient id="paint87_linear_52_2145" x1="14.2314" y1="301.678" x2="93.468" y2="301.678" gradientUnits="userSpaceOnUse">
<stop stop-color="#CEBB8B"/>
<stop offset="1" stop-color="#CEBB8B" stop-opacity="0.2"/>
</linearGradient>
<linearGradient id="paint88_linear_52_2145" x1="14.2314" y1="301.678" x2="93.468" y2="301.678" gradientUnits="userSpaceOnUse">
<stop stop-color="#CEBB8B"/>
<stop offset="1" stop-color="#CEBB8B" stop-opacity="0.2"/>
</linearGradient>
<linearGradient id="paint89_linear_52_2145" x1="14.2314" y1="301.678" x2="93.468" y2="301.678" gradientUnits="userSpaceOnUse">
<stop stop-color="#CEBB8B"/>
<stop offset="1" stop-color="#CEBB8B" stop-opacity="0.2"/>
</linearGradient>
<linearGradient id="paint90_linear_52_2145" x1="14.2314" y1="301.678" x2="93.468" y2="301.678" gradientUnits="userSpaceOnUse">
<stop stop-color="#CEBB8B"/>
<stop offset="1" stop-color="#CEBB8B" stop-opacity="0.2"/>
</linearGradient>
<linearGradient id="paint91_linear_52_2145" x1="14.2314" y1="301.678" x2="93.468" y2="301.678" gradientUnits="userSpaceOnUse">
<stop stop-color="#CEBB8B"/>
<stop offset="1" stop-color="#CEBB8B" stop-opacity="0.2"/>
</linearGradient>
<linearGradient id="paint92_linear_52_2145" x1="14.2314" y1="301.678" x2="93.468" y2="301.678" gradientUnits="userSpaceOnUse">
<stop stop-color="#CEBB8B"/>
<stop offset="1" stop-color="#CEBB8B" stop-opacity="0.2"/>
</linearGradient>
<linearGradient id="paint93_linear_52_2145" x1="14.2314" y1="301.678" x2="93.468" y2="301.678" gradientUnits="userSpaceOnUse">
<stop stop-color="#CEBB8B"/>
<stop offset="1" stop-color="#CEBB8B" stop-opacity="0.2"/>
</linearGradient>
<linearGradient id="paint94_linear_52_2145" x1="14.2314" y1="301.678" x2="93.468" y2="301.678" gradientUnits="userSpaceOnUse">
<stop stop-color="#CEBB8B"/>
<stop offset="1" stop-color="#CEBB8B" stop-opacity="0.2"/>
</linearGradient>
<linearGradient id="paint95_linear_52_2145" x1="14.2314" y1="301.678" x2="93.468" y2="301.678" gradientUnits="userSpaceOnUse">
<stop stop-color="#CEBB8B"/>
<stop offset="1" stop-color="#CEBB8B" stop-opacity="0.2"/>
</linearGradient>
<linearGradient id="paint96_linear_52_2145" x1="14.2314" y1="301.678" x2="93.468" y2="301.678" gradientUnits="userSpaceOnUse">
<stop stop-color="#CEBB8B"/>
<stop offset="1" stop-color="#CEBB8B" stop-opacity="0.2"/>
</linearGradient>
<linearGradient id="paint97_linear_52_2145" x1="14.2314" y1="301.678" x2="93.468" y2="301.678" gradientUnits="userSpaceOnUse">
<stop stop-color="#CEBB8B"/>
<stop offset="1" stop-color="#CEBB8B" stop-opacity="0.2"/>
</linearGradient>
<linearGradient id="paint98_linear_52_2145" x1="14.2314" y1="301.678" x2="93.468" y2="301.678" gradientUnits="userSpaceOnUse">
<stop stop-color="#CEBB8B"/>
<stop offset="1" stop-color="#CEBB8B" stop-opacity="0.2"/>
</linearGradient>
<linearGradient id="paint99_linear_52_2145" x1="14.2314" y1="301.678" x2="93.468" y2="301.678" gradientUnits="userSpaceOnUse">
<stop stop-color="#CEBB8B"/>
<stop offset="1" stop-color="#CEBB8B" stop-opacity="0.2"/>
</linearGradient>
<linearGradient id="paint100_linear_52_2145" x1="14.2314" y1="301.678" x2="93.468" y2="301.678" gradientUnits="userSpaceOnUse">
<stop stop-color="#CEBB8B"/>
<stop offset="1" stop-color="#CEBB8B" stop-opacity="0.2"/>
</linearGradient>
<linearGradient id="paint101_linear_52_2145" x1="14.2314" y1="301.678" x2="93.468" y2="301.678" gradientUnits="userSpaceOnUse">
<stop stop-color="#CEBB8B"/>
<stop offset="1" stop-color="#CEBB8B" stop-opacity="0.2"/>
</linearGradient>
<linearGradient id="paint102_linear_52_2145" x1="14.2314" y1="301.678" x2="93.468" y2="301.678" gradientUnits="userSpaceOnUse">
<stop stop-color="#CEBB8B"/>
<stop offset="1" stop-color="#CEBB8B" stop-opacity="0.2"/>
</linearGradient>
<linearGradient id="paint103_linear_52_2145" x1="14.2314" y1="301.678" x2="93.468" y2="301.678" gradientUnits="userSpaceOnUse">
<stop stop-color="#CEBB8B"/>
<stop offset="1" stop-color="#CEBB8B" stop-opacity="0.2"/>
</linearGradient>
<linearGradient id="paint104_linear_52_2145" x1="14.2314" y1="301.678" x2="93.468" y2="301.678" gradientUnits="userSpaceOnUse">
<stop stop-color="#CEBB8B"/>
<stop offset="1" stop-color="#CEBB8B" stop-opacity="0.2"/>
</linearGradient>
<linearGradient id="paint105_linear_52_2145" x1="14.2314" y1="301.678" x2="93.468" y2="301.678" gradientUnits="userSpaceOnUse">
<stop stop-color="#CEBB8B"/>
<stop offset="1" stop-color="#CEBB8B" stop-opacity="0.2"/>
</linearGradient>
<linearGradient id="paint106_linear_52_2145" x1="14.2314" y1="301.678" x2="93.468" y2="301.678" gradientUnits="userSpaceOnUse">
<stop stop-color="#CEBB8B"/>
<stop offset="1" stop-color="#CEBB8B" stop-opacity="0.2"/>
</linearGradient>
<linearGradient id="paint107_linear_52_2145" x1="14.2314" y1="301.678" x2="93.468" y2="301.678" gradientUnits="userSpaceOnUse">
<stop stop-color="#CEBB8B"/>
<stop offset="1" stop-color="#CEBB8B" stop-opacity="0.2"/>
</linearGradient>
<linearGradient id="paint108_linear_52_2145" x1="14.2314" y1="301.678" x2="93.468" y2="301.678" gradientUnits="userSpaceOnUse">
<stop stop-color="#CEBB8B"/>
<stop offset="1" stop-color="#CEBB8B" stop-opacity="0.2"/>
</linearGradient>
<linearGradient id="paint109_linear_52_2145" x1="14.2314" y1="301.678" x2="93.468" y2="301.678" gradientUnits="userSpaceOnUse">
<stop stop-color="#CEBB8B"/>
<stop offset="1" stop-color="#CEBB8B" stop-opacity="0.2"/>
</linearGradient>
<linearGradient id="paint110_linear_52_2145" x1="14.2314" y1="301.678" x2="93.468" y2="301.678" gradientUnits="userSpaceOnUse">
<stop stop-color="#CEBB8B"/>
<stop offset="1" stop-color="#CEBB8B" stop-opacity="0.2"/>
</linearGradient>
<linearGradient id="paint111_linear_52_2145" x1="14.2314" y1="301.678" x2="93.468" y2="301.678" gradientUnits="userSpaceOnUse">
<stop stop-color="#CEBB8B"/>
<stop offset="1" stop-color="#CEBB8B" stop-opacity="0.2"/>
</linearGradient>
<linearGradient id="paint112_linear_52_2145" x1="14.2314" y1="301.678" x2="93.468" y2="301.678" gradientUnits="userSpaceOnUse">
<stop stop-color="#CEBB8B"/>
<stop offset="1" stop-color="#CEBB8B" stop-opacity="0.2"/>
</linearGradient>
<linearGradient id="paint113_linear_52_2145" x1="14.2314" y1="301.678" x2="93.468" y2="301.678" gradientUnits="userSpaceOnUse">
<stop stop-color="#CEBB8B"/>
<stop offset="1" stop-color="#CEBB8B" stop-opacity="0.2"/>
</linearGradient>
<linearGradient id="paint114_linear_52_2145" x1="14.2314" y1="301.678" x2="93.468" y2="301.678" gradientUnits="userSpaceOnUse">
<stop stop-color="#CEBB8B"/>
<stop offset="1" stop-color="#CEBB8B" stop-opacity="0.2"/>
</linearGradient>
<linearGradient id="paint115_linear_52_2145" x1="14.2314" y1="301.678" x2="93.468" y2="301.678" gradientUnits="userSpaceOnUse">
<stop stop-color="#CEBB8B"/>
<stop offset="1" stop-color="#CEBB8B" stop-opacity="0.2"/>
</linearGradient>
<linearGradient id="paint116_linear_52_2145" x1="14.2314" y1="301.678" x2="93.468" y2="301.678" gradientUnits="userSpaceOnUse">
<stop stop-color="#CEBB8B"/>
<stop offset="1" stop-color="#CEBB8B" stop-opacity="0.2"/>
</linearGradient>
<linearGradient id="paint117_linear_52_2145" x1="14.2314" y1="301.678" x2="93.468" y2="301.678" gradientUnits="userSpaceOnUse">
<stop stop-color="#CEBB8B"/>
<stop offset="1" stop-color="#CEBB8B" stop-opacity="0.2"/>
</linearGradient>
<linearGradient id="paint118_linear_52_2145" x1="14.2314" y1="301.678" x2="93.468" y2="301.678" gradientUnits="userSpaceOnUse">
<stop stop-color="#CEBB8B"/>
<stop offset="1" stop-color="#CEBB8B" stop-opacity="0.2"/>
</linearGradient>
<linearGradient id="paint119_linear_52_2145" x1="14.2314" y1="301.678" x2="93.468" y2="301.678" gradientUnits="userSpaceOnUse">
<stop stop-color="#CEBB8B"/>
<stop offset="1" stop-color="#CEBB8B" stop-opacity="0.2"/>
</linearGradient>
<linearGradient id="paint120_linear_52_2145" x1="14.2314" y1="301.678" x2="93.468" y2="301.678" gradientUnits="userSpaceOnUse">
<stop stop-color="#CEBB8B"/>
<stop offset="1" stop-color="#CEBB8B" stop-opacity="0.2"/>
</linearGradient>
<linearGradient id="paint121_linear_52_2145" x1="14.2314" y1="301.678" x2="93.468" y2="301.678" gradientUnits="userSpaceOnUse">
<stop stop-color="#CEBB8B"/>
<stop offset="1" stop-color="#CEBB8B" stop-opacity="0.2"/>
</linearGradient>
<linearGradient id="paint122_linear_52_2145" x1="14.2314" y1="301.678" x2="93.468" y2="301.678" gradientUnits="userSpaceOnUse">
<stop stop-color="#CEBB8B"/>
<stop offset="1" stop-color="#CEBB8B" stop-opacity="0.2"/>
</linearGradient>
<linearGradient id="paint123_linear_52_2145" x1="14.2314" y1="301.678" x2="93.468" y2="301.678" gradientUnits="userSpaceOnUse">
<stop stop-color="#CEBB8B"/>
<stop offset="1" stop-color="#CEBB8B" stop-opacity="0.2"/>
</linearGradient>
<linearGradient id="paint124_linear_52_2145" x1="14.2314" y1="301.678" x2="93.468" y2="301.678" gradientUnits="userSpaceOnUse">
<stop stop-color="#CEBB8B"/>
<stop offset="1" stop-color="#CEBB8B" stop-opacity="0.2"/>
</linearGradient>
<linearGradient id="paint125_linear_52_2145" x1="14.2314" y1="301.678" x2="93.468" y2="301.678" gradientUnits="userSpaceOnUse">
<stop stop-color="#CEBB8B"/>
<stop offset="1" stop-color="#CEBB8B" stop-opacity="0.2"/>
</linearGradient>
<linearGradient id="paint126_linear_52_2145" x1="14.2314" y1="301.678" x2="93.468" y2="301.678" gradientUnits="userSpaceOnUse">
<stop stop-color="#CEBB8B"/>
<stop offset="1" stop-color="#CEBB8B" stop-opacity="0.2"/>
</linearGradient>
<linearGradient id="paint127_linear_52_2145" x1="14.2314" y1="301.678" x2="93.468" y2="301.678" gradientUnits="userSpaceOnUse">
<stop stop-color="#CEBB8B"/>
<stop offset="1" stop-color="#CEBB8B" stop-opacity="0.2"/>
</linearGradient>
<linearGradient id="paint128_linear_52_2145" x1="14.2314" y1="301.678" x2="93.468" y2="301.678" gradientUnits="userSpaceOnUse">
<stop stop-color="#CEBB8B"/>
<stop offset="1" stop-color="#CEBB8B" stop-opacity="0.2"/>
</linearGradient>
<linearGradient id="paint129_linear_52_2145" x1="14.2314" y1="301.678" x2="93.468" y2="301.678" gradientUnits="userSpaceOnUse">
<stop stop-color="#CEBB8B"/>
<stop offset="1" stop-color="#CEBB8B" stop-opacity="0.2"/>
</linearGradient>
<linearGradient id="paint130_linear_52_2145" x1="14.2314" y1="301.678" x2="93.468" y2="301.678" gradientUnits="userSpaceOnUse">
<stop stop-color="#CEBB8B"/>
<stop offset="1" stop-color="#CEBB8B" stop-opacity="0.2"/>
</linearGradient>
<linearGradient id="paint131_linear_52_2145" x1="14.2314" y1="301.678" x2="93.468" y2="301.678" gradientUnits="userSpaceOnUse">
<stop stop-color="#CEBB8B"/>
<stop offset="1" stop-color="#CEBB8B" stop-opacity="0.2"/>
</linearGradient>
<linearGradient id="paint132_linear_52_2145" x1="14.2314" y1="301.678" x2="93.468" y2="301.678" gradientUnits="userSpaceOnUse">
<stop stop-color="#CEBB8B"/>
<stop offset="1" stop-color="#CEBB8B" stop-opacity="0.2"/>
</linearGradient>
<linearGradient id="paint133_linear_52_2145" x1="14.2314" y1="301.678" x2="93.468" y2="301.678" gradientUnits="userSpaceOnUse">
<stop stop-color="#CEBB8B"/>
<stop offset="1" stop-color="#CEBB8B" stop-opacity="0.2"/>
</linearGradient>
<linearGradient id="paint134_linear_52_2145" x1="14.2314" y1="301.678" x2="93.468" y2="301.678" gradientUnits="userSpaceOnUse">
<stop stop-color="#CEBB8B"/>
<stop offset="1" stop-color="#CEBB8B" stop-opacity="0.2"/>
</linearGradient>
<linearGradient id="paint135_linear_52_2145" x1="14.2314" y1="301.678" x2="93.468" y2="301.678" gradientUnits="userSpaceOnUse">
<stop stop-color="#CEBB8B"/>
<stop offset="1" stop-color="#CEBB8B" stop-opacity="0.2"/>
</linearGradient>
<linearGradient id="paint136_linear_52_2145" x1="14.2314" y1="301.678" x2="93.468" y2="301.678" gradientUnits="userSpaceOnUse">
<stop stop-color="#CEBB8B"/>
<stop offset="1" stop-color="#CEBB8B" stop-opacity="0.2"/>
</linearGradient>
<linearGradient id="paint137_linear_52_2145" x1="14.2314" y1="301.678" x2="93.468" y2="301.678" gradientUnits="userSpaceOnUse">
<stop stop-color="#CEBB8B"/>
<stop offset="1" stop-color="#CEBB8B" stop-opacity="0.2"/>
</linearGradient>
<linearGradient id="paint138_linear_52_2145" x1="14.2314" y1="301.678" x2="93.468" y2="301.678" gradientUnits="userSpaceOnUse">
<stop stop-color="#CEBB8B"/>
<stop offset="1" stop-color="#CEBB8B" stop-opacity="0.2"/>
</linearGradient>
<linearGradient id="paint139_linear_52_2145" x1="14.2314" y1="301.678" x2="93.468" y2="301.678" gradientUnits="userSpaceOnUse">
<stop stop-color="#CEBB8B"/>
<stop offset="1" stop-color="#CEBB8B" stop-opacity="0.2"/>
</linearGradient>
<linearGradient id="paint140_linear_52_2145" x1="14.2314" y1="301.678" x2="93.468" y2="301.678" gradientUnits="userSpaceOnUse">
<stop stop-color="#CEBB8B"/>
<stop offset="1" stop-color="#CEBB8B" stop-opacity="0.2"/>
</linearGradient>
<linearGradient id="paint141_linear_52_2145" x1="14.2314" y1="301.678" x2="93.468" y2="301.678" gradientUnits="userSpaceOnUse">
<stop stop-color="#CEBB8B"/>
<stop offset="1" stop-color="#CEBB8B" stop-opacity="0.2"/>
</linearGradient>
<linearGradient id="paint142_linear_52_2145" x1="14.2314" y1="301.678" x2="93.468" y2="301.678" gradientUnits="userSpaceOnUse">
<stop stop-color="#CEBB8B"/>
<stop offset="1" stop-color="#CEBB8B" stop-opacity="0.2"/>
</linearGradient>
<linearGradient id="paint143_linear_52_2145" x1="14.2314" y1="301.678" x2="93.468" y2="301.678" gradientUnits="userSpaceOnUse">
<stop stop-color="#CEBB8B"/>
<stop offset="1" stop-color="#CEBB8B" stop-opacity="0.2"/>
</linearGradient>
<linearGradient id="paint144_linear_52_2145" x1="14.2314" y1="301.678" x2="93.468" y2="301.678" gradientUnits="userSpaceOnUse">
<stop stop-color="#CEBB8B"/>
<stop offset="1" stop-color="#CEBB8B" stop-opacity="0.2"/>
</linearGradient>
<linearGradient id="paint145_linear_52_2145" x1="14.2314" y1="301.678" x2="93.468" y2="301.678" gradientUnits="userSpaceOnUse">
<stop stop-color="#CEBB8B"/>
<stop offset="1" stop-color="#CEBB8B" stop-opacity="0.2"/>
</linearGradient>
<linearGradient id="paint146_linear_52_2145" x1="14.2314" y1="301.678" x2="93.468" y2="301.678" gradientUnits="userSpaceOnUse">
<stop stop-color="#CEBB8B"/>
<stop offset="1" stop-color="#CEBB8B" stop-opacity="0.2"/>
</linearGradient>
<linearGradient id="paint147_linear_52_2145" x1="14.2314" y1="301.678" x2="93.468" y2="301.678" gradientUnits="userSpaceOnUse">
<stop stop-color="#CEBB8B"/>
<stop offset="1" stop-color="#CEBB8B" stop-opacity="0.2"/>
</linearGradient>
<linearGradient id="paint148_linear_52_2145" x1="14.2314" y1="301.678" x2="93.468" y2="301.678" gradientUnits="userSpaceOnUse">
<stop stop-color="#CEBB8B"/>
<stop offset="1" stop-color="#CEBB8B" stop-opacity="0.2"/>
</linearGradient>
<linearGradient id="paint149_linear_52_2145" x1="14.2314" y1="301.678" x2="93.468" y2="301.678" gradientUnits="userSpaceOnUse">
<stop stop-color="#CEBB8B"/>
<stop offset="1" stop-color="#CEBB8B" stop-opacity="0.2"/>
</linearGradient>
<linearGradient id="paint150_linear_52_2145" x1="14.2314" y1="301.678" x2="93.468" y2="301.678" gradientUnits="userSpaceOnUse">
<stop stop-color="#CEBB8B"/>
<stop offset="1" stop-color="#CEBB8B" stop-opacity="0.2"/>
</linearGradient>
<linearGradient id="paint151_linear_52_2145" x1="14.2314" y1="301.678" x2="93.468" y2="301.678" gradientUnits="userSpaceOnUse">
<stop stop-color="#CEBB8B"/>
<stop offset="1" stop-color="#CEBB8B" stop-opacity="0.2"/>
</linearGradient>
<linearGradient id="paint152_linear_52_2145" x1="14.2314" y1="301.678" x2="93.468" y2="301.678" gradientUnits="userSpaceOnUse">
<stop stop-color="#CEBB8B"/>
<stop offset="1" stop-color="#CEBB8B" stop-opacity="0.2"/>
</linearGradient>
<linearGradient id="paint153_linear_52_2145" x1="14.2314" y1="301.678" x2="93.468" y2="301.678" gradientUnits="userSpaceOnUse">
<stop stop-color="#CEBB8B"/>
<stop offset="1" stop-color="#CEBB8B" stop-opacity="0.2"/>
</linearGradient>
<linearGradient id="paint154_linear_52_2145" x1="14.2314" y1="301.678" x2="93.468" y2="301.678" gradientUnits="userSpaceOnUse">
<stop stop-color="#CEBB8B"/>
<stop offset="1" stop-color="#CEBB8B" stop-opacity="0.2"/>
</linearGradient>
<linearGradient id="paint155_linear_52_2145" x1="14.2314" y1="301.678" x2="93.468" y2="301.678" gradientUnits="userSpaceOnUse">
<stop stop-color="#CEBB8B"/>
<stop offset="1" stop-color="#CEBB8B" stop-opacity="0.2"/>
</linearGradient>
<linearGradient id="paint156_linear_52_2145" x1="14.2314" y1="301.678" x2="93.468" y2="301.678" gradientUnits="userSpaceOnUse">
<stop stop-color="#CEBB8B"/>
<stop offset="1" stop-color="#CEBB8B" stop-opacity="0.2"/>
</linearGradient>
<linearGradient id="paint157_linear_52_2145" x1="14.2314" y1="301.678" x2="93.468" y2="301.678" gradientUnits="userSpaceOnUse">
<stop stop-color="#CEBB8B"/>
<stop offset="1" stop-color="#CEBB8B" stop-opacity="0.2"/>
</linearGradient>
<linearGradient id="paint158_linear_52_2145" x1="14.2314" y1="301.678" x2="93.468" y2="301.678" gradientUnits="userSpaceOnUse">
<stop stop-color="#CEBB8B"/>
<stop offset="1" stop-color="#CEBB8B" stop-opacity="0.2"/>
</linearGradient>
<linearGradient id="paint159_linear_52_2145" x1="14.2314" y1="301.678" x2="93.468" y2="301.678" gradientUnits="userSpaceOnUse">
<stop stop-color="#CEBB8B"/>
<stop offset="1" stop-color="#CEBB8B" stop-opacity="0.2"/>
</linearGradient>
<linearGradient id="paint160_linear_52_2145" x1="14.2314" y1="301.678" x2="93.468" y2="301.678" gradientUnits="userSpaceOnUse">
<stop stop-color="#CEBB8B"/>
<stop offset="1" stop-color="#CEBB8B" stop-opacity="0.2"/>
</linearGradient>
<linearGradient id="paint161_linear_52_2145" x1="14.2314" y1="301.678" x2="93.468" y2="301.678" gradientUnits="userSpaceOnUse">
<stop stop-color="#CEBB8B"/>
<stop offset="1" stop-color="#CEBB8B" stop-opacity="0.2"/>
</linearGradient>
<linearGradient id="paint162_linear_52_2145" x1="14.2314" y1="301.678" x2="93.468" y2="301.678" gradientUnits="userSpaceOnUse">
<stop stop-color="#CEBB8B"/>
<stop offset="1" stop-color="#CEBB8B" stop-opacity="0.2"/>
</linearGradient>
<linearGradient id="paint163_linear_52_2145" x1="14.2314" y1="301.678" x2="93.468" y2="301.678" gradientUnits="userSpaceOnUse">
<stop stop-color="#CEBB8B"/>
<stop offset="1" stop-color="#CEBB8B" stop-opacity="0.2"/>
</linearGradient>
<linearGradient id="paint164_linear_52_2145" x1="14.2314" y1="301.678" x2="93.468" y2="301.678" gradientUnits="userSpaceOnUse">
<stop stop-color="#CEBB8B"/>
<stop offset="1" stop-color="#CEBB8B" stop-opacity="0.2"/>
</linearGradient>
<linearGradient id="paint165_linear_52_2145" x1="14.2314" y1="301.678" x2="93.468" y2="301.678" gradientUnits="userSpaceOnUse">
<stop stop-color="#CEBB8B"/>
<stop offset="1" stop-color="#CEBB8B" stop-opacity="0.2"/>
</linearGradient>
<linearGradient id="paint166_linear_52_2145" x1="14.2314" y1="301.678" x2="93.468" y2="301.678" gradientUnits="userSpaceOnUse">
<stop stop-color="#CEBB8B"/>
<stop offset="1" stop-color="#CEBB8B" stop-opacity="0.2"/>
</linearGradient>
<linearGradient id="paint167_linear_52_2145" x1="14.2314" y1="301.678" x2="93.468" y2="301.678" gradientUnits="userSpaceOnUse">
<stop stop-color="#CEBB8B"/>
<stop offset="1" stop-color="#CEBB8B" stop-opacity="0.2"/>
</linearGradient>
<linearGradient id="paint168_linear_52_2145" x1="14.2314" y1="301.678" x2="93.468" y2="301.678" gradientUnits="userSpaceOnUse">
<stop stop-color="#CEBB8B"/>
<stop offset="1" stop-color="#CEBB8B" stop-opacity="0.2"/>
</linearGradient>
<linearGradient id="paint169_linear_52_2145" x1="14.2314" y1="301.678" x2="93.468" y2="301.678" gradientUnits="userSpaceOnUse">
<stop stop-color="#CEBB8B"/>
<stop offset="1" stop-color="#CEBB8B" stop-opacity="0.2"/>
</linearGradient>
<linearGradient id="paint170_linear_52_2145" x1="14.2314" y1="301.678" x2="93.468" y2="301.678" gradientUnits="userSpaceOnUse">
<stop stop-color="#CEBB8B"/>
<stop offset="1" stop-color="#CEBB8B" stop-opacity="0.2"/>
</linearGradient>
<linearGradient id="paint171_linear_52_2145" x1="43" y1="188.625" x2="372.936" y2="188.625" gradientUnits="userSpaceOnUse">
<stop stop-color="#CEBB8B"/>
<stop offset="1" stop-color="#CEBB8B" stop-opacity="0.2"/>
</linearGradient>
<linearGradient id="paint172_linear_52_2145" x1="354.919" y1="202.256" x2="379.069" y2="189.103" gradientUnits="userSpaceOnUse">
<stop stop-color="#CEBB8B"/>
<stop offset="1" stop-color="#CEBB8B" stop-opacity="0.2"/>
</linearGradient>
<linearGradient id="paint173_linear_52_2145" x1="14.2314" y1="81.5635" x2="26.5855" y2="81.5635" gradientUnits="userSpaceOnUse">
<stop stop-color="#CEBB8B"/>
<stop offset="1" stop-color="#CEBB8B" stop-opacity="0.2"/>
</linearGradient>
<linearGradient id="paint174_linear_52_2145" x1="258.191" y1="17.2499" x2="270.697" y2="9.48743" gradientUnits="userSpaceOnUse">
<stop stop-color="#CEBB8B"/>
<stop offset="1" stop-color="#CEBB8B" stop-opacity="0.2"/>
</linearGradient>
<linearGradient id="paint175_linear_52_2145" x1="17.5536" y1="164.737" x2="31.5693" y2="159.347" gradientUnits="userSpaceOnUse">
<stop stop-color="#CEBB8B"/>
<stop offset="1" stop-color="#CEBB8B" stop-opacity="0.2"/>
</linearGradient>
<linearGradient id="paint176_linear_52_2145" x1="402.131" y1="106.847" x2="417.59" y2="85.7457" gradientUnits="userSpaceOnUse">
<stop stop-color="#CEBB8B"/>
<stop offset="1" stop-color="#CEBB8B" stop-opacity="0.2"/>
</linearGradient>
</defs>
</svg>
