<svg width="101" height="100" viewBox="0 0 101 100" fill="none" xmlns="http://www.w3.org/2000/svg">
<g clip-path="url(#clip0_27_3502)">
<path d="M98.9178 49.5312H68.3076C67.9968 49.5312 67.6987 49.4078 67.479 49.188C67.2592 48.9682 67.1357 48.6702 67.1357 48.3594C67.1357 48.0486 67.2592 47.7505 67.479 47.5307C67.6987 47.311 67.9968 47.1875 68.3076 47.1875H98.9178C99.2286 47.1875 99.5266 47.311 99.7464 47.5307C99.9662 47.7505 100.09 48.0486 100.09 48.3594C100.09 48.6702 99.9662 48.9682 99.7464 49.188C99.5266 49.4078 99.2286 49.5312 98.9178 49.5312Z" fill="#6B8EAE"/>
<path d="M31.8716 49.5312H1.26147C0.950674 49.5312 0.652603 49.4078 0.432834 49.188C0.213065 48.9682 0.0895996 48.6702 0.0895996 48.3594C0.0895996 48.0486 0.213065 47.7505 0.432834 47.5307C0.652603 47.311 0.950674 47.1875 1.26147 47.1875H31.8716C32.1824 47.1875 32.4805 47.311 32.7003 47.5307C32.92 47.7505 33.0435 48.0486 33.0435 48.3594C33.0435 48.6702 32.92 48.9682 32.7003 49.188C32.4805 49.4078 32.1824 49.5312 31.8716 49.5312Z" fill="#6B8EAE"/>
<path d="M98.9177 62.0293H1.26147C0.950674 62.0293 0.652603 61.9058 0.432834 61.6861C0.213065 61.4663 0.0895996 61.1682 0.0895996 60.8574C0.0895996 60.5466 0.213065 60.2485 0.432834 60.0288C0.652603 59.809 0.950674 59.6855 1.26147 59.6855H98.9177C99.2285 59.6855 99.5266 59.809 99.7464 60.0288C99.9661 60.2485 100.09 60.5466 100.09 60.8574C100.09 61.1682 99.9661 61.4663 99.7464 61.6861C99.5266 61.9058 99.2285 62.0293 98.9177 62.0293Z" fill="#6B8EAE"/>
<path d="M12.5708 78.6582C11.6437 78.6582 10.7374 78.3833 9.96657 77.8682C9.19571 77.3531 8.5949 76.6211 8.24012 75.7645C7.88533 74.908 7.7925 73.9655 7.97337 73.0562C8.15424 72.1469 8.60068 71.3117 9.25624 70.6561C9.9118 70.0006 10.747 69.5541 11.6563 69.3733C12.5656 69.1924 13.5081 69.2852 14.3646 69.64C15.2212 69.9948 15.9532 70.5956 16.4683 71.3665C16.9834 72.1373 17.2583 73.0436 17.2583 73.9707C17.2572 75.2136 16.7629 76.4052 15.8841 77.284C15.0053 78.1628 13.8137 78.6571 12.5708 78.6582ZM12.5708 71.6293C12.1073 71.6293 11.6541 71.7668 11.2687 72.0243C10.8833 72.2818 10.5829 72.6479 10.4055 73.0761C10.2281 73.5044 10.1817 73.9756 10.2721 74.4303C10.3625 74.8849 10.5857 75.3026 10.9135 75.6303C11.2413 75.9581 11.6589 76.1813 12.1136 76.2718C12.5682 76.3622 13.0395 76.3158 13.4677 76.1384C13.896 75.961 14.262 75.6606 14.5196 75.2752C14.7771 74.8897 14.9146 74.4366 14.9146 73.973C14.9146 73.3514 14.6676 72.7553 14.2281 72.3158C13.7885 71.8762 13.1924 71.6293 12.5708 71.6293Z" fill="#6B8EAE"/>
<path d="M25.0896 90.5437C24.1625 90.5437 23.2562 90.2688 22.4854 89.7537C21.7145 89.2386 21.1137 88.5066 20.7589 87.65C20.4041 86.7935 20.3113 85.851 20.4922 84.9417C20.673 84.0324 21.1195 83.1972 21.775 82.5416C22.4306 81.8861 23.2658 81.4396 24.1751 81.2588C25.0844 81.0779 26.0269 81.1707 26.8834 81.5255C27.74 81.8803 28.472 82.4811 28.9871 83.252C29.5022 84.0228 29.7771 84.9291 29.7771 85.8562C29.776 87.0991 29.2817 88.2907 28.4029 89.1695C27.5241 90.0483 26.3325 90.5426 25.0896 90.5437ZM25.0896 83.5125C24.6261 83.5125 24.1729 83.6499 23.7875 83.9074C23.4021 84.165 23.1017 84.531 22.9243 84.9593C22.7469 85.3875 22.7005 85.8588 22.7909 86.3134C22.8813 86.7681 23.1045 87.1857 23.4323 87.5135C23.7601 87.8413 24.1777 88.0645 24.6324 88.1549C25.087 88.2454 25.5583 88.1989 25.9865 88.0215C26.4148 87.8442 26.7808 87.5437 27.0384 87.1583C27.2959 86.7729 27.4334 86.3198 27.4334 85.8562C27.4325 85.2351 27.1852 84.6398 26.7458 84.2009C26.3063 83.7621 25.7107 83.5156 25.0896 83.5156V83.5125Z" fill="#6B8EAE"/>
<path d="M50.0896 90.5437C49.1625 90.5437 48.2562 90.2688 47.4854 89.7537C46.7145 89.2386 46.1137 88.5066 45.7589 87.65C45.4041 86.7935 45.3113 85.851 45.4922 84.9417C45.673 84.0324 46.1195 83.1972 46.775 82.5416C47.4306 81.8861 48.2658 81.4396 49.1751 81.2588C50.0844 81.0779 51.0269 81.1707 51.8834 81.5255C52.74 81.8803 53.472 82.4811 53.9871 83.252C54.5022 84.0228 54.7771 84.9291 54.7771 85.8562C54.776 87.0991 54.2817 88.2907 53.4029 89.1695C52.5241 90.0483 51.3325 90.5426 50.0896 90.5437ZM50.0896 83.5125C49.6261 83.5125 49.1729 83.6499 48.7875 83.9074C48.4021 84.165 48.1017 84.531 47.9243 84.9593C47.7469 85.3875 47.7005 85.8588 47.7909 86.3134C47.8813 86.7681 48.1045 87.1857 48.4323 87.5135C48.7601 87.8413 49.1777 88.0645 49.6324 88.1549C50.087 88.2454 50.5583 88.1989 50.9865 88.0215C51.4148 87.8442 51.7808 87.5437 52.0384 87.1583C52.2959 86.7729 52.4334 86.3198 52.4334 85.8562C52.4325 85.2351 52.1852 84.6398 51.7458 84.2009C51.3063 83.7621 50.7107 83.5156 50.0896 83.5156V83.5125Z" fill="#6B8EAE"/>
<path d="M75.0896 90.5437C74.1625 90.5437 73.2562 90.2688 72.4854 89.7537C71.7145 89.2386 71.1137 88.5066 70.7589 87.65C70.4041 86.7935 70.3113 85.851 70.4922 84.9417C70.673 84.0324 71.1195 83.1972 71.775 82.5416C72.4306 81.8861 73.2658 81.4396 74.1751 81.2588C75.0844 81.0779 76.0269 81.1707 76.8834 81.5255C77.74 81.8803 78.472 82.4811 78.9871 83.252C79.5022 84.0228 79.7771 84.9291 79.7771 85.8562C79.776 87.0991 79.2817 88.2907 78.4029 89.1695C77.5241 90.0483 76.3325 90.5426 75.0896 90.5437ZM75.0896 83.5125C74.6261 83.5125 74.1729 83.6499 73.7875 83.9074C73.4021 84.165 73.1017 84.531 72.9243 84.9593C72.7469 85.3875 72.7005 85.8588 72.7909 86.3134C72.8813 86.7681 73.1045 87.1857 73.4323 87.5135C73.7601 87.8413 74.1777 88.0645 74.6324 88.1549C75.087 88.2454 75.5582 88.1989 75.9865 88.0215C76.4148 87.8442 76.7808 87.5437 77.0384 87.1583C77.2959 86.7729 77.4334 86.3198 77.4334 85.8562C77.4325 85.2351 77.1852 84.6398 76.7458 84.2009C76.3063 83.7621 75.7107 83.5156 75.0896 83.5156V83.5125Z" fill="#6B8EAE"/>
<path d="M37.5896 78.6582C36.6625 78.6582 35.7562 78.3833 34.9854 77.8682C34.2145 77.3531 33.6137 76.6211 33.2589 75.7645C32.9041 74.908 32.8113 73.9655 32.9922 73.0562C33.173 72.1469 33.6195 71.3117 34.275 70.6561C34.9306 70.0006 35.7658 69.5541 36.6751 69.3733C37.5844 69.1924 38.5269 69.2852 39.3834 69.64C40.24 69.9948 40.972 70.5956 41.4871 71.3665C42.0022 72.1373 42.2771 73.0436 42.2771 73.9707C42.276 75.2136 41.7817 76.4052 40.9029 77.284C40.0241 78.1628 38.8325 78.6571 37.5896 78.6582ZM37.5896 71.6293C37.1261 71.6293 36.6729 71.7668 36.2875 72.0243C35.9021 72.2818 35.6017 72.6479 35.4243 73.0761C35.2469 73.5044 35.2005 73.9756 35.2909 74.4303C35.3813 74.8849 35.6045 75.3026 35.9323 75.6303C36.2601 75.9581 36.6777 76.1813 37.1324 76.2718C37.587 76.3622 38.0583 76.3158 38.4865 76.1384C38.9148 75.961 39.2808 75.6606 39.5384 75.2752C39.7959 74.8897 39.9334 74.4366 39.9334 73.973C39.9334 73.3514 39.6864 72.7553 39.2469 72.3158C38.8073 71.8762 38.2112 71.6293 37.5896 71.6293Z" fill="#6B8EAE"/>
<path d="M62.6084 78.6582C61.6813 78.6582 60.775 78.3833 60.0042 77.8682C59.2333 77.3531 58.6325 76.6211 58.2777 75.7645C57.9229 74.908 57.8301 73.9655 58.011 73.0562C58.1918 72.1469 58.6383 71.3117 59.2938 70.6561C59.9494 70.0006 60.7846 69.5541 61.6939 69.3733C62.6032 69.1924 63.5457 69.2852 64.4022 69.64C65.2588 69.9948 65.9908 70.5956 66.5059 71.3665C67.021 72.1373 67.2959 73.0436 67.2959 73.9707C67.2948 75.2136 66.8005 76.4052 65.9217 77.284C65.0429 78.1628 63.8513 78.6571 62.6084 78.6582ZM62.6084 71.6293C62.1449 71.6293 61.6917 71.7668 61.3063 72.0243C60.9209 72.2818 60.6205 72.6479 60.4431 73.0761C60.2657 73.5044 60.2192 73.9756 60.3097 74.4303C60.4001 74.8849 60.6233 75.3026 60.9511 75.6303C61.2789 75.9581 61.6965 76.1813 62.1512 76.2718C62.6058 76.3622 63.0771 76.3158 63.5053 76.1384C63.9336 75.961 64.2996 75.6606 64.5572 75.2752C64.8147 74.8897 64.9522 74.4366 64.9522 73.973C64.9522 73.3514 64.7052 72.7553 64.2657 72.3158C63.8261 71.8762 63.23 71.6293 62.6084 71.6293Z" fill="#6B8EAE"/>
<path d="M87.6287 78.6582C86.7016 78.6582 85.7953 78.3833 85.0244 77.8682C84.2536 77.3531 83.6528 76.6211 83.298 75.7645C82.9432 74.908 82.8504 73.9655 83.0312 73.0562C83.2121 72.1469 83.6585 71.3117 84.3141 70.6561C84.9697 70.0006 85.8049 69.5541 86.7142 69.3733C87.6235 69.1924 88.566 69.2852 89.4225 69.64C90.279 69.9948 91.0111 70.5956 91.5262 71.3665C92.0412 72.1373 92.3162 73.0436 92.3162 73.9707C92.315 75.2136 91.8208 76.4052 90.942 77.284C90.0631 78.1628 88.8715 78.6571 87.6287 78.6582ZM87.6287 71.6293C87.1651 71.6293 86.712 71.7668 86.3265 72.0243C85.9411 72.2818 85.6407 72.6479 85.4633 73.0761C85.2859 73.5044 85.2395 73.9756 85.3299 74.4303C85.4204 74.8849 85.6436 75.3026 85.9714 75.6303C86.2992 75.9581 86.7168 76.1813 87.1714 76.2718C87.6261 76.3622 88.0973 76.3158 88.5256 76.1384C88.9538 75.961 89.3199 75.6606 89.5774 75.2752C89.835 74.8897 89.9724 74.4366 89.9724 73.973C89.9724 73.3514 89.7255 72.7553 89.2859 72.3158C88.8464 71.8762 88.2503 71.6293 87.6287 71.6293Z" fill="#6B8EAE"/>
<path d="M50.0896 55.1703C46.2577 55.1662 42.5839 53.6421 39.8743 50.9325C37.1647 48.2229 35.6406 44.5491 35.6365 40.7172C35.6365 33.1535 48.5271 10.9766 49.0775 10.0391C49.1807 9.86221 49.3285 9.71548 49.506 9.61351C49.6836 9.51154 49.8848 9.45789 50.0896 9.45789C50.2944 9.45789 50.4956 9.51154 50.6732 9.61351C50.8507 9.71548 50.9985 9.86221 51.1017 10.0391C51.6521 10.9766 64.5427 33.1535 64.5427 40.718C64.5384 44.5498 63.0142 48.2234 60.3047 50.9328C57.5951 53.6422 53.9214 55.1662 50.0896 55.1703ZM50.0896 12.9805C45.9556 20.2734 37.9802 35.4371 37.9802 40.718C37.9802 43.9296 39.256 47.0096 41.527 49.2806C43.7979 51.5515 46.878 52.8273 50.0896 52.8273C53.3012 52.8273 56.3813 51.5515 58.6522 49.2806C60.9232 47.0096 62.199 43.9296 62.199 40.718C62.199 35.4355 54.2236 20.2734 50.0896 12.9805Z" fill="#6B8EAE"/>
<path d="M53.1896 48.9356C52.9373 48.9358 52.6916 48.8546 52.4891 48.704C52.2867 48.5535 52.1382 48.3415 52.0658 48.0998C51.9935 47.8581 52.0011 47.5995 52.0875 47.3624C52.1739 47.1253 52.3345 46.9225 52.5454 46.784C53.8013 45.9636 54.8325 44.8426 55.5454 43.5228C56.2584 42.2029 56.6306 40.7259 56.6282 39.2258C56.6282 38.915 56.7517 38.617 56.9715 38.3972C57.1912 38.1774 57.4893 38.054 57.8001 38.054C58.1109 38.054 58.409 38.1774 58.6288 38.3972C58.8485 38.617 58.972 38.915 58.972 39.2258C58.974 41.1145 58.505 42.9739 57.6075 44.6358C56.71 46.2976 55.4123 47.7094 53.8318 48.7434C53.6411 48.8689 53.4178 48.9357 53.1896 48.9356Z" fill="#6B8EAE"/>
</g>
<defs>
<clipPath id="clip0_27_3502">
<rect width="100" height="100" fill="white" transform="translate(0.0895996)"/>
</clipPath>
</defs>
</svg>
