<svg width="65" height="65" viewBox="0 0 65 65" fill="none" xmlns="http://www.w3.org/2000/svg">
<path d="M64.6765 32.0732C64.6765 26.0351 62.9681 20.1202 59.7488 15.0118C56.5294 9.9035 51.9305 5.81026 46.4833 3.20503C41.0361 0.599806 34.9629 -0.411087 28.9655 0.289152C22.9681 0.98939 17.2912 3.37218 12.5907 7.16222C7.89015 10.9523 4.35787 15.9949 2.40193 21.7075C0.445985 27.42 0.14621 33.5694 1.53724 39.4452C2.92826 45.3209 5.95333 50.6832 10.2629 54.9125C14.5725 59.1417 19.9907 62.0654 25.8916 63.3457L26.1066 62.3545C20.3928 61.1148 15.1463 58.2838 10.9733 54.1886C6.80035 50.0933 3.87117 44.901 2.52424 39.2115C1.1773 33.522 1.46757 27.5675 3.36152 22.036C5.25546 16.5045 8.67579 11.6217 13.2273 7.95181C17.7788 4.2819 23.2758 1.97463 29.0831 1.29659C34.8904 0.618545 40.7711 1.5974 46.0456 4.12005C51.3202 6.6427 55.7734 10.6062 58.8907 15.5526C62.008 20.499 63.6622 26.2265 63.6622 32.0732H64.6765Z" fill="#D9D9D9"/>
<mask id="path-2-inside-1_18_2914" fill="white">
<path d="M32.6765 0.575527C32.6765 0.298123 32.9014 0.0728302 33.1788 0.0771839C37.8576 0.150625 42.4656 1.24942 46.6771 3.29852C51.0391 5.4209 54.8615 8.50724 57.8554 12.3242C60.8492 16.1411 62.936 20.5888 63.9581 25.3309C64.9802 30.0729 64.9108 34.9853 63.7552 39.6967C62.5995 44.408 60.3879 48.7949 57.2874 52.5257C54.1869 56.2566 50.2788 59.2337 45.8586 61.232C41.4383 63.2303 36.6215 64.1975 31.7725 64.0605C27.0909 63.9282 22.4975 62.7699 18.3157 60.6699C18.0678 60.5454 17.9727 60.2416 18.1011 59.9957C18.2295 59.7498 18.5327 59.6549 18.7807 59.7792C22.8273 61.8088 27.2715 62.9283 31.8009 63.0563C36.4977 63.189 41.1632 62.2522 45.4447 60.3166C49.7262 58.3811 53.5117 55.4974 56.5148 51.8837C59.5179 48.27 61.6602 44.0208 62.7795 39.4573C63.8989 34.8939 63.9661 30.1357 62.9761 25.5425C61.9861 20.9493 59.9648 16.6413 57.0649 12.9442C54.1651 9.24704 50.4627 6.2576 46.2375 4.20184C42.163 2.21936 37.7053 1.15524 33.1788 1.08188C32.9014 1.07739 32.6765 0.852932 32.6765 0.575527Z"/>
</mask>
<path d="M32.6765 0.575527C32.6765 0.298123 32.9014 0.0728302 33.1788 0.0771839C37.8576 0.150625 42.4656 1.24942 46.6771 3.29852C51.0391 5.4209 54.8615 8.50724 57.8554 12.3242C60.8492 16.1411 62.936 20.5888 63.9581 25.3309C64.9802 30.0729 64.9108 34.9853 63.7552 39.6967C62.5995 44.408 60.3879 48.7949 57.2874 52.5257C54.1869 56.2566 50.2788 59.2337 45.8586 61.232C41.4383 63.2303 36.6215 64.1975 31.7725 64.0605C27.0909 63.9282 22.4975 62.7699 18.3157 60.6699C18.0678 60.5454 17.9727 60.2416 18.1011 59.9957C18.2295 59.7498 18.5327 59.6549 18.7807 59.7792C22.8273 61.8088 27.2715 62.9283 31.8009 63.0563C36.4977 63.189 41.1632 62.2522 45.4447 60.3166C49.7262 58.3811 53.5117 55.4974 56.5148 51.8837C59.5179 48.27 61.6602 44.0208 62.7795 39.4573C63.8989 34.8939 63.9661 30.1357 62.9761 25.5425C61.9861 20.9493 59.9648 16.6413 57.0649 12.9442C54.1651 9.24704 50.4627 6.2576 46.2375 4.20184C42.163 2.21936 37.7053 1.15524 33.1788 1.08188C32.9014 1.07739 32.6765 0.852932 32.6765 0.575527Z" stroke="#CEBB8B" stroke-width="2" stroke-linejoin="round" mask="url(#path-2-inside-1_18_2914)"/>
<g clip-path="url(#clip0_18_2914)">
<path d="M22.1765 30.1982C22.1765 27.0904 24.6937 24.5732 27.8015 24.5732H28.1765C29.0062 24.5732 29.6765 25.2436 29.6765 26.0732C29.6765 26.9029 29.0062 27.5732 28.1765 27.5732H27.8015C26.3531 27.5732 25.1765 28.7498 25.1765 30.1982V30.5732H28.1765C29.8312 30.5732 31.1765 31.9186 31.1765 33.5732V36.5732C31.1765 38.2279 29.8312 39.5732 28.1765 39.5732H25.1765C23.5218 39.5732 22.1765 38.2279 22.1765 36.5732V30.1982ZM34.1765 30.1982C34.1765 27.0904 36.6937 24.5732 39.8015 24.5732H40.1765C41.0062 24.5732 41.6765 25.2436 41.6765 26.0732C41.6765 26.9029 41.0062 27.5732 40.1765 27.5732H39.8015C38.3531 27.5732 37.1765 28.7498 37.1765 30.1982V30.5732H40.1765C41.8312 30.5732 43.1765 31.9186 43.1765 33.5732V36.5732C43.1765 38.2279 41.8312 39.5732 40.1765 39.5732H37.1765C35.5218 39.5732 34.1765 38.2279 34.1765 36.5732V30.1982Z" fill="#CEBB8B"/>
</g>
<defs>
<clipPath id="clip0_18_2914">
<rect width="21" height="24" fill="white" transform="translate(22.1765 20.0732)"/>
</clipPath>
</defs>
</svg>
