<svg width="1920" height="850" viewBox="0 0 1920 850" fill="none" xmlns="http://www.w3.org/2000/svg">
<rect width="960" height="850" fill="#6B8EAE"/>
<rect x="960" width="960" height="850" fill="white"/>
<rect x="97" y="116" width="1726" height="619" stroke="url(#paint0_linear_27_3542)" stroke-width="10"/>
<rect x="911.598" y="161.331" width="40" height="40" transform="rotate(53.773 911.598 161.331)" stroke="url(#paint1_linear_27_3542)" stroke-width="5"/>
<path d="M39.4138 702.192C39.4138 703.955 37.978 705.385 36.2069 705.385C34.4358 705.385 33 703.955 33 702.192C33 700.429 34.4358 699 36.2069 699C37.978 699 39.4138 700.429 39.4138 702.192Z" fill="url(#paint2_linear_27_3542)"/>
<path d="M49.0345 702.192C49.0345 703.955 47.5987 705.385 45.8276 705.385C44.0565 705.385 42.6207 703.955 42.6207 702.192C42.6207 700.429 44.0565 699 45.8276 699C47.5987 699 49.0345 700.429 49.0345 702.192Z" fill="url(#paint3_linear_27_3542)"/>
<path d="M58.6552 702.192C58.6552 703.955 57.2194 705.385 55.4483 705.385C53.6772 705.385 52.2414 703.955 52.2414 702.192C52.2414 700.429 53.6772 699 55.4483 699C57.2194 699 58.6552 700.429 58.6552 702.192Z" fill="url(#paint4_linear_27_3542)"/>
<path d="M68.2759 702.192C68.2759 703.955 66.8401 705.385 65.069 705.385C63.2978 705.385 61.8621 703.955 61.8621 702.192C61.8621 700.429 63.2978 699 65.069 699C66.8401 699 68.2759 700.429 68.2759 702.192Z" fill="url(#paint5_linear_27_3542)"/>
<path d="M77.8965 702.192C77.8965 703.955 76.4608 705.385 74.6897 705.385C72.9185 705.385 71.4828 703.955 71.4828 702.192C71.4828 700.429 72.9185 699 74.6897 699C76.4608 699 77.8965 700.429 77.8965 702.192Z" fill="url(#paint6_linear_27_3542)"/>
<path d="M87.5172 702.192C87.5172 703.955 86.0815 705.385 84.3103 705.385C82.5392 705.385 81.1034 703.955 81.1034 702.192C81.1034 700.429 82.5392 699 84.3103 699C86.0815 699 87.5172 700.429 87.5172 702.192Z" fill="url(#paint7_linear_27_3542)"/>
<path d="M97.1379 702.192C97.1379 703.955 95.7022 705.385 93.931 705.385C92.1599 705.385 90.7241 703.955 90.7241 702.192C90.7241 700.429 92.1599 699 93.931 699C95.7022 699 97.1379 700.429 97.1379 702.192Z" fill="url(#paint8_linear_27_3542)"/>
<path d="M106.759 702.192C106.759 703.955 105.323 705.385 103.552 705.385C101.781 705.385 100.345 703.955 100.345 702.192C100.345 700.429 101.781 699 103.552 699C105.323 699 106.759 700.429 106.759 702.192Z" fill="url(#paint9_linear_27_3542)"/>
<path d="M116.379 702.192C116.379 703.955 114.944 705.385 113.172 705.385C111.401 705.385 109.966 703.955 109.966 702.192C109.966 700.429 111.401 699 113.172 699C114.944 699 116.379 700.429 116.379 702.192Z" fill="url(#paint10_linear_27_3542)"/>
<path d="M126 702.192C126 703.955 124.564 705.385 122.793 705.385C121.022 705.385 119.586 703.955 119.586 702.192C119.586 700.429 121.022 699 122.793 699C124.564 699 126 700.429 126 702.192Z" fill="url(#paint11_linear_27_3542)"/>
<path d="M135.621 702.192C135.621 703.955 134.185 705.385 132.414 705.385C130.643 705.385 129.207 703.955 129.207 702.192C129.207 700.429 130.643 699 132.414 699C134.185 699 135.621 700.429 135.621 702.192Z" fill="url(#paint12_linear_27_3542)"/>
<path d="M145.241 702.192C145.241 703.955 143.806 705.385 142.034 705.385C140.263 705.385 138.828 703.955 138.828 702.192C138.828 700.429 140.263 699 142.034 699C143.806 699 145.241 700.429 145.241 702.192Z" fill="url(#paint13_linear_27_3542)"/>
<path d="M154.862 702.192C154.862 703.955 153.426 705.385 151.655 705.385C149.884 705.385 148.448 703.955 148.448 702.192C148.448 700.429 149.884 699 151.655 699C153.426 699 154.862 700.429 154.862 702.192Z" fill="url(#paint14_linear_27_3542)"/>
<path d="M164.483 702.192C164.483 703.955 163.047 705.385 161.276 705.385C159.505 705.385 158.069 703.955 158.069 702.192C158.069 700.429 159.505 699 161.276 699C163.047 699 164.483 700.429 164.483 702.192Z" fill="url(#paint15_linear_27_3542)"/>
<path d="M174.103 702.192C174.103 703.955 172.668 705.385 170.897 705.385C169.125 705.385 167.69 703.955 167.69 702.192C167.69 700.429 169.125 699 170.897 699C172.668 699 174.103 700.429 174.103 702.192Z" fill="url(#paint16_linear_27_3542)"/>
<path d="M183.724 702.192C183.724 703.955 182.288 705.385 180.517 705.385C178.746 705.385 177.31 703.955 177.31 702.192C177.31 700.429 178.746 699 180.517 699C182.288 699 183.724 700.429 183.724 702.192Z" fill="url(#paint17_linear_27_3542)"/>
<path d="M193.345 702.192C193.345 703.955 191.909 705.385 190.138 705.385C188.367 705.385 186.931 703.955 186.931 702.192C186.931 700.429 188.367 699 190.138 699C191.909 699 193.345 700.429 193.345 702.192Z" fill="url(#paint18_linear_27_3542)"/>
<path d="M202.966 702.192C202.966 703.955 201.53 705.385 199.759 705.385C197.988 705.385 196.552 703.955 196.552 702.192C196.552 700.429 197.988 699 199.759 699C201.53 699 202.966 700.429 202.966 702.192Z" fill="url(#paint19_linear_27_3542)"/>
<path d="M212.586 702.192C212.586 703.955 211.15 705.385 209.379 705.385C207.608 705.385 206.172 703.955 206.172 702.192C206.172 700.429 207.608 699 209.379 699C211.15 699 212.586 700.429 212.586 702.192Z" fill="url(#paint20_linear_27_3542)"/>
<path d="M45.8276 711.769C45.8276 713.532 44.3918 714.962 42.6207 714.962C40.8496 714.962 39.4138 713.532 39.4138 711.769C39.4138 710.006 40.8496 708.577 42.6207 708.577C44.3918 708.577 45.8276 710.006 45.8276 711.769Z" fill="url(#paint21_linear_27_3542)"/>
<path d="M55.4483 711.769C55.4483 713.532 54.0125 714.962 52.2414 714.962C50.4703 714.962 49.0345 713.532 49.0345 711.769C49.0345 710.006 50.4703 708.577 52.2414 708.577C54.0125 708.577 55.4483 710.006 55.4483 711.769Z" fill="url(#paint22_linear_27_3542)"/>
<path d="M65.069 711.769C65.069 713.532 63.6332 714.962 61.8621 714.962C60.0909 714.962 58.6552 713.532 58.6552 711.769C58.6552 710.006 60.0909 708.577 61.8621 708.577C63.6332 708.577 65.069 710.006 65.069 711.769Z" fill="url(#paint23_linear_27_3542)"/>
<path d="M74.6897 711.769C74.6897 713.532 73.2539 714.962 71.4828 714.962C69.7116 714.962 68.2759 713.532 68.2759 711.769C68.2759 710.006 69.7116 708.577 71.4828 708.577C73.2539 708.577 74.6897 710.006 74.6897 711.769Z" fill="url(#paint24_linear_27_3542)"/>
<path d="M84.3103 711.769C84.3103 713.532 82.8746 714.962 81.1034 714.962C79.3323 714.962 77.8965 713.532 77.8965 711.769C77.8965 710.006 79.3323 708.577 81.1034 708.577C82.8746 708.577 84.3103 710.006 84.3103 711.769Z" fill="url(#paint25_linear_27_3542)"/>
<path d="M93.931 711.769C93.931 713.532 92.4953 714.962 90.7241 714.962C88.953 714.962 87.5172 713.532 87.5172 711.769C87.5172 710.006 88.953 708.577 90.7241 708.577C92.4953 708.577 93.931 710.006 93.931 711.769Z" fill="url(#paint26_linear_27_3542)"/>
<path d="M103.552 711.769C103.552 713.532 102.116 714.962 100.345 714.962C98.5737 714.962 97.1379 713.532 97.1379 711.769C97.1379 710.006 98.5737 708.577 100.345 708.577C102.116 708.577 103.552 710.006 103.552 711.769Z" fill="url(#paint27_linear_27_3542)"/>
<path d="M113.172 711.769C113.172 713.532 111.737 714.962 109.966 714.962C108.194 714.962 106.759 713.532 106.759 711.769C106.759 710.006 108.194 708.577 109.966 708.577C111.737 708.577 113.172 710.006 113.172 711.769Z" fill="url(#paint28_linear_27_3542)"/>
<path d="M122.793 711.769C122.793 713.532 121.357 714.962 119.586 714.962C117.815 714.962 116.379 713.532 116.379 711.769C116.379 710.006 117.815 708.577 119.586 708.577C121.357 708.577 122.793 710.006 122.793 711.769Z" fill="url(#paint29_linear_27_3542)"/>
<path d="M132.414 711.769C132.414 713.532 130.978 714.962 129.207 714.962C127.436 714.962 126 713.532 126 711.769C126 710.006 127.436 708.577 129.207 708.577C130.978 708.577 132.414 710.006 132.414 711.769Z" fill="url(#paint30_linear_27_3542)"/>
<path d="M142.034 711.769C142.034 713.532 140.599 714.962 138.828 714.962C137.056 714.962 135.621 713.532 135.621 711.769C135.621 710.006 137.056 708.577 138.828 708.577C140.599 708.577 142.034 710.006 142.034 711.769Z" fill="url(#paint31_linear_27_3542)"/>
<path d="M151.655 711.769C151.655 713.532 150.219 714.962 148.448 714.962C146.677 714.962 145.241 713.532 145.241 711.769C145.241 710.006 146.677 708.577 148.448 708.577C150.219 708.577 151.655 710.006 151.655 711.769Z" fill="url(#paint32_linear_27_3542)"/>
<path d="M161.276 711.769C161.276 713.532 159.84 714.962 158.069 714.962C156.298 714.962 154.862 713.532 154.862 711.769C154.862 710.006 156.298 708.577 158.069 708.577C159.84 708.577 161.276 710.006 161.276 711.769Z" fill="url(#paint33_linear_27_3542)"/>
<path d="M170.897 711.769C170.897 713.532 169.461 714.962 167.69 714.962C165.919 714.962 164.483 713.532 164.483 711.769C164.483 710.006 165.919 708.577 167.69 708.577C169.461 708.577 170.897 710.006 170.897 711.769Z" fill="url(#paint34_linear_27_3542)"/>
<path d="M180.517 711.769C180.517 713.532 179.081 714.962 177.31 714.962C175.539 714.962 174.103 713.532 174.103 711.769C174.103 710.006 175.539 708.577 177.31 708.577C179.081 708.577 180.517 710.006 180.517 711.769Z" fill="url(#paint35_linear_27_3542)"/>
<path d="M190.138 711.769C190.138 713.532 188.702 714.962 186.931 714.962C185.16 714.962 183.724 713.532 183.724 711.769C183.724 710.006 185.16 708.577 186.931 708.577C188.702 708.577 190.138 710.006 190.138 711.769Z" fill="url(#paint36_linear_27_3542)"/>
<path d="M199.759 711.769C199.759 713.532 198.323 714.962 196.552 714.962C194.781 714.962 193.345 713.532 193.345 711.769C193.345 710.006 194.781 708.577 196.552 708.577C198.323 708.577 199.759 710.006 199.759 711.769Z" fill="url(#paint37_linear_27_3542)"/>
<path d="M209.379 711.769C209.379 713.532 207.944 714.962 206.172 714.962C204.401 714.962 202.966 713.532 202.966 711.769C202.966 710.006 204.401 708.577 206.172 708.577C207.944 708.577 209.379 710.006 209.379 711.769Z" fill="url(#paint38_linear_27_3542)"/>
<path d="M219 711.769C219 713.532 217.564 714.962 215.793 714.962C214.022 714.962 212.586 713.532 212.586 711.769C212.586 710.006 214.022 708.577 215.793 708.577C217.564 708.577 219 710.006 219 711.769Z" fill="url(#paint39_linear_27_3542)"/>
<path d="M39.4138 740.5C39.4138 742.263 37.978 743.692 36.2069 743.692C34.4358 743.692 33 742.263 33 740.5C33 738.737 34.4358 737.308 36.2069 737.308C37.978 737.308 39.4138 738.737 39.4138 740.5Z" fill="url(#paint40_linear_27_3542)"/>
<path d="M49.0345 740.5C49.0345 742.263 47.5987 743.692 45.8276 743.692C44.0565 743.692 42.6207 742.263 42.6207 740.5C42.6207 738.737 44.0565 737.308 45.8276 737.308C47.5987 737.308 49.0345 738.737 49.0345 740.5Z" fill="url(#paint41_linear_27_3542)"/>
<path d="M58.6552 740.5C58.6552 742.263 57.2194 743.692 55.4483 743.692C53.6772 743.692 52.2414 742.263 52.2414 740.5C52.2414 738.737 53.6772 737.308 55.4483 737.308C57.2194 737.308 58.6552 738.737 58.6552 740.5Z" fill="url(#paint42_linear_27_3542)"/>
<path d="M68.2759 740.5C68.2759 742.263 66.8401 743.692 65.069 743.692C63.2978 743.692 61.8621 742.263 61.8621 740.5C61.8621 738.737 63.2978 737.308 65.069 737.308C66.8401 737.308 68.2759 738.737 68.2759 740.5Z" fill="url(#paint43_linear_27_3542)"/>
<path d="M77.8965 740.5C77.8965 742.263 76.4608 743.692 74.6897 743.692C72.9185 743.692 71.4828 742.263 71.4828 740.5C71.4828 738.737 72.9185 737.308 74.6897 737.308C76.4608 737.308 77.8965 738.737 77.8965 740.5Z" fill="url(#paint44_linear_27_3542)"/>
<path d="M87.5172 740.5C87.5172 742.263 86.0815 743.692 84.3103 743.692C82.5392 743.692 81.1034 742.263 81.1034 740.5C81.1034 738.737 82.5392 737.308 84.3103 737.308C86.0815 737.308 87.5172 738.737 87.5172 740.5Z" fill="url(#paint45_linear_27_3542)"/>
<path d="M97.1379 740.5C97.1379 742.263 95.7022 743.692 93.931 743.692C92.1599 743.692 90.7241 742.263 90.7241 740.5C90.7241 738.737 92.1599 737.308 93.931 737.308C95.7022 737.308 97.1379 738.737 97.1379 740.5Z" fill="url(#paint46_linear_27_3542)"/>
<path d="M106.759 740.5C106.759 742.263 105.323 743.692 103.552 743.692C101.781 743.692 100.345 742.263 100.345 740.5C100.345 738.737 101.781 737.308 103.552 737.308C105.323 737.308 106.759 738.737 106.759 740.5Z" fill="url(#paint47_linear_27_3542)"/>
<path d="M116.379 740.5C116.379 742.263 114.944 743.692 113.172 743.692C111.401 743.692 109.966 742.263 109.966 740.5C109.966 738.737 111.401 737.308 113.172 737.308C114.944 737.308 116.379 738.737 116.379 740.5Z" fill="url(#paint48_linear_27_3542)"/>
<path d="M126 740.5C126 742.263 124.564 743.692 122.793 743.692C121.022 743.692 119.586 742.263 119.586 740.5C119.586 738.737 121.022 737.308 122.793 737.308C124.564 737.308 126 738.737 126 740.5Z" fill="url(#paint49_linear_27_3542)"/>
<path d="M135.621 740.5C135.621 742.263 134.185 743.692 132.414 743.692C130.643 743.692 129.207 742.263 129.207 740.5C129.207 738.737 130.643 737.308 132.414 737.308C134.185 737.308 135.621 738.737 135.621 740.5Z" fill="url(#paint50_linear_27_3542)"/>
<path d="M145.241 740.5C145.241 742.263 143.806 743.692 142.034 743.692C140.263 743.692 138.828 742.263 138.828 740.5C138.828 738.737 140.263 737.308 142.034 737.308C143.806 737.308 145.241 738.737 145.241 740.5Z" fill="url(#paint51_linear_27_3542)"/>
<path d="M154.862 740.5C154.862 742.263 153.426 743.692 151.655 743.692C149.884 743.692 148.448 742.263 148.448 740.5C148.448 738.737 149.884 737.308 151.655 737.308C153.426 737.308 154.862 738.737 154.862 740.5Z" fill="url(#paint52_linear_27_3542)"/>
<path d="M164.483 740.5C164.483 742.263 163.047 743.692 161.276 743.692C159.505 743.692 158.069 742.263 158.069 740.5C158.069 738.737 159.505 737.308 161.276 737.308C163.047 737.308 164.483 738.737 164.483 740.5Z" fill="url(#paint53_linear_27_3542)"/>
<path d="M174.103 740.5C174.103 742.263 172.668 743.692 170.897 743.692C169.125 743.692 167.69 742.263 167.69 740.5C167.69 738.737 169.125 737.308 170.897 737.308C172.668 737.308 174.103 738.737 174.103 740.5Z" fill="url(#paint54_linear_27_3542)"/>
<path d="M183.724 740.5C183.724 742.263 182.288 743.692 180.517 743.692C178.746 743.692 177.31 742.263 177.31 740.5C177.31 738.737 178.746 737.308 180.517 737.308C182.288 737.308 183.724 738.737 183.724 740.5Z" fill="url(#paint55_linear_27_3542)"/>
<path d="M193.345 740.5C193.345 742.263 191.909 743.692 190.138 743.692C188.367 743.692 186.931 742.263 186.931 740.5C186.931 738.737 188.367 737.308 190.138 737.308C191.909 737.308 193.345 738.737 193.345 740.5Z" fill="url(#paint56_linear_27_3542)"/>
<path d="M202.966 740.5C202.966 742.263 201.53 743.692 199.759 743.692C197.988 743.692 196.552 742.263 196.552 740.5C196.552 738.737 197.988 737.308 199.759 737.308C201.53 737.308 202.966 738.737 202.966 740.5Z" fill="url(#paint57_linear_27_3542)"/>
<path d="M212.586 740.5C212.586 742.263 211.15 743.692 209.379 743.692C207.608 743.692 206.172 742.263 206.172 740.5C206.172 738.737 207.608 737.308 209.379 737.308C211.15 737.308 212.586 738.737 212.586 740.5Z" fill="url(#paint58_linear_27_3542)"/>
<path d="M45.8276 750.077C45.8276 751.84 44.3918 753.269 42.6207 753.269C40.8496 753.269 39.4138 751.84 39.4138 750.077C39.4138 748.314 40.8496 746.885 42.6207 746.885C44.3918 746.885 45.8276 748.314 45.8276 750.077Z" fill="url(#paint59_linear_27_3542)"/>
<path d="M55.4483 750.077C55.4483 751.84 54.0125 753.269 52.2414 753.269C50.4703 753.269 49.0345 751.84 49.0345 750.077C49.0345 748.314 50.4703 746.885 52.2414 746.885C54.0125 746.885 55.4483 748.314 55.4483 750.077Z" fill="url(#paint60_linear_27_3542)"/>
<path d="M65.069 750.077C65.069 751.84 63.6332 753.269 61.8621 753.269C60.0909 753.269 58.6552 751.84 58.6552 750.077C58.6552 748.314 60.0909 746.885 61.8621 746.885C63.6332 746.885 65.069 748.314 65.069 750.077Z" fill="url(#paint61_linear_27_3542)"/>
<path d="M74.6897 750.077C74.6897 751.84 73.2539 753.269 71.4828 753.269C69.7116 753.269 68.2759 751.84 68.2759 750.077C68.2759 748.314 69.7116 746.885 71.4828 746.885C73.2539 746.885 74.6897 748.314 74.6897 750.077Z" fill="url(#paint62_linear_27_3542)"/>
<path d="M84.3103 750.077C84.3103 751.84 82.8746 753.269 81.1034 753.269C79.3323 753.269 77.8965 751.84 77.8965 750.077C77.8965 748.314 79.3323 746.885 81.1034 746.885C82.8746 746.885 84.3103 748.314 84.3103 750.077Z" fill="url(#paint63_linear_27_3542)"/>
<path d="M93.931 750.077C93.931 751.84 92.4953 753.269 90.7241 753.269C88.953 753.269 87.5172 751.84 87.5172 750.077C87.5172 748.314 88.953 746.885 90.7241 746.885C92.4953 746.885 93.931 748.314 93.931 750.077Z" fill="url(#paint64_linear_27_3542)"/>
<path d="M103.552 750.077C103.552 751.84 102.116 753.269 100.345 753.269C98.5737 753.269 97.1379 751.84 97.1379 750.077C97.1379 748.314 98.5737 746.885 100.345 746.885C102.116 746.885 103.552 748.314 103.552 750.077Z" fill="url(#paint65_linear_27_3542)"/>
<path d="M113.172 750.077C113.172 751.84 111.737 753.269 109.966 753.269C108.194 753.269 106.759 751.84 106.759 750.077C106.759 748.314 108.194 746.885 109.966 746.885C111.737 746.885 113.172 748.314 113.172 750.077Z" fill="url(#paint66_linear_27_3542)"/>
<path d="M122.793 750.077C122.793 751.84 121.357 753.269 119.586 753.269C117.815 753.269 116.379 751.84 116.379 750.077C116.379 748.314 117.815 746.885 119.586 746.885C121.357 746.885 122.793 748.314 122.793 750.077Z" fill="url(#paint67_linear_27_3542)"/>
<path d="M132.414 750.077C132.414 751.84 130.978 753.269 129.207 753.269C127.436 753.269 126 751.84 126 750.077C126 748.314 127.436 746.885 129.207 746.885C130.978 746.885 132.414 748.314 132.414 750.077Z" fill="url(#paint68_linear_27_3542)"/>
<path d="M142.034 750.077C142.034 751.84 140.599 753.269 138.828 753.269C137.056 753.269 135.621 751.84 135.621 750.077C135.621 748.314 137.056 746.885 138.828 746.885C140.599 746.885 142.034 748.314 142.034 750.077Z" fill="url(#paint69_linear_27_3542)"/>
<path d="M151.655 750.077C151.655 751.84 150.219 753.269 148.448 753.269C146.677 753.269 145.241 751.84 145.241 750.077C145.241 748.314 146.677 746.885 148.448 746.885C150.219 746.885 151.655 748.314 151.655 750.077Z" fill="url(#paint70_linear_27_3542)"/>
<path d="M161.276 750.077C161.276 751.84 159.84 753.269 158.069 753.269C156.298 753.269 154.862 751.84 154.862 750.077C154.862 748.314 156.298 746.885 158.069 746.885C159.84 746.885 161.276 748.314 161.276 750.077Z" fill="url(#paint71_linear_27_3542)"/>
<path d="M170.897 750.077C170.897 751.84 169.461 753.269 167.69 753.269C165.919 753.269 164.483 751.84 164.483 750.077C164.483 748.314 165.919 746.885 167.69 746.885C169.461 746.885 170.897 748.314 170.897 750.077Z" fill="url(#paint72_linear_27_3542)"/>
<path d="M180.517 750.077C180.517 751.84 179.081 753.269 177.31 753.269C175.539 753.269 174.103 751.84 174.103 750.077C174.103 748.314 175.539 746.885 177.31 746.885C179.081 746.885 180.517 748.314 180.517 750.077Z" fill="url(#paint73_linear_27_3542)"/>
<path d="M190.138 750.077C190.138 751.84 188.702 753.269 186.931 753.269C185.16 753.269 183.724 751.84 183.724 750.077C183.724 748.314 185.16 746.885 186.931 746.885C188.702 746.885 190.138 748.314 190.138 750.077Z" fill="url(#paint74_linear_27_3542)"/>
<path d="M199.759 750.077C199.759 751.84 198.323 753.269 196.552 753.269C194.781 753.269 193.345 751.84 193.345 750.077C193.345 748.314 194.781 746.885 196.552 746.885C198.323 746.885 199.759 748.314 199.759 750.077Z" fill="url(#paint75_linear_27_3542)"/>
<path d="M209.379 750.077C209.379 751.84 207.944 753.269 206.172 753.269C204.401 753.269 202.966 751.84 202.966 750.077C202.966 748.314 204.401 746.885 206.172 746.885C207.944 746.885 209.379 748.314 209.379 750.077Z" fill="url(#paint76_linear_27_3542)"/>
<path d="M219 750.077C219 751.84 217.564 753.269 215.793 753.269C214.022 753.269 212.586 751.84 212.586 750.077C212.586 748.314 214.022 746.885 215.793 746.885C217.564 746.885 219 748.314 219 750.077Z" fill="url(#paint77_linear_27_3542)"/>
<path d="M39.4138 721.346C39.4138 723.109 37.978 724.538 36.2069 724.538C34.4358 724.538 33 723.109 33 721.346C33 719.583 34.4358 718.154 36.2069 718.154C37.978 718.154 39.4138 719.583 39.4138 721.346Z" fill="url(#paint78_linear_27_3542)"/>
<path d="M49.0345 721.346C49.0345 723.109 47.5987 724.538 45.8276 724.538C44.0565 724.538 42.6207 723.109 42.6207 721.346C42.6207 719.583 44.0565 718.154 45.8276 718.154C47.5987 718.154 49.0345 719.583 49.0345 721.346Z" fill="url(#paint79_linear_27_3542)"/>
<path d="M58.6552 721.346C58.6552 723.109 57.2194 724.538 55.4483 724.538C53.6772 724.538 52.2414 723.109 52.2414 721.346C52.2414 719.583 53.6772 718.154 55.4483 718.154C57.2194 718.154 58.6552 719.583 58.6552 721.346Z" fill="url(#paint80_linear_27_3542)"/>
<path d="M68.2759 721.346C68.2759 723.109 66.8401 724.538 65.069 724.538C63.2978 724.538 61.8621 723.109 61.8621 721.346C61.8621 719.583 63.2978 718.154 65.069 718.154C66.8401 718.154 68.2759 719.583 68.2759 721.346Z" fill="url(#paint81_linear_27_3542)"/>
<path d="M77.8965 721.346C77.8965 723.109 76.4608 724.538 74.6897 724.538C72.9185 724.538 71.4828 723.109 71.4828 721.346C71.4828 719.583 72.9185 718.154 74.6897 718.154C76.4608 718.154 77.8965 719.583 77.8965 721.346Z" fill="url(#paint82_linear_27_3542)"/>
<path d="M87.5172 721.346C87.5172 723.109 86.0815 724.538 84.3103 724.538C82.5392 724.538 81.1034 723.109 81.1034 721.346C81.1034 719.583 82.5392 718.154 84.3103 718.154C86.0815 718.154 87.5172 719.583 87.5172 721.346Z" fill="url(#paint83_linear_27_3542)"/>
<path d="M97.1379 721.346C97.1379 723.109 95.7022 724.538 93.931 724.538C92.1599 724.538 90.7241 723.109 90.7241 721.346C90.7241 719.583 92.1599 718.154 93.931 718.154C95.7022 718.154 97.1379 719.583 97.1379 721.346Z" fill="url(#paint84_linear_27_3542)"/>
<path d="M106.759 721.346C106.759 723.109 105.323 724.538 103.552 724.538C101.781 724.538 100.345 723.109 100.345 721.346C100.345 719.583 101.781 718.154 103.552 718.154C105.323 718.154 106.759 719.583 106.759 721.346Z" fill="url(#paint85_linear_27_3542)"/>
<path d="M116.379 721.346C116.379 723.109 114.944 724.538 113.172 724.538C111.401 724.538 109.966 723.109 109.966 721.346C109.966 719.583 111.401 718.154 113.172 718.154C114.944 718.154 116.379 719.583 116.379 721.346Z" fill="url(#paint86_linear_27_3542)"/>
<path d="M126 721.346C126 723.109 124.564 724.538 122.793 724.538C121.022 724.538 119.586 723.109 119.586 721.346C119.586 719.583 121.022 718.154 122.793 718.154C124.564 718.154 126 719.583 126 721.346Z" fill="url(#paint87_linear_27_3542)"/>
<path d="M135.621 721.346C135.621 723.109 134.185 724.538 132.414 724.538C130.643 724.538 129.207 723.109 129.207 721.346C129.207 719.583 130.643 718.154 132.414 718.154C134.185 718.154 135.621 719.583 135.621 721.346Z" fill="url(#paint88_linear_27_3542)"/>
<path d="M145.241 721.346C145.241 723.109 143.806 724.538 142.034 724.538C140.263 724.538 138.828 723.109 138.828 721.346C138.828 719.583 140.263 718.154 142.034 718.154C143.806 718.154 145.241 719.583 145.241 721.346Z" fill="url(#paint89_linear_27_3542)"/>
<path d="M154.862 721.346C154.862 723.109 153.426 724.538 151.655 724.538C149.884 724.538 148.448 723.109 148.448 721.346C148.448 719.583 149.884 718.154 151.655 718.154C153.426 718.154 154.862 719.583 154.862 721.346Z" fill="url(#paint90_linear_27_3542)"/>
<path d="M164.483 721.346C164.483 723.109 163.047 724.538 161.276 724.538C159.505 724.538 158.069 723.109 158.069 721.346C158.069 719.583 159.505 718.154 161.276 718.154C163.047 718.154 164.483 719.583 164.483 721.346Z" fill="url(#paint91_linear_27_3542)"/>
<path d="M174.103 721.346C174.103 723.109 172.668 724.538 170.897 724.538C169.125 724.538 167.69 723.109 167.69 721.346C167.69 719.583 169.125 718.154 170.897 718.154C172.668 718.154 174.103 719.583 174.103 721.346Z" fill="url(#paint92_linear_27_3542)"/>
<path d="M183.724 721.346C183.724 723.109 182.288 724.538 180.517 724.538C178.746 724.538 177.31 723.109 177.31 721.346C177.31 719.583 178.746 718.154 180.517 718.154C182.288 718.154 183.724 719.583 183.724 721.346Z" fill="url(#paint93_linear_27_3542)"/>
<path d="M193.345 721.346C193.345 723.109 191.909 724.538 190.138 724.538C188.367 724.538 186.931 723.109 186.931 721.346C186.931 719.583 188.367 718.154 190.138 718.154C191.909 718.154 193.345 719.583 193.345 721.346Z" fill="url(#paint94_linear_27_3542)"/>
<path d="M202.966 721.346C202.966 723.109 201.53 724.538 199.759 724.538C197.988 724.538 196.552 723.109 196.552 721.346C196.552 719.583 197.988 718.154 199.759 718.154C201.53 718.154 202.966 719.583 202.966 721.346Z" fill="url(#paint95_linear_27_3542)"/>
<path d="M212.586 721.346C212.586 723.109 211.15 724.538 209.379 724.538C207.608 724.538 206.172 723.109 206.172 721.346C206.172 719.583 207.608 718.154 209.379 718.154C211.15 718.154 212.586 719.583 212.586 721.346Z" fill="url(#paint96_linear_27_3542)"/>
<path d="M45.8276 730.923C45.8276 732.686 44.3918 734.115 42.6207 734.115C40.8496 734.115 39.4138 732.686 39.4138 730.923C39.4138 729.16 40.8496 727.731 42.6207 727.731C44.3918 727.731 45.8276 729.16 45.8276 730.923Z" fill="url(#paint97_linear_27_3542)"/>
<path d="M55.4483 730.923C55.4483 732.686 54.0125 734.115 52.2414 734.115C50.4703 734.115 49.0345 732.686 49.0345 730.923C49.0345 729.16 50.4703 727.731 52.2414 727.731C54.0125 727.731 55.4483 729.16 55.4483 730.923Z" fill="url(#paint98_linear_27_3542)"/>
<path d="M65.069 730.923C65.069 732.686 63.6332 734.115 61.8621 734.115C60.0909 734.115 58.6552 732.686 58.6552 730.923C58.6552 729.16 60.0909 727.731 61.8621 727.731C63.6332 727.731 65.069 729.16 65.069 730.923Z" fill="url(#paint99_linear_27_3542)"/>
<path d="M74.6897 730.923C74.6897 732.686 73.2539 734.115 71.4828 734.115C69.7116 734.115 68.2759 732.686 68.2759 730.923C68.2759 729.16 69.7116 727.731 71.4828 727.731C73.2539 727.731 74.6897 729.16 74.6897 730.923Z" fill="url(#paint100_linear_27_3542)"/>
<path d="M84.3103 730.923C84.3103 732.686 82.8746 734.115 81.1034 734.115C79.3323 734.115 77.8965 732.686 77.8965 730.923C77.8965 729.16 79.3323 727.731 81.1034 727.731C82.8746 727.731 84.3103 729.16 84.3103 730.923Z" fill="url(#paint101_linear_27_3542)"/>
<path d="M93.931 730.923C93.931 732.686 92.4953 734.115 90.7241 734.115C88.953 734.115 87.5172 732.686 87.5172 730.923C87.5172 729.16 88.953 727.731 90.7241 727.731C92.4953 727.731 93.931 729.16 93.931 730.923Z" fill="url(#paint102_linear_27_3542)"/>
<path d="M103.552 730.923C103.552 732.686 102.116 734.115 100.345 734.115C98.5737 734.115 97.1379 732.686 97.1379 730.923C97.1379 729.16 98.5737 727.731 100.345 727.731C102.116 727.731 103.552 729.16 103.552 730.923Z" fill="url(#paint103_linear_27_3542)"/>
<path d="M113.172 730.923C113.172 732.686 111.737 734.115 109.966 734.115C108.194 734.115 106.759 732.686 106.759 730.923C106.759 729.16 108.194 727.731 109.966 727.731C111.737 727.731 113.172 729.16 113.172 730.923Z" fill="url(#paint104_linear_27_3542)"/>
<path d="M122.793 730.923C122.793 732.686 121.357 734.115 119.586 734.115C117.815 734.115 116.379 732.686 116.379 730.923C116.379 729.16 117.815 727.731 119.586 727.731C121.357 727.731 122.793 729.16 122.793 730.923Z" fill="url(#paint105_linear_27_3542)"/>
<path d="M132.414 730.923C132.414 732.686 130.978 734.115 129.207 734.115C127.436 734.115 126 732.686 126 730.923C126 729.16 127.436 727.731 129.207 727.731C130.978 727.731 132.414 729.16 132.414 730.923Z" fill="url(#paint106_linear_27_3542)"/>
<path d="M142.034 730.923C142.034 732.686 140.599 734.115 138.828 734.115C137.056 734.115 135.621 732.686 135.621 730.923C135.621 729.16 137.056 727.731 138.828 727.731C140.599 727.731 142.034 729.16 142.034 730.923Z" fill="url(#paint107_linear_27_3542)"/>
<path d="M151.655 730.923C151.655 732.686 150.219 734.115 148.448 734.115C146.677 734.115 145.241 732.686 145.241 730.923C145.241 729.16 146.677 727.731 148.448 727.731C150.219 727.731 151.655 729.16 151.655 730.923Z" fill="url(#paint108_linear_27_3542)"/>
<path d="M161.276 730.923C161.276 732.686 159.84 734.115 158.069 734.115C156.298 734.115 154.862 732.686 154.862 730.923C154.862 729.16 156.298 727.731 158.069 727.731C159.84 727.731 161.276 729.16 161.276 730.923Z" fill="url(#paint109_linear_27_3542)"/>
<path d="M170.897 730.923C170.897 732.686 169.461 734.115 167.69 734.115C165.919 734.115 164.483 732.686 164.483 730.923C164.483 729.16 165.919 727.731 167.69 727.731C169.461 727.731 170.897 729.16 170.897 730.923Z" fill="url(#paint110_linear_27_3542)"/>
<path d="M180.517 730.923C180.517 732.686 179.081 734.115 177.31 734.115C175.539 734.115 174.103 732.686 174.103 730.923C174.103 729.16 175.539 727.731 177.31 727.731C179.081 727.731 180.517 729.16 180.517 730.923Z" fill="url(#paint111_linear_27_3542)"/>
<path d="M190.138 730.923C190.138 732.686 188.702 734.115 186.931 734.115C185.16 734.115 183.724 732.686 183.724 730.923C183.724 729.16 185.16 727.731 186.931 727.731C188.702 727.731 190.138 729.16 190.138 730.923Z" fill="url(#paint112_linear_27_3542)"/>
<path d="M199.759 730.923C199.759 732.686 198.323 734.115 196.552 734.115C194.781 734.115 193.345 732.686 193.345 730.923C193.345 729.16 194.781 727.731 196.552 727.731C198.323 727.731 199.759 729.16 199.759 730.923Z" fill="url(#paint113_linear_27_3542)"/>
<path d="M209.379 730.923C209.379 732.686 207.944 734.115 206.172 734.115C204.401 734.115 202.966 732.686 202.966 730.923C202.966 729.16 204.401 727.731 206.172 727.731C207.944 727.731 209.379 729.16 209.379 730.923Z" fill="url(#paint114_linear_27_3542)"/>
<path d="M219 730.923C219 732.686 217.564 734.115 215.793 734.115C214.022 734.115 212.586 732.686 212.586 730.923C212.586 729.16 214.022 727.731 215.793 727.731C217.564 727.731 219 729.16 219 730.923Z" fill="url(#paint115_linear_27_3542)"/>
<path d="M39.4138 759.654C39.4138 761.417 37.978 762.846 36.2069 762.846C34.4358 762.846 33 761.417 33 759.654C33 757.891 34.4358 756.462 36.2069 756.462C37.978 756.462 39.4138 757.891 39.4138 759.654Z" fill="url(#paint116_linear_27_3542)"/>
<path d="M49.0345 759.654C49.0345 761.417 47.5987 762.846 45.8276 762.846C44.0565 762.846 42.6207 761.417 42.6207 759.654C42.6207 757.891 44.0565 756.462 45.8276 756.462C47.5987 756.462 49.0345 757.891 49.0345 759.654Z" fill="url(#paint117_linear_27_3542)"/>
<path d="M58.6552 759.654C58.6552 761.417 57.2194 762.846 55.4483 762.846C53.6772 762.846 52.2414 761.417 52.2414 759.654C52.2414 757.891 53.6772 756.462 55.4483 756.462C57.2194 756.462 58.6552 757.891 58.6552 759.654Z" fill="url(#paint118_linear_27_3542)"/>
<path d="M68.2759 759.654C68.2759 761.417 66.8401 762.846 65.069 762.846C63.2978 762.846 61.8621 761.417 61.8621 759.654C61.8621 757.891 63.2978 756.462 65.069 756.462C66.8401 756.462 68.2759 757.891 68.2759 759.654Z" fill="url(#paint119_linear_27_3542)"/>
<path d="M77.8965 759.654C77.8965 761.417 76.4608 762.846 74.6897 762.846C72.9185 762.846 71.4828 761.417 71.4828 759.654C71.4828 757.891 72.9185 756.462 74.6897 756.462C76.4608 756.462 77.8965 757.891 77.8965 759.654Z" fill="url(#paint120_linear_27_3542)"/>
<path d="M87.5172 759.654C87.5172 761.417 86.0815 762.846 84.3103 762.846C82.5392 762.846 81.1034 761.417 81.1034 759.654C81.1034 757.891 82.5392 756.462 84.3103 756.462C86.0815 756.462 87.5172 757.891 87.5172 759.654Z" fill="url(#paint121_linear_27_3542)"/>
<path d="M97.1379 759.654C97.1379 761.417 95.7022 762.846 93.931 762.846C92.1599 762.846 90.7241 761.417 90.7241 759.654C90.7241 757.891 92.1599 756.462 93.931 756.462C95.7022 756.462 97.1379 757.891 97.1379 759.654Z" fill="url(#paint122_linear_27_3542)"/>
<path d="M106.759 759.654C106.759 761.417 105.323 762.846 103.552 762.846C101.781 762.846 100.345 761.417 100.345 759.654C100.345 757.891 101.781 756.462 103.552 756.462C105.323 756.462 106.759 757.891 106.759 759.654Z" fill="url(#paint123_linear_27_3542)"/>
<path d="M116.379 759.654C116.379 761.417 114.944 762.846 113.172 762.846C111.401 762.846 109.966 761.417 109.966 759.654C109.966 757.891 111.401 756.462 113.172 756.462C114.944 756.462 116.379 757.891 116.379 759.654Z" fill="url(#paint124_linear_27_3542)"/>
<path d="M126 759.654C126 761.417 124.564 762.846 122.793 762.846C121.022 762.846 119.586 761.417 119.586 759.654C119.586 757.891 121.022 756.462 122.793 756.462C124.564 756.462 126 757.891 126 759.654Z" fill="url(#paint125_linear_27_3542)"/>
<path d="M135.621 759.654C135.621 761.417 134.185 762.846 132.414 762.846C130.643 762.846 129.207 761.417 129.207 759.654C129.207 757.891 130.643 756.462 132.414 756.462C134.185 756.462 135.621 757.891 135.621 759.654Z" fill="url(#paint126_linear_27_3542)"/>
<path d="M145.241 759.654C145.241 761.417 143.806 762.846 142.034 762.846C140.263 762.846 138.828 761.417 138.828 759.654C138.828 757.891 140.263 756.462 142.034 756.462C143.806 756.462 145.241 757.891 145.241 759.654Z" fill="url(#paint127_linear_27_3542)"/>
<path d="M154.862 759.654C154.862 761.417 153.426 762.846 151.655 762.846C149.884 762.846 148.448 761.417 148.448 759.654C148.448 757.891 149.884 756.462 151.655 756.462C153.426 756.462 154.862 757.891 154.862 759.654Z" fill="url(#paint128_linear_27_3542)"/>
<path d="M164.483 759.654C164.483 761.417 163.047 762.846 161.276 762.846C159.505 762.846 158.069 761.417 158.069 759.654C158.069 757.891 159.505 756.462 161.276 756.462C163.047 756.462 164.483 757.891 164.483 759.654Z" fill="url(#paint129_linear_27_3542)"/>
<path d="M174.103 759.654C174.103 761.417 172.668 762.846 170.897 762.846C169.125 762.846 167.69 761.417 167.69 759.654C167.69 757.891 169.125 756.462 170.897 756.462C172.668 756.462 174.103 757.891 174.103 759.654Z" fill="url(#paint130_linear_27_3542)"/>
<path d="M183.724 759.654C183.724 761.417 182.288 762.846 180.517 762.846C178.746 762.846 177.31 761.417 177.31 759.654C177.31 757.891 178.746 756.462 180.517 756.462C182.288 756.462 183.724 757.891 183.724 759.654Z" fill="url(#paint131_linear_27_3542)"/>
<path d="M193.345 759.654C193.345 761.417 191.909 762.846 190.138 762.846C188.367 762.846 186.931 761.417 186.931 759.654C186.931 757.891 188.367 756.462 190.138 756.462C191.909 756.462 193.345 757.891 193.345 759.654Z" fill="url(#paint132_linear_27_3542)"/>
<path d="M202.966 759.654C202.966 761.417 201.53 762.846 199.759 762.846C197.988 762.846 196.552 761.417 196.552 759.654C196.552 757.891 197.988 756.462 199.759 756.462C201.53 756.462 202.966 757.891 202.966 759.654Z" fill="url(#paint133_linear_27_3542)"/>
<path d="M212.586 759.654C212.586 761.417 211.15 762.846 209.379 762.846C207.608 762.846 206.172 761.417 206.172 759.654C206.172 757.891 207.608 756.462 209.379 756.462C211.15 756.462 212.586 757.891 212.586 759.654Z" fill="url(#paint134_linear_27_3542)"/>
<path d="M39.4138 778.808C39.4138 780.571 37.978 782 36.2069 782C34.4358 782 33 780.571 33 778.808C33 777.045 34.4358 775.615 36.2069 775.615C37.978 775.615 39.4138 777.045 39.4138 778.808Z" fill="url(#paint135_linear_27_3542)"/>
<path d="M49.0345 778.808C49.0345 780.571 47.5987 782 45.8276 782C44.0565 782 42.6207 780.571 42.6207 778.808C42.6207 777.045 44.0565 775.615 45.8276 775.615C47.5987 775.615 49.0345 777.045 49.0345 778.808Z" fill="url(#paint136_linear_27_3542)"/>
<path d="M58.6552 778.808C58.6552 780.571 57.2194 782 55.4483 782C53.6772 782 52.2414 780.571 52.2414 778.808C52.2414 777.045 53.6772 775.615 55.4483 775.615C57.2194 775.615 58.6552 777.045 58.6552 778.808Z" fill="url(#paint137_linear_27_3542)"/>
<path d="M68.2759 778.808C68.2759 780.571 66.8401 782 65.069 782C63.2978 782 61.8621 780.571 61.8621 778.808C61.8621 777.045 63.2978 775.615 65.069 775.615C66.8401 775.615 68.2759 777.045 68.2759 778.808Z" fill="url(#paint138_linear_27_3542)"/>
<path d="M77.8965 778.808C77.8965 780.571 76.4608 782 74.6897 782C72.9185 782 71.4828 780.571 71.4828 778.808C71.4828 777.045 72.9185 775.615 74.6897 775.615C76.4608 775.615 77.8965 777.045 77.8965 778.808Z" fill="url(#paint139_linear_27_3542)"/>
<path d="M87.5172 778.808C87.5172 780.571 86.0815 782 84.3103 782C82.5392 782 81.1034 780.571 81.1034 778.808C81.1034 777.045 82.5392 775.615 84.3103 775.615C86.0815 775.615 87.5172 777.045 87.5172 778.808Z" fill="url(#paint140_linear_27_3542)"/>
<path d="M97.1379 778.808C97.1379 780.571 95.7022 782 93.931 782C92.1599 782 90.7241 780.571 90.7241 778.808C90.7241 777.045 92.1599 775.615 93.931 775.615C95.7022 775.615 97.1379 777.045 97.1379 778.808Z" fill="url(#paint141_linear_27_3542)"/>
<path d="M106.759 778.808C106.759 780.571 105.323 782 103.552 782C101.781 782 100.345 780.571 100.345 778.808C100.345 777.045 101.781 775.615 103.552 775.615C105.323 775.615 106.759 777.045 106.759 778.808Z" fill="url(#paint142_linear_27_3542)"/>
<path d="M116.379 778.808C116.379 780.571 114.944 782 113.172 782C111.401 782 109.966 780.571 109.966 778.808C109.966 777.045 111.401 775.615 113.172 775.615C114.944 775.615 116.379 777.045 116.379 778.808Z" fill="url(#paint143_linear_27_3542)"/>
<path d="M126 778.808C126 780.571 124.564 782 122.793 782C121.022 782 119.586 780.571 119.586 778.808C119.586 777.045 121.022 775.615 122.793 775.615C124.564 775.615 126 777.045 126 778.808Z" fill="url(#paint144_linear_27_3542)"/>
<path d="M135.621 778.808C135.621 780.571 134.185 782 132.414 782C130.643 782 129.207 780.571 129.207 778.808C129.207 777.045 130.643 775.615 132.414 775.615C134.185 775.615 135.621 777.045 135.621 778.808Z" fill="url(#paint145_linear_27_3542)"/>
<path d="M145.241 778.808C145.241 780.571 143.806 782 142.034 782C140.263 782 138.828 780.571 138.828 778.808C138.828 777.045 140.263 775.615 142.034 775.615C143.806 775.615 145.241 777.045 145.241 778.808Z" fill="url(#paint146_linear_27_3542)"/>
<path d="M154.862 778.808C154.862 780.571 153.426 782 151.655 782C149.884 782 148.448 780.571 148.448 778.808C148.448 777.045 149.884 775.615 151.655 775.615C153.426 775.615 154.862 777.045 154.862 778.808Z" fill="url(#paint147_linear_27_3542)"/>
<path d="M164.483 778.808C164.483 780.571 163.047 782 161.276 782C159.505 782 158.069 780.571 158.069 778.808C158.069 777.045 159.505 775.615 161.276 775.615C163.047 775.615 164.483 777.045 164.483 778.808Z" fill="url(#paint148_linear_27_3542)"/>
<path d="M174.103 778.808C174.103 780.571 172.668 782 170.897 782C169.125 782 167.69 780.571 167.69 778.808C167.69 777.045 169.125 775.615 170.897 775.615C172.668 775.615 174.103 777.045 174.103 778.808Z" fill="url(#paint149_linear_27_3542)"/>
<path d="M183.724 778.808C183.724 780.571 182.288 782 180.517 782C178.746 782 177.31 780.571 177.31 778.808C177.31 777.045 178.746 775.615 180.517 775.615C182.288 775.615 183.724 777.045 183.724 778.808Z" fill="url(#paint150_linear_27_3542)"/>
<path d="M193.345 778.808C193.345 780.571 191.909 782 190.138 782C188.367 782 186.931 780.571 186.931 778.808C186.931 777.045 188.367 775.615 190.138 775.615C191.909 775.615 193.345 777.045 193.345 778.808Z" fill="url(#paint151_linear_27_3542)"/>
<path d="M202.966 778.808C202.966 780.571 201.53 782 199.759 782C197.988 782 196.552 780.571 196.552 778.808C196.552 777.045 197.988 775.615 199.759 775.615C201.53 775.615 202.966 777.045 202.966 778.808Z" fill="url(#paint152_linear_27_3542)"/>
<path d="M212.586 778.808C212.586 780.571 211.15 782 209.379 782C207.608 782 206.172 780.571 206.172 778.808C206.172 777.045 207.608 775.615 209.379 775.615C211.15 775.615 212.586 777.045 212.586 778.808Z" fill="url(#paint153_linear_27_3542)"/>
<path d="M45.8276 769.231C45.8276 770.994 44.3918 772.423 42.6207 772.423C40.8496 772.423 39.4138 770.994 39.4138 769.231C39.4138 767.468 40.8496 766.038 42.6207 766.038C44.3918 766.038 45.8276 767.468 45.8276 769.231Z" fill="url(#paint154_linear_27_3542)"/>
<path d="M55.4483 769.231C55.4483 770.994 54.0125 772.423 52.2414 772.423C50.4703 772.423 49.0345 770.994 49.0345 769.231C49.0345 767.468 50.4703 766.038 52.2414 766.038C54.0125 766.038 55.4483 767.468 55.4483 769.231Z" fill="url(#paint155_linear_27_3542)"/>
<path d="M65.069 769.231C65.069 770.994 63.6332 772.423 61.8621 772.423C60.0909 772.423 58.6552 770.994 58.6552 769.231C58.6552 767.468 60.0909 766.038 61.8621 766.038C63.6332 766.038 65.069 767.468 65.069 769.231Z" fill="url(#paint156_linear_27_3542)"/>
<path d="M74.6897 769.231C74.6897 770.994 73.2539 772.423 71.4828 772.423C69.7116 772.423 68.2759 770.994 68.2759 769.231C68.2759 767.468 69.7116 766.038 71.4828 766.038C73.2539 766.038 74.6897 767.468 74.6897 769.231Z" fill="url(#paint157_linear_27_3542)"/>
<path d="M84.3103 769.231C84.3103 770.994 82.8746 772.423 81.1034 772.423C79.3323 772.423 77.8965 770.994 77.8965 769.231C77.8965 767.468 79.3323 766.038 81.1034 766.038C82.8746 766.038 84.3103 767.468 84.3103 769.231Z" fill="url(#paint158_linear_27_3542)"/>
<path d="M93.931 769.231C93.931 770.994 92.4953 772.423 90.7241 772.423C88.953 772.423 87.5172 770.994 87.5172 769.231C87.5172 767.468 88.953 766.038 90.7241 766.038C92.4953 766.038 93.931 767.468 93.931 769.231Z" fill="url(#paint159_linear_27_3542)"/>
<path d="M103.552 769.231C103.552 770.994 102.116 772.423 100.345 772.423C98.5737 772.423 97.1379 770.994 97.1379 769.231C97.1379 767.468 98.5737 766.038 100.345 766.038C102.116 766.038 103.552 767.468 103.552 769.231Z" fill="url(#paint160_linear_27_3542)"/>
<path d="M113.172 769.231C113.172 770.994 111.737 772.423 109.966 772.423C108.194 772.423 106.759 770.994 106.759 769.231C106.759 767.468 108.194 766.038 109.966 766.038C111.737 766.038 113.172 767.468 113.172 769.231Z" fill="url(#paint161_linear_27_3542)"/>
<path d="M122.793 769.231C122.793 770.994 121.357 772.423 119.586 772.423C117.815 772.423 116.379 770.994 116.379 769.231C116.379 767.468 117.815 766.038 119.586 766.038C121.357 766.038 122.793 767.468 122.793 769.231Z" fill="url(#paint162_linear_27_3542)"/>
<path d="M132.414 769.231C132.414 770.994 130.978 772.423 129.207 772.423C127.436 772.423 126 770.994 126 769.231C126 767.468 127.436 766.038 129.207 766.038C130.978 766.038 132.414 767.468 132.414 769.231Z" fill="url(#paint163_linear_27_3542)"/>
<path d="M142.034 769.231C142.034 770.994 140.599 772.423 138.828 772.423C137.056 772.423 135.621 770.994 135.621 769.231C135.621 767.468 137.056 766.038 138.828 766.038C140.599 766.038 142.034 767.468 142.034 769.231Z" fill="url(#paint164_linear_27_3542)"/>
<path d="M151.655 769.231C151.655 770.994 150.219 772.423 148.448 772.423C146.677 772.423 145.241 770.994 145.241 769.231C145.241 767.468 146.677 766.038 148.448 766.038C150.219 766.038 151.655 767.468 151.655 769.231Z" fill="url(#paint165_linear_27_3542)"/>
<path d="M161.276 769.231C161.276 770.994 159.84 772.423 158.069 772.423C156.298 772.423 154.862 770.994 154.862 769.231C154.862 767.468 156.298 766.038 158.069 766.038C159.84 766.038 161.276 767.468 161.276 769.231Z" fill="url(#paint166_linear_27_3542)"/>
<path d="M170.897 769.231C170.897 770.994 169.461 772.423 167.69 772.423C165.919 772.423 164.483 770.994 164.483 769.231C164.483 767.468 165.919 766.038 167.69 766.038C169.461 766.038 170.897 767.468 170.897 769.231Z" fill="url(#paint167_linear_27_3542)"/>
<path d="M180.517 769.231C180.517 770.994 179.081 772.423 177.31 772.423C175.539 772.423 174.103 770.994 174.103 769.231C174.103 767.468 175.539 766.038 177.31 766.038C179.081 766.038 180.517 767.468 180.517 769.231Z" fill="url(#paint168_linear_27_3542)"/>
<path d="M190.138 769.231C190.138 770.994 188.702 772.423 186.931 772.423C185.16 772.423 183.724 770.994 183.724 769.231C183.724 767.468 185.16 766.038 186.931 766.038C188.702 766.038 190.138 767.468 190.138 769.231Z" fill="url(#paint169_linear_27_3542)"/>
<path d="M199.759 769.231C199.759 770.994 198.323 772.423 196.552 772.423C194.781 772.423 193.345 770.994 193.345 769.231C193.345 767.468 194.781 766.038 196.552 766.038C198.323 766.038 199.759 767.468 199.759 769.231Z" fill="url(#paint170_linear_27_3542)"/>
<path d="M209.379 769.231C209.379 770.994 207.944 772.423 206.172 772.423C204.401 772.423 202.966 770.994 202.966 769.231C202.966 767.468 204.401 766.038 206.172 766.038C207.944 766.038 209.379 767.468 209.379 769.231Z" fill="url(#paint171_linear_27_3542)"/>
<path d="M219 769.231C219 770.994 217.564 772.423 215.793 772.423C214.022 772.423 212.586 770.994 212.586 769.231C212.586 767.468 214.022 766.038 215.793 766.038C217.564 766.038 219 767.468 219 769.231Z" fill="url(#paint172_linear_27_3542)"/>
<path d="M851 426L875.249 440V468L851 482L826.751 468V440L851 426Z" stroke="url(#paint173_linear_27_3542)" stroke-width="5"/>
<circle cx="47.5" cy="188.5" r="14.5" stroke="url(#paint174_linear_27_3542)" stroke-width="5"/>
<path d="M602.704 36.9322L621.636 18.0007L628.565 43.8616L602.704 36.9322Z" stroke="url(#paint175_linear_27_3542)" stroke-width="5"/>
<path d="M42.2529 367.679L68.8394 370.835L52.8129 392.281L42.2529 367.679Z" stroke="url(#paint176_linear_27_3542)" stroke-width="5"/>
<defs>
<linearGradient id="paint0_linear_27_3542" x1="97" y1="439" x2="1802" y2="439" gradientUnits="userSpaceOnUse">
<stop stop-color="#CEBB8B"/>
<stop offset="1" stop-color="#CEBB8B" stop-opacity="0.2"/>
</linearGradient>
<linearGradient id="paint1_linear_27_3542" x1="927.996" y1="213.755" x2="961.092" y2="168.58" gradientUnits="userSpaceOnUse">
<stop stop-color="#CEBB8B"/>
<stop offset="1" stop-color="#CEBB8B" stop-opacity="0.2"/>
</linearGradient>
<linearGradient id="paint2_linear_27_3542" x1="33" y1="742.31" x2="216.737" y2="742.31" gradientUnits="userSpaceOnUse">
<stop stop-color="#CEBB8B"/>
<stop offset="1" stop-color="#CEBB8B" stop-opacity="0.2"/>
</linearGradient>
<linearGradient id="paint3_linear_27_3542" x1="33" y1="742.31" x2="216.737" y2="742.31" gradientUnits="userSpaceOnUse">
<stop stop-color="#CEBB8B"/>
<stop offset="1" stop-color="#CEBB8B" stop-opacity="0.2"/>
</linearGradient>
<linearGradient id="paint4_linear_27_3542" x1="33" y1="742.31" x2="216.737" y2="742.31" gradientUnits="userSpaceOnUse">
<stop stop-color="#CEBB8B"/>
<stop offset="1" stop-color="#CEBB8B" stop-opacity="0.2"/>
</linearGradient>
<linearGradient id="paint5_linear_27_3542" x1="33" y1="742.31" x2="216.737" y2="742.31" gradientUnits="userSpaceOnUse">
<stop stop-color="#CEBB8B"/>
<stop offset="1" stop-color="#CEBB8B" stop-opacity="0.2"/>
</linearGradient>
<linearGradient id="paint6_linear_27_3542" x1="33" y1="742.31" x2="216.737" y2="742.31" gradientUnits="userSpaceOnUse">
<stop stop-color="#CEBB8B"/>
<stop offset="1" stop-color="#CEBB8B" stop-opacity="0.2"/>
</linearGradient>
<linearGradient id="paint7_linear_27_3542" x1="33" y1="742.31" x2="216.737" y2="742.31" gradientUnits="userSpaceOnUse">
<stop stop-color="#CEBB8B"/>
<stop offset="1" stop-color="#CEBB8B" stop-opacity="0.2"/>
</linearGradient>
<linearGradient id="paint8_linear_27_3542" x1="33" y1="742.31" x2="216.737" y2="742.31" gradientUnits="userSpaceOnUse">
<stop stop-color="#CEBB8B"/>
<stop offset="1" stop-color="#CEBB8B" stop-opacity="0.2"/>
</linearGradient>
<linearGradient id="paint9_linear_27_3542" x1="33" y1="742.31" x2="216.737" y2="742.31" gradientUnits="userSpaceOnUse">
<stop stop-color="#CEBB8B"/>
<stop offset="1" stop-color="#CEBB8B" stop-opacity="0.2"/>
</linearGradient>
<linearGradient id="paint10_linear_27_3542" x1="33" y1="742.31" x2="216.737" y2="742.31" gradientUnits="userSpaceOnUse">
<stop stop-color="#CEBB8B"/>
<stop offset="1" stop-color="#CEBB8B" stop-opacity="0.2"/>
</linearGradient>
<linearGradient id="paint11_linear_27_3542" x1="33" y1="742.31" x2="216.737" y2="742.31" gradientUnits="userSpaceOnUse">
<stop stop-color="#CEBB8B"/>
<stop offset="1" stop-color="#CEBB8B" stop-opacity="0.2"/>
</linearGradient>
<linearGradient id="paint12_linear_27_3542" x1="33" y1="742.31" x2="216.737" y2="742.31" gradientUnits="userSpaceOnUse">
<stop stop-color="#CEBB8B"/>
<stop offset="1" stop-color="#CEBB8B" stop-opacity="0.2"/>
</linearGradient>
<linearGradient id="paint13_linear_27_3542" x1="33" y1="742.31" x2="216.737" y2="742.31" gradientUnits="userSpaceOnUse">
<stop stop-color="#CEBB8B"/>
<stop offset="1" stop-color="#CEBB8B" stop-opacity="0.2"/>
</linearGradient>
<linearGradient id="paint14_linear_27_3542" x1="33" y1="742.31" x2="216.737" y2="742.31" gradientUnits="userSpaceOnUse">
<stop stop-color="#CEBB8B"/>
<stop offset="1" stop-color="#CEBB8B" stop-opacity="0.2"/>
</linearGradient>
<linearGradient id="paint15_linear_27_3542" x1="33" y1="742.31" x2="216.737" y2="742.31" gradientUnits="userSpaceOnUse">
<stop stop-color="#CEBB8B"/>
<stop offset="1" stop-color="#CEBB8B" stop-opacity="0.2"/>
</linearGradient>
<linearGradient id="paint16_linear_27_3542" x1="33" y1="742.31" x2="216.737" y2="742.31" gradientUnits="userSpaceOnUse">
<stop stop-color="#CEBB8B"/>
<stop offset="1" stop-color="#CEBB8B" stop-opacity="0.2"/>
</linearGradient>
<linearGradient id="paint17_linear_27_3542" x1="33" y1="742.31" x2="216.737" y2="742.31" gradientUnits="userSpaceOnUse">
<stop stop-color="#CEBB8B"/>
<stop offset="1" stop-color="#CEBB8B" stop-opacity="0.2"/>
</linearGradient>
<linearGradient id="paint18_linear_27_3542" x1="33" y1="742.31" x2="216.737" y2="742.31" gradientUnits="userSpaceOnUse">
<stop stop-color="#CEBB8B"/>
<stop offset="1" stop-color="#CEBB8B" stop-opacity="0.2"/>
</linearGradient>
<linearGradient id="paint19_linear_27_3542" x1="33" y1="742.31" x2="216.737" y2="742.31" gradientUnits="userSpaceOnUse">
<stop stop-color="#CEBB8B"/>
<stop offset="1" stop-color="#CEBB8B" stop-opacity="0.2"/>
</linearGradient>
<linearGradient id="paint20_linear_27_3542" x1="33" y1="742.31" x2="216.737" y2="742.31" gradientUnits="userSpaceOnUse">
<stop stop-color="#CEBB8B"/>
<stop offset="1" stop-color="#CEBB8B" stop-opacity="0.2"/>
</linearGradient>
<linearGradient id="paint21_linear_27_3542" x1="33" y1="742.31" x2="216.737" y2="742.31" gradientUnits="userSpaceOnUse">
<stop stop-color="#CEBB8B"/>
<stop offset="1" stop-color="#CEBB8B" stop-opacity="0.2"/>
</linearGradient>
<linearGradient id="paint22_linear_27_3542" x1="33" y1="742.31" x2="216.737" y2="742.31" gradientUnits="userSpaceOnUse">
<stop stop-color="#CEBB8B"/>
<stop offset="1" stop-color="#CEBB8B" stop-opacity="0.2"/>
</linearGradient>
<linearGradient id="paint23_linear_27_3542" x1="33" y1="742.31" x2="216.737" y2="742.31" gradientUnits="userSpaceOnUse">
<stop stop-color="#CEBB8B"/>
<stop offset="1" stop-color="#CEBB8B" stop-opacity="0.2"/>
</linearGradient>
<linearGradient id="paint24_linear_27_3542" x1="33" y1="742.31" x2="216.737" y2="742.31" gradientUnits="userSpaceOnUse">
<stop stop-color="#CEBB8B"/>
<stop offset="1" stop-color="#CEBB8B" stop-opacity="0.2"/>
</linearGradient>
<linearGradient id="paint25_linear_27_3542" x1="33" y1="742.31" x2="216.737" y2="742.31" gradientUnits="userSpaceOnUse">
<stop stop-color="#CEBB8B"/>
<stop offset="1" stop-color="#CEBB8B" stop-opacity="0.2"/>
</linearGradient>
<linearGradient id="paint26_linear_27_3542" x1="33" y1="742.31" x2="216.737" y2="742.31" gradientUnits="userSpaceOnUse">
<stop stop-color="#CEBB8B"/>
<stop offset="1" stop-color="#CEBB8B" stop-opacity="0.2"/>
</linearGradient>
<linearGradient id="paint27_linear_27_3542" x1="33" y1="742.31" x2="216.737" y2="742.31" gradientUnits="userSpaceOnUse">
<stop stop-color="#CEBB8B"/>
<stop offset="1" stop-color="#CEBB8B" stop-opacity="0.2"/>
</linearGradient>
<linearGradient id="paint28_linear_27_3542" x1="33" y1="742.31" x2="216.737" y2="742.31" gradientUnits="userSpaceOnUse">
<stop stop-color="#CEBB8B"/>
<stop offset="1" stop-color="#CEBB8B" stop-opacity="0.2"/>
</linearGradient>
<linearGradient id="paint29_linear_27_3542" x1="33" y1="742.31" x2="216.737" y2="742.31" gradientUnits="userSpaceOnUse">
<stop stop-color="#CEBB8B"/>
<stop offset="1" stop-color="#CEBB8B" stop-opacity="0.2"/>
</linearGradient>
<linearGradient id="paint30_linear_27_3542" x1="33" y1="742.31" x2="216.737" y2="742.31" gradientUnits="userSpaceOnUse">
<stop stop-color="#CEBB8B"/>
<stop offset="1" stop-color="#CEBB8B" stop-opacity="0.2"/>
</linearGradient>
<linearGradient id="paint31_linear_27_3542" x1="33" y1="742.31" x2="216.737" y2="742.31" gradientUnits="userSpaceOnUse">
<stop stop-color="#CEBB8B"/>
<stop offset="1" stop-color="#CEBB8B" stop-opacity="0.2"/>
</linearGradient>
<linearGradient id="paint32_linear_27_3542" x1="33" y1="742.31" x2="216.737" y2="742.31" gradientUnits="userSpaceOnUse">
<stop stop-color="#CEBB8B"/>
<stop offset="1" stop-color="#CEBB8B" stop-opacity="0.2"/>
</linearGradient>
<linearGradient id="paint33_linear_27_3542" x1="33" y1="742.31" x2="216.737" y2="742.31" gradientUnits="userSpaceOnUse">
<stop stop-color="#CEBB8B"/>
<stop offset="1" stop-color="#CEBB8B" stop-opacity="0.2"/>
</linearGradient>
<linearGradient id="paint34_linear_27_3542" x1="33" y1="742.31" x2="216.737" y2="742.31" gradientUnits="userSpaceOnUse">
<stop stop-color="#CEBB8B"/>
<stop offset="1" stop-color="#CEBB8B" stop-opacity="0.2"/>
</linearGradient>
<linearGradient id="paint35_linear_27_3542" x1="33" y1="742.31" x2="216.737" y2="742.31" gradientUnits="userSpaceOnUse">
<stop stop-color="#CEBB8B"/>
<stop offset="1" stop-color="#CEBB8B" stop-opacity="0.2"/>
</linearGradient>
<linearGradient id="paint36_linear_27_3542" x1="33" y1="742.31" x2="216.737" y2="742.31" gradientUnits="userSpaceOnUse">
<stop stop-color="#CEBB8B"/>
<stop offset="1" stop-color="#CEBB8B" stop-opacity="0.2"/>
</linearGradient>
<linearGradient id="paint37_linear_27_3542" x1="33" y1="742.31" x2="216.737" y2="742.31" gradientUnits="userSpaceOnUse">
<stop stop-color="#CEBB8B"/>
<stop offset="1" stop-color="#CEBB8B" stop-opacity="0.2"/>
</linearGradient>
<linearGradient id="paint38_linear_27_3542" x1="33" y1="742.31" x2="216.737" y2="742.31" gradientUnits="userSpaceOnUse">
<stop stop-color="#CEBB8B"/>
<stop offset="1" stop-color="#CEBB8B" stop-opacity="0.2"/>
</linearGradient>
<linearGradient id="paint39_linear_27_3542" x1="33" y1="742.31" x2="216.737" y2="742.31" gradientUnits="userSpaceOnUse">
<stop stop-color="#CEBB8B"/>
<stop offset="1" stop-color="#CEBB8B" stop-opacity="0.2"/>
</linearGradient>
<linearGradient id="paint40_linear_27_3542" x1="33" y1="742.31" x2="216.737" y2="742.31" gradientUnits="userSpaceOnUse">
<stop stop-color="#CEBB8B"/>
<stop offset="1" stop-color="#CEBB8B" stop-opacity="0.2"/>
</linearGradient>
<linearGradient id="paint41_linear_27_3542" x1="33" y1="742.31" x2="216.737" y2="742.31" gradientUnits="userSpaceOnUse">
<stop stop-color="#CEBB8B"/>
<stop offset="1" stop-color="#CEBB8B" stop-opacity="0.2"/>
</linearGradient>
<linearGradient id="paint42_linear_27_3542" x1="33" y1="742.31" x2="216.737" y2="742.31" gradientUnits="userSpaceOnUse">
<stop stop-color="#CEBB8B"/>
<stop offset="1" stop-color="#CEBB8B" stop-opacity="0.2"/>
</linearGradient>
<linearGradient id="paint43_linear_27_3542" x1="33" y1="742.31" x2="216.737" y2="742.31" gradientUnits="userSpaceOnUse">
<stop stop-color="#CEBB8B"/>
<stop offset="1" stop-color="#CEBB8B" stop-opacity="0.2"/>
</linearGradient>
<linearGradient id="paint44_linear_27_3542" x1="33" y1="742.31" x2="216.737" y2="742.31" gradientUnits="userSpaceOnUse">
<stop stop-color="#CEBB8B"/>
<stop offset="1" stop-color="#CEBB8B" stop-opacity="0.2"/>
</linearGradient>
<linearGradient id="paint45_linear_27_3542" x1="33" y1="742.31" x2="216.737" y2="742.31" gradientUnits="userSpaceOnUse">
<stop stop-color="#CEBB8B"/>
<stop offset="1" stop-color="#CEBB8B" stop-opacity="0.2"/>
</linearGradient>
<linearGradient id="paint46_linear_27_3542" x1="33" y1="742.31" x2="216.737" y2="742.31" gradientUnits="userSpaceOnUse">
<stop stop-color="#CEBB8B"/>
<stop offset="1" stop-color="#CEBB8B" stop-opacity="0.2"/>
</linearGradient>
<linearGradient id="paint47_linear_27_3542" x1="33" y1="742.31" x2="216.737" y2="742.31" gradientUnits="userSpaceOnUse">
<stop stop-color="#CEBB8B"/>
<stop offset="1" stop-color="#CEBB8B" stop-opacity="0.2"/>
</linearGradient>
<linearGradient id="paint48_linear_27_3542" x1="33" y1="742.31" x2="216.737" y2="742.31" gradientUnits="userSpaceOnUse">
<stop stop-color="#CEBB8B"/>
<stop offset="1" stop-color="#CEBB8B" stop-opacity="0.2"/>
</linearGradient>
<linearGradient id="paint49_linear_27_3542" x1="33" y1="742.31" x2="216.737" y2="742.31" gradientUnits="userSpaceOnUse">
<stop stop-color="#CEBB8B"/>
<stop offset="1" stop-color="#CEBB8B" stop-opacity="0.2"/>
</linearGradient>
<linearGradient id="paint50_linear_27_3542" x1="33" y1="742.31" x2="216.737" y2="742.31" gradientUnits="userSpaceOnUse">
<stop stop-color="#CEBB8B"/>
<stop offset="1" stop-color="#CEBB8B" stop-opacity="0.2"/>
</linearGradient>
<linearGradient id="paint51_linear_27_3542" x1="33" y1="742.31" x2="216.737" y2="742.31" gradientUnits="userSpaceOnUse">
<stop stop-color="#CEBB8B"/>
<stop offset="1" stop-color="#CEBB8B" stop-opacity="0.2"/>
</linearGradient>
<linearGradient id="paint52_linear_27_3542" x1="33" y1="742.31" x2="216.737" y2="742.31" gradientUnits="userSpaceOnUse">
<stop stop-color="#CEBB8B"/>
<stop offset="1" stop-color="#CEBB8B" stop-opacity="0.2"/>
</linearGradient>
<linearGradient id="paint53_linear_27_3542" x1="33" y1="742.31" x2="216.737" y2="742.31" gradientUnits="userSpaceOnUse">
<stop stop-color="#CEBB8B"/>
<stop offset="1" stop-color="#CEBB8B" stop-opacity="0.2"/>
</linearGradient>
<linearGradient id="paint54_linear_27_3542" x1="33" y1="742.31" x2="216.737" y2="742.31" gradientUnits="userSpaceOnUse">
<stop stop-color="#CEBB8B"/>
<stop offset="1" stop-color="#CEBB8B" stop-opacity="0.2"/>
</linearGradient>
<linearGradient id="paint55_linear_27_3542" x1="33" y1="742.31" x2="216.737" y2="742.31" gradientUnits="userSpaceOnUse">
<stop stop-color="#CEBB8B"/>
<stop offset="1" stop-color="#CEBB8B" stop-opacity="0.2"/>
</linearGradient>
<linearGradient id="paint56_linear_27_3542" x1="33" y1="742.31" x2="216.737" y2="742.31" gradientUnits="userSpaceOnUse">
<stop stop-color="#CEBB8B"/>
<stop offset="1" stop-color="#CEBB8B" stop-opacity="0.2"/>
</linearGradient>
<linearGradient id="paint57_linear_27_3542" x1="33" y1="742.31" x2="216.737" y2="742.31" gradientUnits="userSpaceOnUse">
<stop stop-color="#CEBB8B"/>
<stop offset="1" stop-color="#CEBB8B" stop-opacity="0.2"/>
</linearGradient>
<linearGradient id="paint58_linear_27_3542" x1="33" y1="742.31" x2="216.737" y2="742.31" gradientUnits="userSpaceOnUse">
<stop stop-color="#CEBB8B"/>
<stop offset="1" stop-color="#CEBB8B" stop-opacity="0.2"/>
</linearGradient>
<linearGradient id="paint59_linear_27_3542" x1="33" y1="742.31" x2="216.737" y2="742.31" gradientUnits="userSpaceOnUse">
<stop stop-color="#CEBB8B"/>
<stop offset="1" stop-color="#CEBB8B" stop-opacity="0.2"/>
</linearGradient>
<linearGradient id="paint60_linear_27_3542" x1="33" y1="742.31" x2="216.737" y2="742.31" gradientUnits="userSpaceOnUse">
<stop stop-color="#CEBB8B"/>
<stop offset="1" stop-color="#CEBB8B" stop-opacity="0.2"/>
</linearGradient>
<linearGradient id="paint61_linear_27_3542" x1="33" y1="742.31" x2="216.737" y2="742.31" gradientUnits="userSpaceOnUse">
<stop stop-color="#CEBB8B"/>
<stop offset="1" stop-color="#CEBB8B" stop-opacity="0.2"/>
</linearGradient>
<linearGradient id="paint62_linear_27_3542" x1="33" y1="742.31" x2="216.737" y2="742.31" gradientUnits="userSpaceOnUse">
<stop stop-color="#CEBB8B"/>
<stop offset="1" stop-color="#CEBB8B" stop-opacity="0.2"/>
</linearGradient>
<linearGradient id="paint63_linear_27_3542" x1="33" y1="742.31" x2="216.737" y2="742.31" gradientUnits="userSpaceOnUse">
<stop stop-color="#CEBB8B"/>
<stop offset="1" stop-color="#CEBB8B" stop-opacity="0.2"/>
</linearGradient>
<linearGradient id="paint64_linear_27_3542" x1="33" y1="742.31" x2="216.737" y2="742.31" gradientUnits="userSpaceOnUse">
<stop stop-color="#CEBB8B"/>
<stop offset="1" stop-color="#CEBB8B" stop-opacity="0.2"/>
</linearGradient>
<linearGradient id="paint65_linear_27_3542" x1="33" y1="742.31" x2="216.737" y2="742.31" gradientUnits="userSpaceOnUse">
<stop stop-color="#CEBB8B"/>
<stop offset="1" stop-color="#CEBB8B" stop-opacity="0.2"/>
</linearGradient>
<linearGradient id="paint66_linear_27_3542" x1="33" y1="742.31" x2="216.737" y2="742.31" gradientUnits="userSpaceOnUse">
<stop stop-color="#CEBB8B"/>
<stop offset="1" stop-color="#CEBB8B" stop-opacity="0.2"/>
</linearGradient>
<linearGradient id="paint67_linear_27_3542" x1="33" y1="742.31" x2="216.737" y2="742.31" gradientUnits="userSpaceOnUse">
<stop stop-color="#CEBB8B"/>
<stop offset="1" stop-color="#CEBB8B" stop-opacity="0.2"/>
</linearGradient>
<linearGradient id="paint68_linear_27_3542" x1="33" y1="742.31" x2="216.737" y2="742.31" gradientUnits="userSpaceOnUse">
<stop stop-color="#CEBB8B"/>
<stop offset="1" stop-color="#CEBB8B" stop-opacity="0.2"/>
</linearGradient>
<linearGradient id="paint69_linear_27_3542" x1="33" y1="742.31" x2="216.737" y2="742.31" gradientUnits="userSpaceOnUse">
<stop stop-color="#CEBB8B"/>
<stop offset="1" stop-color="#CEBB8B" stop-opacity="0.2"/>
</linearGradient>
<linearGradient id="paint70_linear_27_3542" x1="33" y1="742.31" x2="216.737" y2="742.31" gradientUnits="userSpaceOnUse">
<stop stop-color="#CEBB8B"/>
<stop offset="1" stop-color="#CEBB8B" stop-opacity="0.2"/>
</linearGradient>
<linearGradient id="paint71_linear_27_3542" x1="33" y1="742.31" x2="216.737" y2="742.31" gradientUnits="userSpaceOnUse">
<stop stop-color="#CEBB8B"/>
<stop offset="1" stop-color="#CEBB8B" stop-opacity="0.2"/>
</linearGradient>
<linearGradient id="paint72_linear_27_3542" x1="33" y1="742.31" x2="216.737" y2="742.31" gradientUnits="userSpaceOnUse">
<stop stop-color="#CEBB8B"/>
<stop offset="1" stop-color="#CEBB8B" stop-opacity="0.2"/>
</linearGradient>
<linearGradient id="paint73_linear_27_3542" x1="33" y1="742.31" x2="216.737" y2="742.31" gradientUnits="userSpaceOnUse">
<stop stop-color="#CEBB8B"/>
<stop offset="1" stop-color="#CEBB8B" stop-opacity="0.2"/>
</linearGradient>
<linearGradient id="paint74_linear_27_3542" x1="33" y1="742.31" x2="216.737" y2="742.31" gradientUnits="userSpaceOnUse">
<stop stop-color="#CEBB8B"/>
<stop offset="1" stop-color="#CEBB8B" stop-opacity="0.2"/>
</linearGradient>
<linearGradient id="paint75_linear_27_3542" x1="33" y1="742.31" x2="216.737" y2="742.31" gradientUnits="userSpaceOnUse">
<stop stop-color="#CEBB8B"/>
<stop offset="1" stop-color="#CEBB8B" stop-opacity="0.2"/>
</linearGradient>
<linearGradient id="paint76_linear_27_3542" x1="33" y1="742.31" x2="216.737" y2="742.31" gradientUnits="userSpaceOnUse">
<stop stop-color="#CEBB8B"/>
<stop offset="1" stop-color="#CEBB8B" stop-opacity="0.2"/>
</linearGradient>
<linearGradient id="paint77_linear_27_3542" x1="33" y1="742.31" x2="216.737" y2="742.31" gradientUnits="userSpaceOnUse">
<stop stop-color="#CEBB8B"/>
<stop offset="1" stop-color="#CEBB8B" stop-opacity="0.2"/>
</linearGradient>
<linearGradient id="paint78_linear_27_3542" x1="33" y1="742.31" x2="216.737" y2="742.31" gradientUnits="userSpaceOnUse">
<stop stop-color="#CEBB8B"/>
<stop offset="1" stop-color="#CEBB8B" stop-opacity="0.2"/>
</linearGradient>
<linearGradient id="paint79_linear_27_3542" x1="33" y1="742.31" x2="216.737" y2="742.31" gradientUnits="userSpaceOnUse">
<stop stop-color="#CEBB8B"/>
<stop offset="1" stop-color="#CEBB8B" stop-opacity="0.2"/>
</linearGradient>
<linearGradient id="paint80_linear_27_3542" x1="33" y1="742.31" x2="216.737" y2="742.31" gradientUnits="userSpaceOnUse">
<stop stop-color="#CEBB8B"/>
<stop offset="1" stop-color="#CEBB8B" stop-opacity="0.2"/>
</linearGradient>
<linearGradient id="paint81_linear_27_3542" x1="33" y1="742.31" x2="216.737" y2="742.31" gradientUnits="userSpaceOnUse">
<stop stop-color="#CEBB8B"/>
<stop offset="1" stop-color="#CEBB8B" stop-opacity="0.2"/>
</linearGradient>
<linearGradient id="paint82_linear_27_3542" x1="33" y1="742.31" x2="216.737" y2="742.31" gradientUnits="userSpaceOnUse">
<stop stop-color="#CEBB8B"/>
<stop offset="1" stop-color="#CEBB8B" stop-opacity="0.2"/>
</linearGradient>
<linearGradient id="paint83_linear_27_3542" x1="33" y1="742.31" x2="216.737" y2="742.31" gradientUnits="userSpaceOnUse">
<stop stop-color="#CEBB8B"/>
<stop offset="1" stop-color="#CEBB8B" stop-opacity="0.2"/>
</linearGradient>
<linearGradient id="paint84_linear_27_3542" x1="33" y1="742.31" x2="216.737" y2="742.31" gradientUnits="userSpaceOnUse">
<stop stop-color="#CEBB8B"/>
<stop offset="1" stop-color="#CEBB8B" stop-opacity="0.2"/>
</linearGradient>
<linearGradient id="paint85_linear_27_3542" x1="33" y1="742.31" x2="216.737" y2="742.31" gradientUnits="userSpaceOnUse">
<stop stop-color="#CEBB8B"/>
<stop offset="1" stop-color="#CEBB8B" stop-opacity="0.2"/>
</linearGradient>
<linearGradient id="paint86_linear_27_3542" x1="33" y1="742.31" x2="216.737" y2="742.31" gradientUnits="userSpaceOnUse">
<stop stop-color="#CEBB8B"/>
<stop offset="1" stop-color="#CEBB8B" stop-opacity="0.2"/>
</linearGradient>
<linearGradient id="paint87_linear_27_3542" x1="33" y1="742.31" x2="216.737" y2="742.31" gradientUnits="userSpaceOnUse">
<stop stop-color="#CEBB8B"/>
<stop offset="1" stop-color="#CEBB8B" stop-opacity="0.2"/>
</linearGradient>
<linearGradient id="paint88_linear_27_3542" x1="33" y1="742.31" x2="216.737" y2="742.31" gradientUnits="userSpaceOnUse">
<stop stop-color="#CEBB8B"/>
<stop offset="1" stop-color="#CEBB8B" stop-opacity="0.2"/>
</linearGradient>
<linearGradient id="paint89_linear_27_3542" x1="33" y1="742.31" x2="216.737" y2="742.31" gradientUnits="userSpaceOnUse">
<stop stop-color="#CEBB8B"/>
<stop offset="1" stop-color="#CEBB8B" stop-opacity="0.2"/>
</linearGradient>
<linearGradient id="paint90_linear_27_3542" x1="33" y1="742.31" x2="216.737" y2="742.31" gradientUnits="userSpaceOnUse">
<stop stop-color="#CEBB8B"/>
<stop offset="1" stop-color="#CEBB8B" stop-opacity="0.2"/>
</linearGradient>
<linearGradient id="paint91_linear_27_3542" x1="33" y1="742.31" x2="216.737" y2="742.31" gradientUnits="userSpaceOnUse">
<stop stop-color="#CEBB8B"/>
<stop offset="1" stop-color="#CEBB8B" stop-opacity="0.2"/>
</linearGradient>
<linearGradient id="paint92_linear_27_3542" x1="33" y1="742.31" x2="216.737" y2="742.31" gradientUnits="userSpaceOnUse">
<stop stop-color="#CEBB8B"/>
<stop offset="1" stop-color="#CEBB8B" stop-opacity="0.2"/>
</linearGradient>
<linearGradient id="paint93_linear_27_3542" x1="33" y1="742.31" x2="216.737" y2="742.31" gradientUnits="userSpaceOnUse">
<stop stop-color="#CEBB8B"/>
<stop offset="1" stop-color="#CEBB8B" stop-opacity="0.2"/>
</linearGradient>
<linearGradient id="paint94_linear_27_3542" x1="33" y1="742.31" x2="216.737" y2="742.31" gradientUnits="userSpaceOnUse">
<stop stop-color="#CEBB8B"/>
<stop offset="1" stop-color="#CEBB8B" stop-opacity="0.2"/>
</linearGradient>
<linearGradient id="paint95_linear_27_3542" x1="33" y1="742.31" x2="216.737" y2="742.31" gradientUnits="userSpaceOnUse">
<stop stop-color="#CEBB8B"/>
<stop offset="1" stop-color="#CEBB8B" stop-opacity="0.2"/>
</linearGradient>
<linearGradient id="paint96_linear_27_3542" x1="33" y1="742.31" x2="216.737" y2="742.31" gradientUnits="userSpaceOnUse">
<stop stop-color="#CEBB8B"/>
<stop offset="1" stop-color="#CEBB8B" stop-opacity="0.2"/>
</linearGradient>
<linearGradient id="paint97_linear_27_3542" x1="33" y1="742.31" x2="216.737" y2="742.31" gradientUnits="userSpaceOnUse">
<stop stop-color="#CEBB8B"/>
<stop offset="1" stop-color="#CEBB8B" stop-opacity="0.2"/>
</linearGradient>
<linearGradient id="paint98_linear_27_3542" x1="33" y1="742.31" x2="216.737" y2="742.31" gradientUnits="userSpaceOnUse">
<stop stop-color="#CEBB8B"/>
<stop offset="1" stop-color="#CEBB8B" stop-opacity="0.2"/>
</linearGradient>
<linearGradient id="paint99_linear_27_3542" x1="33" y1="742.31" x2="216.737" y2="742.31" gradientUnits="userSpaceOnUse">
<stop stop-color="#CEBB8B"/>
<stop offset="1" stop-color="#CEBB8B" stop-opacity="0.2"/>
</linearGradient>
<linearGradient id="paint100_linear_27_3542" x1="33" y1="742.31" x2="216.737" y2="742.31" gradientUnits="userSpaceOnUse">
<stop stop-color="#CEBB8B"/>
<stop offset="1" stop-color="#CEBB8B" stop-opacity="0.2"/>
</linearGradient>
<linearGradient id="paint101_linear_27_3542" x1="33" y1="742.31" x2="216.737" y2="742.31" gradientUnits="userSpaceOnUse">
<stop stop-color="#CEBB8B"/>
<stop offset="1" stop-color="#CEBB8B" stop-opacity="0.2"/>
</linearGradient>
<linearGradient id="paint102_linear_27_3542" x1="33" y1="742.31" x2="216.737" y2="742.31" gradientUnits="userSpaceOnUse">
<stop stop-color="#CEBB8B"/>
<stop offset="1" stop-color="#CEBB8B" stop-opacity="0.2"/>
</linearGradient>
<linearGradient id="paint103_linear_27_3542" x1="33" y1="742.31" x2="216.737" y2="742.31" gradientUnits="userSpaceOnUse">
<stop stop-color="#CEBB8B"/>
<stop offset="1" stop-color="#CEBB8B" stop-opacity="0.2"/>
</linearGradient>
<linearGradient id="paint104_linear_27_3542" x1="33" y1="742.31" x2="216.737" y2="742.31" gradientUnits="userSpaceOnUse">
<stop stop-color="#CEBB8B"/>
<stop offset="1" stop-color="#CEBB8B" stop-opacity="0.2"/>
</linearGradient>
<linearGradient id="paint105_linear_27_3542" x1="33" y1="742.31" x2="216.737" y2="742.31" gradientUnits="userSpaceOnUse">
<stop stop-color="#CEBB8B"/>
<stop offset="1" stop-color="#CEBB8B" stop-opacity="0.2"/>
</linearGradient>
<linearGradient id="paint106_linear_27_3542" x1="33" y1="742.31" x2="216.737" y2="742.31" gradientUnits="userSpaceOnUse">
<stop stop-color="#CEBB8B"/>
<stop offset="1" stop-color="#CEBB8B" stop-opacity="0.2"/>
</linearGradient>
<linearGradient id="paint107_linear_27_3542" x1="33" y1="742.31" x2="216.737" y2="742.31" gradientUnits="userSpaceOnUse">
<stop stop-color="#CEBB8B"/>
<stop offset="1" stop-color="#CEBB8B" stop-opacity="0.2"/>
</linearGradient>
<linearGradient id="paint108_linear_27_3542" x1="33" y1="742.31" x2="216.737" y2="742.31" gradientUnits="userSpaceOnUse">
<stop stop-color="#CEBB8B"/>
<stop offset="1" stop-color="#CEBB8B" stop-opacity="0.2"/>
</linearGradient>
<linearGradient id="paint109_linear_27_3542" x1="33" y1="742.31" x2="216.737" y2="742.31" gradientUnits="userSpaceOnUse">
<stop stop-color="#CEBB8B"/>
<stop offset="1" stop-color="#CEBB8B" stop-opacity="0.2"/>
</linearGradient>
<linearGradient id="paint110_linear_27_3542" x1="33" y1="742.31" x2="216.737" y2="742.31" gradientUnits="userSpaceOnUse">
<stop stop-color="#CEBB8B"/>
<stop offset="1" stop-color="#CEBB8B" stop-opacity="0.2"/>
</linearGradient>
<linearGradient id="paint111_linear_27_3542" x1="33" y1="742.31" x2="216.737" y2="742.31" gradientUnits="userSpaceOnUse">
<stop stop-color="#CEBB8B"/>
<stop offset="1" stop-color="#CEBB8B" stop-opacity="0.2"/>
</linearGradient>
<linearGradient id="paint112_linear_27_3542" x1="33" y1="742.31" x2="216.737" y2="742.31" gradientUnits="userSpaceOnUse">
<stop stop-color="#CEBB8B"/>
<stop offset="1" stop-color="#CEBB8B" stop-opacity="0.2"/>
</linearGradient>
<linearGradient id="paint113_linear_27_3542" x1="33" y1="742.31" x2="216.737" y2="742.31" gradientUnits="userSpaceOnUse">
<stop stop-color="#CEBB8B"/>
<stop offset="1" stop-color="#CEBB8B" stop-opacity="0.2"/>
</linearGradient>
<linearGradient id="paint114_linear_27_3542" x1="33" y1="742.31" x2="216.737" y2="742.31" gradientUnits="userSpaceOnUse">
<stop stop-color="#CEBB8B"/>
<stop offset="1" stop-color="#CEBB8B" stop-opacity="0.2"/>
</linearGradient>
<linearGradient id="paint115_linear_27_3542" x1="33" y1="742.31" x2="216.737" y2="742.31" gradientUnits="userSpaceOnUse">
<stop stop-color="#CEBB8B"/>
<stop offset="1" stop-color="#CEBB8B" stop-opacity="0.2"/>
</linearGradient>
<linearGradient id="paint116_linear_27_3542" x1="33" y1="742.31" x2="216.737" y2="742.31" gradientUnits="userSpaceOnUse">
<stop stop-color="#CEBB8B"/>
<stop offset="1" stop-color="#CEBB8B" stop-opacity="0.2"/>
</linearGradient>
<linearGradient id="paint117_linear_27_3542" x1="33" y1="742.31" x2="216.737" y2="742.31" gradientUnits="userSpaceOnUse">
<stop stop-color="#CEBB8B"/>
<stop offset="1" stop-color="#CEBB8B" stop-opacity="0.2"/>
</linearGradient>
<linearGradient id="paint118_linear_27_3542" x1="33" y1="742.31" x2="216.737" y2="742.31" gradientUnits="userSpaceOnUse">
<stop stop-color="#CEBB8B"/>
<stop offset="1" stop-color="#CEBB8B" stop-opacity="0.2"/>
</linearGradient>
<linearGradient id="paint119_linear_27_3542" x1="33" y1="742.31" x2="216.737" y2="742.31" gradientUnits="userSpaceOnUse">
<stop stop-color="#CEBB8B"/>
<stop offset="1" stop-color="#CEBB8B" stop-opacity="0.2"/>
</linearGradient>
<linearGradient id="paint120_linear_27_3542" x1="33" y1="742.31" x2="216.737" y2="742.31" gradientUnits="userSpaceOnUse">
<stop stop-color="#CEBB8B"/>
<stop offset="1" stop-color="#CEBB8B" stop-opacity="0.2"/>
</linearGradient>
<linearGradient id="paint121_linear_27_3542" x1="33" y1="742.31" x2="216.737" y2="742.31" gradientUnits="userSpaceOnUse">
<stop stop-color="#CEBB8B"/>
<stop offset="1" stop-color="#CEBB8B" stop-opacity="0.2"/>
</linearGradient>
<linearGradient id="paint122_linear_27_3542" x1="33" y1="742.31" x2="216.737" y2="742.31" gradientUnits="userSpaceOnUse">
<stop stop-color="#CEBB8B"/>
<stop offset="1" stop-color="#CEBB8B" stop-opacity="0.2"/>
</linearGradient>
<linearGradient id="paint123_linear_27_3542" x1="33" y1="742.31" x2="216.737" y2="742.31" gradientUnits="userSpaceOnUse">
<stop stop-color="#CEBB8B"/>
<stop offset="1" stop-color="#CEBB8B" stop-opacity="0.2"/>
</linearGradient>
<linearGradient id="paint124_linear_27_3542" x1="33" y1="742.31" x2="216.737" y2="742.31" gradientUnits="userSpaceOnUse">
<stop stop-color="#CEBB8B"/>
<stop offset="1" stop-color="#CEBB8B" stop-opacity="0.2"/>
</linearGradient>
<linearGradient id="paint125_linear_27_3542" x1="33" y1="742.31" x2="216.737" y2="742.31" gradientUnits="userSpaceOnUse">
<stop stop-color="#CEBB8B"/>
<stop offset="1" stop-color="#CEBB8B" stop-opacity="0.2"/>
</linearGradient>
<linearGradient id="paint126_linear_27_3542" x1="33" y1="742.31" x2="216.737" y2="742.31" gradientUnits="userSpaceOnUse">
<stop stop-color="#CEBB8B"/>
<stop offset="1" stop-color="#CEBB8B" stop-opacity="0.2"/>
</linearGradient>
<linearGradient id="paint127_linear_27_3542" x1="33" y1="742.31" x2="216.737" y2="742.31" gradientUnits="userSpaceOnUse">
<stop stop-color="#CEBB8B"/>
<stop offset="1" stop-color="#CEBB8B" stop-opacity="0.2"/>
</linearGradient>
<linearGradient id="paint128_linear_27_3542" x1="33" y1="742.31" x2="216.737" y2="742.31" gradientUnits="userSpaceOnUse">
<stop stop-color="#CEBB8B"/>
<stop offset="1" stop-color="#CEBB8B" stop-opacity="0.2"/>
</linearGradient>
<linearGradient id="paint129_linear_27_3542" x1="33" y1="742.31" x2="216.737" y2="742.31" gradientUnits="userSpaceOnUse">
<stop stop-color="#CEBB8B"/>
<stop offset="1" stop-color="#CEBB8B" stop-opacity="0.2"/>
</linearGradient>
<linearGradient id="paint130_linear_27_3542" x1="33" y1="742.31" x2="216.737" y2="742.31" gradientUnits="userSpaceOnUse">
<stop stop-color="#CEBB8B"/>
<stop offset="1" stop-color="#CEBB8B" stop-opacity="0.2"/>
</linearGradient>
<linearGradient id="paint131_linear_27_3542" x1="33" y1="742.31" x2="216.737" y2="742.31" gradientUnits="userSpaceOnUse">
<stop stop-color="#CEBB8B"/>
<stop offset="1" stop-color="#CEBB8B" stop-opacity="0.2"/>
</linearGradient>
<linearGradient id="paint132_linear_27_3542" x1="33" y1="742.31" x2="216.737" y2="742.31" gradientUnits="userSpaceOnUse">
<stop stop-color="#CEBB8B"/>
<stop offset="1" stop-color="#CEBB8B" stop-opacity="0.2"/>
</linearGradient>
<linearGradient id="paint133_linear_27_3542" x1="33" y1="742.31" x2="216.737" y2="742.31" gradientUnits="userSpaceOnUse">
<stop stop-color="#CEBB8B"/>
<stop offset="1" stop-color="#CEBB8B" stop-opacity="0.2"/>
</linearGradient>
<linearGradient id="paint134_linear_27_3542" x1="33" y1="742.31" x2="216.737" y2="742.31" gradientUnits="userSpaceOnUse">
<stop stop-color="#CEBB8B"/>
<stop offset="1" stop-color="#CEBB8B" stop-opacity="0.2"/>
</linearGradient>
<linearGradient id="paint135_linear_27_3542" x1="33" y1="742.31" x2="216.737" y2="742.31" gradientUnits="userSpaceOnUse">
<stop stop-color="#CEBB8B"/>
<stop offset="1" stop-color="#CEBB8B" stop-opacity="0.2"/>
</linearGradient>
<linearGradient id="paint136_linear_27_3542" x1="33" y1="742.31" x2="216.737" y2="742.31" gradientUnits="userSpaceOnUse">
<stop stop-color="#CEBB8B"/>
<stop offset="1" stop-color="#CEBB8B" stop-opacity="0.2"/>
</linearGradient>
<linearGradient id="paint137_linear_27_3542" x1="33" y1="742.31" x2="216.737" y2="742.31" gradientUnits="userSpaceOnUse">
<stop stop-color="#CEBB8B"/>
<stop offset="1" stop-color="#CEBB8B" stop-opacity="0.2"/>
</linearGradient>
<linearGradient id="paint138_linear_27_3542" x1="33" y1="742.31" x2="216.737" y2="742.31" gradientUnits="userSpaceOnUse">
<stop stop-color="#CEBB8B"/>
<stop offset="1" stop-color="#CEBB8B" stop-opacity="0.2"/>
</linearGradient>
<linearGradient id="paint139_linear_27_3542" x1="33" y1="742.31" x2="216.737" y2="742.31" gradientUnits="userSpaceOnUse">
<stop stop-color="#CEBB8B"/>
<stop offset="1" stop-color="#CEBB8B" stop-opacity="0.2"/>
</linearGradient>
<linearGradient id="paint140_linear_27_3542" x1="33" y1="742.31" x2="216.737" y2="742.31" gradientUnits="userSpaceOnUse">
<stop stop-color="#CEBB8B"/>
<stop offset="1" stop-color="#CEBB8B" stop-opacity="0.2"/>
</linearGradient>
<linearGradient id="paint141_linear_27_3542" x1="33" y1="742.31" x2="216.737" y2="742.31" gradientUnits="userSpaceOnUse">
<stop stop-color="#CEBB8B"/>
<stop offset="1" stop-color="#CEBB8B" stop-opacity="0.2"/>
</linearGradient>
<linearGradient id="paint142_linear_27_3542" x1="33" y1="742.31" x2="216.737" y2="742.31" gradientUnits="userSpaceOnUse">
<stop stop-color="#CEBB8B"/>
<stop offset="1" stop-color="#CEBB8B" stop-opacity="0.2"/>
</linearGradient>
<linearGradient id="paint143_linear_27_3542" x1="33" y1="742.31" x2="216.737" y2="742.31" gradientUnits="userSpaceOnUse">
<stop stop-color="#CEBB8B"/>
<stop offset="1" stop-color="#CEBB8B" stop-opacity="0.2"/>
</linearGradient>
<linearGradient id="paint144_linear_27_3542" x1="33" y1="742.31" x2="216.737" y2="742.31" gradientUnits="userSpaceOnUse">
<stop stop-color="#CEBB8B"/>
<stop offset="1" stop-color="#CEBB8B" stop-opacity="0.2"/>
</linearGradient>
<linearGradient id="paint145_linear_27_3542" x1="33" y1="742.31" x2="216.737" y2="742.31" gradientUnits="userSpaceOnUse">
<stop stop-color="#CEBB8B"/>
<stop offset="1" stop-color="#CEBB8B" stop-opacity="0.2"/>
</linearGradient>
<linearGradient id="paint146_linear_27_3542" x1="33" y1="742.31" x2="216.737" y2="742.31" gradientUnits="userSpaceOnUse">
<stop stop-color="#CEBB8B"/>
<stop offset="1" stop-color="#CEBB8B" stop-opacity="0.2"/>
</linearGradient>
<linearGradient id="paint147_linear_27_3542" x1="33" y1="742.31" x2="216.737" y2="742.31" gradientUnits="userSpaceOnUse">
<stop stop-color="#CEBB8B"/>
<stop offset="1" stop-color="#CEBB8B" stop-opacity="0.2"/>
</linearGradient>
<linearGradient id="paint148_linear_27_3542" x1="33" y1="742.31" x2="216.737" y2="742.31" gradientUnits="userSpaceOnUse">
<stop stop-color="#CEBB8B"/>
<stop offset="1" stop-color="#CEBB8B" stop-opacity="0.2"/>
</linearGradient>
<linearGradient id="paint149_linear_27_3542" x1="33" y1="742.31" x2="216.737" y2="742.31" gradientUnits="userSpaceOnUse">
<stop stop-color="#CEBB8B"/>
<stop offset="1" stop-color="#CEBB8B" stop-opacity="0.2"/>
</linearGradient>
<linearGradient id="paint150_linear_27_3542" x1="33" y1="742.31" x2="216.737" y2="742.31" gradientUnits="userSpaceOnUse">
<stop stop-color="#CEBB8B"/>
<stop offset="1" stop-color="#CEBB8B" stop-opacity="0.2"/>
</linearGradient>
<linearGradient id="paint151_linear_27_3542" x1="33" y1="742.31" x2="216.737" y2="742.31" gradientUnits="userSpaceOnUse">
<stop stop-color="#CEBB8B"/>
<stop offset="1" stop-color="#CEBB8B" stop-opacity="0.2"/>
</linearGradient>
<linearGradient id="paint152_linear_27_3542" x1="33" y1="742.31" x2="216.737" y2="742.31" gradientUnits="userSpaceOnUse">
<stop stop-color="#CEBB8B"/>
<stop offset="1" stop-color="#CEBB8B" stop-opacity="0.2"/>
</linearGradient>
<linearGradient id="paint153_linear_27_3542" x1="33" y1="742.31" x2="216.737" y2="742.31" gradientUnits="userSpaceOnUse">
<stop stop-color="#CEBB8B"/>
<stop offset="1" stop-color="#CEBB8B" stop-opacity="0.2"/>
</linearGradient>
<linearGradient id="paint154_linear_27_3542" x1="33" y1="742.31" x2="216.737" y2="742.31" gradientUnits="userSpaceOnUse">
<stop stop-color="#CEBB8B"/>
<stop offset="1" stop-color="#CEBB8B" stop-opacity="0.2"/>
</linearGradient>
<linearGradient id="paint155_linear_27_3542" x1="33" y1="742.31" x2="216.737" y2="742.31" gradientUnits="userSpaceOnUse">
<stop stop-color="#CEBB8B"/>
<stop offset="1" stop-color="#CEBB8B" stop-opacity="0.2"/>
</linearGradient>
<linearGradient id="paint156_linear_27_3542" x1="33" y1="742.31" x2="216.737" y2="742.31" gradientUnits="userSpaceOnUse">
<stop stop-color="#CEBB8B"/>
<stop offset="1" stop-color="#CEBB8B" stop-opacity="0.2"/>
</linearGradient>
<linearGradient id="paint157_linear_27_3542" x1="33" y1="742.31" x2="216.737" y2="742.31" gradientUnits="userSpaceOnUse">
<stop stop-color="#CEBB8B"/>
<stop offset="1" stop-color="#CEBB8B" stop-opacity="0.2"/>
</linearGradient>
<linearGradient id="paint158_linear_27_3542" x1="33" y1="742.31" x2="216.737" y2="742.31" gradientUnits="userSpaceOnUse">
<stop stop-color="#CEBB8B"/>
<stop offset="1" stop-color="#CEBB8B" stop-opacity="0.2"/>
</linearGradient>
<linearGradient id="paint159_linear_27_3542" x1="33" y1="742.31" x2="216.737" y2="742.31" gradientUnits="userSpaceOnUse">
<stop stop-color="#CEBB8B"/>
<stop offset="1" stop-color="#CEBB8B" stop-opacity="0.2"/>
</linearGradient>
<linearGradient id="paint160_linear_27_3542" x1="33" y1="742.31" x2="216.737" y2="742.31" gradientUnits="userSpaceOnUse">
<stop stop-color="#CEBB8B"/>
<stop offset="1" stop-color="#CEBB8B" stop-opacity="0.2"/>
</linearGradient>
<linearGradient id="paint161_linear_27_3542" x1="33" y1="742.31" x2="216.737" y2="742.31" gradientUnits="userSpaceOnUse">
<stop stop-color="#CEBB8B"/>
<stop offset="1" stop-color="#CEBB8B" stop-opacity="0.2"/>
</linearGradient>
<linearGradient id="paint162_linear_27_3542" x1="33" y1="742.31" x2="216.737" y2="742.31" gradientUnits="userSpaceOnUse">
<stop stop-color="#CEBB8B"/>
<stop offset="1" stop-color="#CEBB8B" stop-opacity="0.2"/>
</linearGradient>
<linearGradient id="paint163_linear_27_3542" x1="33" y1="742.31" x2="216.737" y2="742.31" gradientUnits="userSpaceOnUse">
<stop stop-color="#CEBB8B"/>
<stop offset="1" stop-color="#CEBB8B" stop-opacity="0.2"/>
</linearGradient>
<linearGradient id="paint164_linear_27_3542" x1="33" y1="742.31" x2="216.737" y2="742.31" gradientUnits="userSpaceOnUse">
<stop stop-color="#CEBB8B"/>
<stop offset="1" stop-color="#CEBB8B" stop-opacity="0.2"/>
</linearGradient>
<linearGradient id="paint165_linear_27_3542" x1="33" y1="742.31" x2="216.737" y2="742.31" gradientUnits="userSpaceOnUse">
<stop stop-color="#CEBB8B"/>
<stop offset="1" stop-color="#CEBB8B" stop-opacity="0.2"/>
</linearGradient>
<linearGradient id="paint166_linear_27_3542" x1="33" y1="742.31" x2="216.737" y2="742.31" gradientUnits="userSpaceOnUse">
<stop stop-color="#CEBB8B"/>
<stop offset="1" stop-color="#CEBB8B" stop-opacity="0.2"/>
</linearGradient>
<linearGradient id="paint167_linear_27_3542" x1="33" y1="742.31" x2="216.737" y2="742.31" gradientUnits="userSpaceOnUse">
<stop stop-color="#CEBB8B"/>
<stop offset="1" stop-color="#CEBB8B" stop-opacity="0.2"/>
</linearGradient>
<linearGradient id="paint168_linear_27_3542" x1="33" y1="742.31" x2="216.737" y2="742.31" gradientUnits="userSpaceOnUse">
<stop stop-color="#CEBB8B"/>
<stop offset="1" stop-color="#CEBB8B" stop-opacity="0.2"/>
</linearGradient>
<linearGradient id="paint169_linear_27_3542" x1="33" y1="742.31" x2="216.737" y2="742.31" gradientUnits="userSpaceOnUse">
<stop stop-color="#CEBB8B"/>
<stop offset="1" stop-color="#CEBB8B" stop-opacity="0.2"/>
</linearGradient>
<linearGradient id="paint170_linear_27_3542" x1="33" y1="742.31" x2="216.737" y2="742.31" gradientUnits="userSpaceOnUse">
<stop stop-color="#CEBB8B"/>
<stop offset="1" stop-color="#CEBB8B" stop-opacity="0.2"/>
</linearGradient>
<linearGradient id="paint171_linear_27_3542" x1="33" y1="742.31" x2="216.737" y2="742.31" gradientUnits="userSpaceOnUse">
<stop stop-color="#CEBB8B"/>
<stop offset="1" stop-color="#CEBB8B" stop-opacity="0.2"/>
</linearGradient>
<linearGradient id="paint172_linear_27_3542" x1="33" y1="742.31" x2="216.737" y2="742.31" gradientUnits="userSpaceOnUse">
<stop stop-color="#CEBB8B"/>
<stop offset="1" stop-color="#CEBB8B" stop-opacity="0.2"/>
</linearGradient>
<linearGradient id="paint173_linear_27_3542" x1="823" y1="469" x2="879" y2="438.5" gradientUnits="userSpaceOnUse">
<stop stop-color="#CEBB8B"/>
<stop offset="1" stop-color="#CEBB8B" stop-opacity="0.2"/>
</linearGradient>
<linearGradient id="paint174_linear_27_3542" x1="33" y1="189.132" x2="61.6472" y2="189.132" gradientUnits="userSpaceOnUse">
<stop stop-color="#CEBB8B"/>
<stop offset="1" stop-color="#CEBB8B" stop-opacity="0.2"/>
</linearGradient>
<linearGradient id="paint175_linear_27_3542" x1="598.704" y1="39.9998" x2="627.704" y2="21.9998" gradientUnits="userSpaceOnUse">
<stop stop-color="#CEBB8B"/>
<stop offset="1" stop-color="#CEBB8B" stop-opacity="0.2"/>
</linearGradient>
<linearGradient id="paint176_linear_27_3542" x1="40.7036" y1="382" x2="73.2036" y2="369.5" gradientUnits="userSpaceOnUse">
<stop stop-color="#CEBB8B"/>
<stop offset="1" stop-color="#CEBB8B" stop-opacity="0.2"/>
</linearGradient>
</defs>
</svg>
