<svg width="101" height="100" viewBox="0 0 101 100" fill="none" xmlns="http://www.w3.org/2000/svg">
<g clip-path="url(#clip0_27_3481)">
<path d="M99.0969 57.5442H1.44067C1.12987 57.5442 0.831802 57.4207 0.612033 57.201C0.392264 56.9812 0.268799 56.6831 0.268799 56.3723C0.268799 56.0615 0.392264 55.7634 0.612033 55.5437C0.831802 55.3239 1.12987 55.2004 1.44067 55.2004H99.0969C99.4077 55.2004 99.7058 55.3239 99.9256 55.5437C100.145 55.7634 100.269 56.0615 100.269 56.3723C100.269 56.6831 100.145 56.9812 99.9256 57.201C99.7058 57.4207 99.4077 57.5442 99.0969 57.5442Z" fill="#6B8EAE"/>
<path d="M99.0969 70.0442H1.44067C1.12987 70.0442 0.831802 69.9207 0.612033 69.701C0.392264 69.4812 0.268799 69.1831 0.268799 68.8723C0.268799 68.5615 0.392264 68.2634 0.612033 68.0437C0.831802 67.8239 1.12987 67.7004 1.44067 67.7004H99.0969C99.4077 67.7004 99.7058 67.8239 99.9256 68.0437C100.145 68.2634 100.269 68.5615 100.269 68.8723C100.269 69.1831 100.145 69.4812 99.9256 69.701C99.7058 69.9207 99.4077 70.0442 99.0969 70.0442Z" fill="#6B8EAE"/>
<path d="M12.75 86.6731C11.8229 86.6731 10.9166 86.3982 10.1458 85.8831C9.37491 85.368 8.7741 84.636 8.41932 83.7794C8.06453 82.9229 7.9717 81.9804 8.15257 81.0711C8.33344 80.1618 8.77988 79.3266 9.43544 78.671C10.091 78.0155 10.9262 77.569 11.8355 77.3882C12.7448 77.2073 13.6873 77.3001 14.5438 77.6549C15.4004 78.0097 16.1324 78.6105 16.6475 79.3814C17.1626 80.1522 17.4375 81.0585 17.4375 81.9856C17.4364 83.2285 16.9421 84.4201 16.0633 85.2989C15.1845 86.1777 13.9929 86.672 12.75 86.6731ZM12.75 79.6442C12.2865 79.6442 11.8333 79.7816 11.4479 80.0392C11.0625 80.2967 10.7621 80.6628 10.5847 81.091C10.4073 81.5193 10.3609 81.9905 10.4513 82.4452C10.5417 82.8998 10.7649 83.3174 11.0927 83.6452C11.4205 83.973 11.8381 84.1962 12.2928 84.2867C12.7474 84.3771 13.2187 84.3307 13.6469 84.1533C14.0752 83.9759 14.4412 83.6755 14.6988 83.2901C14.9563 82.9046 15.0938 82.4515 15.0938 81.9879C15.0938 81.3663 14.8468 80.7702 14.4073 80.3307C13.9677 79.8911 13.3716 79.6442 12.75 79.6442Z" fill="#6B8EAE"/>
<path d="M25.2688 98.5586C24.3417 98.5586 23.4354 98.2837 22.6646 97.7686C21.8937 97.2535 21.2929 96.5215 20.9381 95.6649C20.5833 94.8084 20.4905 93.8659 20.6714 92.9566C20.8522 92.0473 21.2987 91.2121 21.9542 90.5565C22.6098 89.901 23.445 89.4545 24.3543 89.2737C25.2636 89.0928 26.2061 89.1856 27.0626 89.5404C27.9192 89.8952 28.6512 90.496 29.1663 91.2669C29.6814 92.0377 29.9563 92.944 29.9563 93.8711C29.9552 95.1139 29.4609 96.3056 28.5821 97.1844C27.7033 98.0632 26.5117 98.5575 25.2688 98.5586ZM25.2688 91.5273C24.8053 91.5273 24.3521 91.6648 23.9667 91.9223C23.5813 92.1799 23.2809 92.5459 23.1035 92.9742C22.9261 93.4024 22.8797 93.8737 22.9701 94.3283C23.0605 94.783 23.2837 95.2006 23.6115 95.5284C23.9393 95.8562 24.3569 96.0794 24.8116 96.1698C25.2662 96.2602 25.7375 96.2138 26.1657 96.0364C26.594 95.859 26.96 95.5586 27.2176 95.1732C27.4751 94.7878 27.6126 94.3346 27.6126 93.8711C27.612 93.2498 27.3649 92.6542 26.9254 92.2151C26.4859 91.776 25.8901 91.5293 25.2688 91.5293V91.5273Z" fill="#6B8EAE"/>
<path d="M50.2688 98.5586C49.3417 98.5586 48.4354 98.2837 47.6646 97.7686C46.8937 97.2535 46.2929 96.5215 45.9381 95.6649C45.5833 94.8084 45.4905 93.8659 45.6714 92.9566C45.8522 92.0473 46.2987 91.2121 46.9542 90.5565C47.6098 89.901 48.445 89.4545 49.3543 89.2737C50.2636 89.0928 51.2061 89.1856 52.0626 89.5404C52.9192 89.8952 53.6512 90.496 54.1663 91.2669C54.6814 92.0377 54.9563 92.944 54.9563 93.8711C54.9552 95.1139 54.4609 96.3056 53.5821 97.1844C52.7033 98.0632 51.5117 98.5575 50.2688 98.5586ZM50.2688 91.5273C49.8053 91.5273 49.3521 91.6648 48.9667 91.9223C48.5813 92.1799 48.2809 92.5459 48.1035 92.9742C47.9261 93.4024 47.8797 93.8737 47.9701 94.3283C48.0605 94.783 48.2837 95.2006 48.6115 95.5284C48.9393 95.8562 49.3569 96.0794 49.8116 96.1698C50.2662 96.2602 50.7375 96.2138 51.1657 96.0364C51.594 95.859 51.96 95.5586 52.2176 95.1732C52.4751 94.7878 52.6126 94.3346 52.6126 93.8711C52.612 93.2498 52.3649 92.6542 51.9254 92.2151C51.4859 91.776 50.8901 91.5293 50.2688 91.5293V91.5273Z" fill="#6B8EAE"/>
<path d="M75.2688 98.5586C74.3417 98.5586 73.4354 98.2837 72.6646 97.7686C71.8937 97.2535 71.2929 96.5215 70.9381 95.6649C70.5833 94.8084 70.4905 93.8659 70.6714 92.9566C70.8522 92.0473 71.2987 91.2121 71.9542 90.5565C72.6098 89.901 73.445 89.4545 74.3543 89.2737C75.2636 89.0928 76.2061 89.1856 77.0626 89.5404C77.9192 89.8952 78.6512 90.496 79.1663 91.2669C79.6814 92.0377 79.9563 92.944 79.9563 93.8711C79.9552 95.1139 79.4609 96.3056 78.5821 97.1844C77.7033 98.0632 76.5117 98.5575 75.2688 98.5586ZM75.2688 91.5273C74.8053 91.5273 74.3521 91.6648 73.9667 91.9223C73.5813 92.1799 73.2809 92.5459 73.1035 92.9742C72.9261 93.4024 72.8797 93.8737 72.9701 94.3283C73.0605 94.783 73.2837 95.2006 73.6115 95.5284C73.9393 95.8562 74.3569 96.0794 74.8116 96.1698C75.2662 96.2602 75.7374 96.2138 76.1657 96.0364C76.594 95.859 76.96 95.5586 77.2176 95.1732C77.4751 94.7878 77.6126 94.3346 77.6126 93.8711C77.612 93.2498 77.3649 92.6542 76.9254 92.2151C76.4859 91.776 75.8901 91.5293 75.2688 91.5293V91.5273Z" fill="#6B8EAE"/>
<path d="M37.7688 86.6731C36.8417 86.6731 35.9354 86.3982 35.1646 85.8831C34.3937 85.368 33.7929 84.636 33.4381 83.7794C33.0833 82.9229 32.9905 81.9804 33.1714 81.0711C33.3522 80.1618 33.7987 79.3266 34.4542 78.671C35.1098 78.0155 35.945 77.569 36.8543 77.3882C37.7636 77.2073 38.7061 77.3001 39.5626 77.6549C40.4192 78.0097 41.1512 78.6105 41.6663 79.3814C42.1814 80.1522 42.4563 81.0585 42.4563 81.9856C42.4552 83.2285 41.9609 84.4201 41.0821 85.2989C40.2033 86.1777 39.0117 86.672 37.7688 86.6731ZM37.7688 79.6442C37.3053 79.6442 36.8521 79.7816 36.4667 80.0392C36.0813 80.2967 35.7809 80.6628 35.6035 81.091C35.4261 81.5193 35.3797 81.9905 35.4701 82.4452C35.5605 82.8998 35.7837 83.3174 36.1115 83.6452C36.4393 83.973 36.8569 84.1962 37.3116 84.2867C37.7662 84.3771 38.2375 84.3307 38.6657 84.1533C39.094 83.9759 39.46 83.6755 39.7176 83.2901C39.9751 82.9046 40.1126 82.4515 40.1126 81.9879C40.1126 81.3663 39.8656 80.7702 39.4261 80.3307C38.9865 79.8911 38.3904 79.6442 37.7688 79.6442Z" fill="#6B8EAE"/>
<path d="M62.7876 86.6731C61.8605 86.6731 60.9542 86.3982 60.1834 85.8831C59.4125 85.368 58.8117 84.636 58.4569 83.7794C58.1021 82.9229 58.0093 81.9804 58.1902 81.0711C58.371 80.1618 58.8175 79.3266 59.473 78.671C60.1286 78.0155 60.9638 77.569 61.8731 77.3882C62.7824 77.2073 63.7249 77.3001 64.5814 77.6549C65.438 78.0097 66.17 78.6105 66.6851 79.3814C67.2002 80.1522 67.4751 81.0585 67.4751 81.9856C67.474 83.2285 66.9797 84.4201 66.1009 85.2989C65.2221 86.1777 64.0305 86.672 62.7876 86.6731ZM62.7876 79.6442C62.3241 79.6442 61.8709 79.7816 61.4855 80.0392C61.1001 80.2967 60.7997 80.6628 60.6223 81.091C60.4449 81.5193 60.3984 81.9905 60.4889 82.4452C60.5793 82.8998 60.8025 83.3174 61.1303 83.6452C61.4581 83.973 61.8757 84.1962 62.3304 84.2867C62.785 84.3771 63.2562 84.3307 63.6845 84.1533C64.1128 83.9759 64.4788 83.6755 64.7364 83.2901C64.9939 82.9046 65.1314 82.4515 65.1314 81.9879C65.1314 81.3663 64.8844 80.7702 64.4449 80.3307C64.0053 79.8911 63.4092 79.6442 62.7876 79.6442Z" fill="#6B8EAE"/>
<path d="M87.8079 86.6731C86.8808 86.6731 85.9745 86.3982 85.2036 85.8831C84.4328 85.368 83.832 84.636 83.4772 83.7794C83.1224 82.9229 83.0296 81.9804 83.2104 81.0711C83.3913 80.1618 83.8377 79.3266 84.4933 78.671C85.1489 78.0155 85.9841 77.569 86.8934 77.3882C87.8027 77.2073 88.7452 77.3001 89.6017 77.6549C90.4582 78.0097 91.1903 78.6105 91.7054 79.3814C92.2204 80.1522 92.4954 81.0585 92.4954 81.9856C92.4942 83.2285 92 84.4201 91.1212 85.2989C90.2423 86.1777 89.0507 86.672 87.8079 86.6731ZM87.8079 79.6442C87.3443 79.6442 86.8912 79.7816 86.5057 80.0392C86.1203 80.2967 85.8199 80.6628 85.6425 81.091C85.4651 81.5193 85.4187 81.9905 85.5091 82.4452C85.5996 82.8998 85.8228 83.3174 86.1506 83.6452C86.4784 83.973 86.896 84.1962 87.3506 84.2867C87.8053 84.3771 88.2765 84.3307 88.7048 84.1533C89.133 83.9759 89.4991 83.6755 89.7566 83.2901C90.0142 82.9046 90.1516 82.4515 90.1516 81.9879C90.1516 81.3663 89.9047 80.7702 89.4651 80.3307C89.0256 79.8911 88.4295 79.6442 87.8079 79.6442Z" fill="#6B8EAE"/>
<path d="M19.5306 48.6117C19.2742 48.6118 19.0247 48.5279 18.8206 48.3726C18.6165 48.2174 18.4689 47.9995 18.4005 47.7523L18.3966 47.7383C18.3927 47.7273 18.3892 47.7144 18.3849 47.6992C18.2443 47.2512 17.1392 43.9957 14.3068 42.4523C12.4939 41.4644 10.2908 41.3586 7.75873 42.1312C7.61062 42.1799 7.4543 42.1985 7.29891 42.186C7.14353 42.1734 6.9922 42.13 6.8538 42.0583C6.71539 41.9866 6.59269 41.8879 6.49288 41.7682C6.39307 41.6484 6.31816 41.51 6.27252 41.3609C6.22689 41.2118 6.21146 41.0552 6.22713 40.9001C6.2428 40.745 6.28925 40.5946 6.36378 40.4576C6.4383 40.3207 6.5394 40.2 6.66114 40.1027C6.78289 40.0053 6.92284 39.9332 7.07279 39.8906C9.60482 39.1156 11.3697 37.793 12.3189 35.9594C13.9064 32.8937 12.756 29.3101 12.7443 29.2742C12.6972 29.1263 12.6801 28.9705 12.6937 28.8159C12.7074 28.6613 12.7516 28.511 12.8239 28.3736C12.8961 28.2362 12.9949 28.1146 13.1145 28.0157C13.2342 27.9169 13.3723 27.8427 13.5208 27.7977C13.6693 27.7526 13.8253 27.7375 13.9797 27.7532C14.1341 27.7689 14.2838 27.8152 14.4202 27.8892C14.5566 27.9633 14.677 28.0637 14.7742 28.1846C14.8715 28.3056 14.9438 28.4446 14.9869 28.5937C14.9962 28.6273 16.049 32.2406 19.0806 33.8926C20.8931 34.8793 23.0962 34.9863 25.6279 34.2129C25.7759 34.1647 25.932 34.1464 26.0871 34.1592C26.2422 34.172 26.3932 34.2155 26.5313 34.2873C26.6694 34.3591 26.7918 34.4576 26.8914 34.5772C26.991 34.6968 27.0658 34.8351 27.1113 34.9839C27.1569 35.1327 27.1724 35.2891 27.1569 35.444C27.1414 35.5988 27.0951 35.7491 27.0209 35.8859C26.9467 36.0227 26.846 36.1433 26.7247 36.2408C26.6033 36.3382 26.4638 36.4106 26.3142 36.4535C23.7822 37.2289 22.0173 38.5515 21.0681 40.3851C19.5732 43.2722 20.5064 46.6187 20.6302 47.0289L20.6349 47.0445L20.6431 47.0703C20.7016 47.2465 20.7175 47.434 20.6894 47.6175C20.6612 47.801 20.5899 47.9751 20.4812 48.1256C20.3726 48.2762 20.2298 48.3987 20.0645 48.4832C19.8992 48.5677 19.7162 48.6118 19.5306 48.6117ZM12.6216 39.4203C13.6128 39.5905 14.5687 39.9246 15.4501 40.409C16.407 40.9399 17.2687 41.6263 18.0001 42.4402C18.1505 41.3563 18.4806 40.305 18.9767 39.3297C19.4362 38.435 20.0411 37.6228 20.7669 36.9265C19.7752 36.7561 18.8188 36.4219 17.9369 35.9375C16.9797 35.4068 16.1176 34.7203 15.3861 33.9062C15.2356 34.9903 14.9056 36.0416 14.4095 37.0172C13.9506 37.9116 13.3464 38.7237 12.6216 39.4203Z" fill="#6B8EAE"/>
<path d="M71.3043 48.9082C71.133 48.9084 70.9638 48.871 70.8086 48.7987C70.6534 48.7264 70.5158 48.621 70.4057 48.4898C70.2956 48.3587 70.2156 48.205 70.1713 48.0396C70.1269 47.8742 70.1194 47.701 70.1492 47.5324C70.1523 47.5129 70.5398 45.0941 69.2375 43.2984C68.4633 42.232 67.2086 41.5625 65.5086 41.3086C65.2311 41.2672 64.9777 41.1276 64.7944 40.9152C64.6112 40.7028 64.5102 40.4317 64.5098 40.1512C64.5098 40.0927 64.5141 40.0344 64.5227 39.9766C64.5454 39.8243 64.5979 39.6781 64.6771 39.5461C64.7564 39.4142 64.8609 39.2991 64.9846 39.2076C65.1084 39.116 65.2489 39.0497 65.3983 39.0125C65.5476 38.9753 65.7028 38.9678 65.8551 38.9906C67.5621 39.2445 68.9625 38.9683 70.016 38.1668C71.7691 36.8328 72.1086 34.4168 72.1113 34.3945C72.1341 34.2423 72.1866 34.096 72.2659 33.9641C72.3452 33.8322 72.4497 33.7172 72.5735 33.6257C72.6972 33.5341 72.8378 33.4679 72.9871 33.4306C73.1365 33.3934 73.2917 33.386 73.4439 33.4088C73.5962 33.4316 73.7424 33.4841 73.8743 33.5634C74.0063 33.6427 74.1213 33.7472 74.2128 33.8709C74.3043 33.9947 74.3706 34.1352 74.4078 34.2846C74.445 34.434 74.4525 34.5892 74.4297 34.7414C74.4262 34.7605 74.0391 37.1789 75.3414 38.9746C76.1152 40.041 77.3699 40.7105 79.0699 40.9644C79.3475 41.0058 79.6009 41.1453 79.7843 41.3577C79.9677 41.5701 80.0687 41.8413 80.0691 42.1219C80.0691 42.1803 80.0647 42.2387 80.0559 42.2965C80.01 42.6039 79.8438 42.8804 79.594 43.0653C79.3442 43.2502 79.0312 43.3283 78.7238 43.2824C77.0164 43.0273 75.616 43.3047 74.5625 44.1062C72.8098 45.4402 72.4703 47.8562 72.4676 47.8785C72.4329 48.1626 72.2954 48.4241 72.0811 48.6138C71.8668 48.8035 71.5905 48.9082 71.3043 48.9082ZM70.1191 40.8121C70.5053 41.1486 70.8513 41.5288 71.15 41.9449C71.4747 42.398 71.7435 42.8886 71.9504 43.4062C72.2998 42.9718 72.7004 42.5811 73.1434 42.2426C73.5503 41.9318 73.9921 41.6696 74.4598 41.4613C74.0736 41.1248 73.7276 40.7446 73.4289 40.3285C73.104 39.8755 72.8352 39.3848 72.6281 38.8672C72.2789 39.3017 71.8785 39.6924 71.4355 40.0308C71.0285 40.3414 70.5868 40.6036 70.1191 40.8121Z" fill="#6B8EAE"/>
<path d="M49.6047 22.3371C49.441 22.3373 49.2791 22.3032 49.1294 22.237C48.9797 22.1708 48.8455 22.074 48.7355 21.9527C48.6255 21.8315 48.5421 21.6886 48.4907 21.5332C48.4393 21.3778 48.4211 21.2133 48.4371 21.0504V21.0395C48.4371 21.027 48.4371 21.0133 48.4402 21.0004C48.4691 20.55 48.6023 17.2727 46.6137 14.9285C45.341 13.4281 43.4176 12.5758 40.8969 12.3957C40.6015 12.3746 40.325 12.2424 40.1231 12.0257C39.9212 11.809 39.8088 11.5239 39.8086 11.2278C39.8086 11.1996 39.8086 11.1715 39.8113 11.143C39.8216 10.9892 39.8622 10.839 39.9308 10.7011C39.9994 10.5631 40.0947 10.4401 40.2112 10.3392C40.3276 10.2383 40.4629 10.1615 40.6093 10.1132C40.7556 10.0649 40.91 10.0461 41.0637 10.0578C43.5855 10.2391 45.6102 9.66721 47.084 8.36447C49.4027 6.31252 49.7254 3.01799 49.757 2.60276V2.58166V2.55979C49.7796 2.24976 49.9244 1.96141 50.1596 1.75816C50.2761 1.65752 50.4112 1.5808 50.5573 1.53239C50.7034 1.48398 50.8576 1.46482 51.0111 1.476C51.1646 1.48718 51.3144 1.52849 51.452 1.59757C51.5895 1.66664 51.7121 1.76213 51.8128 1.87859C51.9134 1.99504 51.9901 2.13018 52.0385 2.27628C52.0869 2.42238 52.1061 2.57659 52.0949 2.7301V2.74104C52.0949 2.75354 52.0949 2.76721 52.0918 2.78205C52.0629 3.23283 51.9297 6.50979 53.9184 8.85393C55.191 10.3543 57.1145 11.2067 59.6352 11.3871C59.9305 11.4083 60.2069 11.5404 60.4088 11.757C60.6107 11.9736 60.7231 12.2586 60.7234 12.5547C60.7234 12.5828 60.7234 12.611 60.7207 12.6395C60.7101 12.7931 60.6693 12.9431 60.6005 13.0809C60.5318 13.2187 60.4365 13.3415 60.3201 13.4424C60.2037 13.5432 60.0686 13.62 59.9224 13.6685C59.7762 13.7169 59.6219 13.736 59.4684 13.7246C56.9465 13.5449 54.9219 14.1153 53.4481 15.418C51.1293 17.4699 50.8066 20.7645 50.775 21.1797V21.2008V21.2227C50.7595 21.5229 50.6295 21.8057 50.4119 22.013C50.1942 22.2203 49.9053 22.3363 49.6047 22.3371ZM46.2957 11.6051C47.0968 12.0954 47.8135 12.7116 48.4184 13.4301C49.0738 14.2144 49.5978 15.0997 49.9699 16.0516C50.4741 15.1624 51.1189 14.3608 51.8793 13.6778C52.5804 13.0529 53.3776 12.5449 54.2402 12.1735C53.4392 11.6832 52.7224 11.067 52.1176 10.3485C51.4622 9.5642 50.9382 8.67889 50.566 7.72697C50.0619 8.61612 49.4171 9.41777 48.6566 10.1008C47.9557 10.7256 47.1588 11.2336 46.2965 11.6051H46.2957Z" fill="#6B8EAE"/>
<path d="M20.0914 16.832H17.7214C17.4106 16.832 17.1126 16.7086 16.8928 16.4888C16.673 16.269 16.5496 15.971 16.5496 15.6602C16.5496 15.3494 16.673 15.0513 16.8928 14.8315C17.1126 14.6117 17.4106 14.4883 17.7214 14.4883H20.0914C20.4022 14.4883 20.7002 14.6117 20.92 14.8315C21.1398 15.0513 21.2632 15.3494 21.2632 15.6602C21.2632 15.971 21.1398 16.269 20.92 16.4888C20.7002 16.7086 20.4022 16.832 20.0914 16.832Z" fill="#6B8EAE"/>
<path d="M22.4954 21.6015C22.1846 21.6015 21.8865 21.4781 21.6667 21.2583C21.447 21.0385 21.3235 20.7405 21.3235 20.4297V18.0609C21.3235 17.7501 21.447 17.452 21.6667 17.2323C21.8865 17.0125 22.1846 16.889 22.4954 16.889C22.8062 16.889 23.1042 17.0125 23.324 17.2323C23.5438 17.452 23.6672 17.7501 23.6672 18.0609V20.4297C23.6672 20.7405 23.5438 21.0385 23.324 21.2583C23.1042 21.4781 22.8062 21.6015 22.4954 21.6015Z" fill="#6B8EAE"/>
<path d="M27.2645 16.8308H24.8945C24.5837 16.8308 24.2857 16.7073 24.0659 16.4876C23.8461 16.2678 23.7227 15.9697 23.7227 15.6589C23.7227 15.3481 23.8461 15.0501 24.0659 14.8303C24.2857 14.6105 24.5837 14.4871 24.8945 14.4871H27.2645C27.5753 14.4871 27.8733 14.6105 28.0931 14.8303C28.3129 15.0501 28.4363 15.3481 28.4363 15.6589C28.4363 15.9697 28.3129 16.2678 28.0931 16.4876C27.8733 16.7073 27.5753 16.8308 27.2645 16.8308Z" fill="#6B8EAE"/>
<path d="M22.4927 14.4297C22.1819 14.4297 21.8838 14.3062 21.664 14.0865C21.4443 13.8667 21.3208 13.5686 21.3208 13.2578V10.8883C21.3208 10.5775 21.4443 10.2794 21.664 10.0597C21.8838 9.8399 22.1819 9.71643 22.4927 9.71643C22.8035 9.71643 23.1015 9.8399 23.3213 10.0597C23.5411 10.2794 23.6646 10.5775 23.6646 10.8883V13.2578C23.6646 13.5686 23.5411 13.8667 23.3213 14.0865C23.1015 14.3062 22.8035 14.4297 22.4927 14.4297Z" fill="#6B8EAE"/>
<path d="M84.4125 24.8684H82.1335C81.8227 24.8684 81.5247 24.7449 81.3049 24.5252C81.0851 24.3054 80.9617 24.0073 80.9617 23.6965C80.9617 23.3857 81.0851 23.0877 81.3049 22.8679C81.5247 22.6481 81.8227 22.5247 82.1335 22.5247H84.4125C84.7233 22.5247 85.0213 22.6481 85.2411 22.8679C85.4609 23.0877 85.5843 23.3857 85.5843 23.6965C85.5843 24.0073 85.4609 24.3054 85.2411 24.5252C85.0213 24.7449 84.7233 24.8684 84.4125 24.8684Z" fill="#6B8EAE"/>
<path d="M86.7224 29.4563C86.4116 29.4563 86.1135 29.3328 85.8938 29.1131C85.674 28.8933 85.5505 28.5952 85.5505 28.2844V26.0051C85.5505 25.6943 85.674 25.3963 85.8938 25.1765C86.1135 24.9567 86.4116 24.8333 86.7224 24.8333C87.0332 24.8333 87.3313 24.9567 87.5511 25.1765C87.7708 25.3963 87.8943 25.6943 87.8943 26.0051V28.2844C87.8943 28.5952 87.7708 28.8933 87.5511 29.1131C87.3313 29.3328 87.0332 29.4563 86.7224 29.4563Z" fill="#6B8EAE"/>
<path d="M91.3103 24.8672H89.031C88.7202 24.8672 88.4221 24.7437 88.2024 24.524C87.9826 24.3042 87.8591 24.0061 87.8591 23.6953C87.8591 23.3845 87.9826 23.0864 88.2024 22.8667C88.4221 22.6469 88.7202 22.5234 89.031 22.5234H91.3103C91.6211 22.5234 91.9192 22.6469 92.1389 22.8667C92.3587 23.0864 92.4822 23.3845 92.4822 23.6953C92.4822 24.0061 92.3587 24.3042 92.1389 24.524C91.9192 24.7437 91.6211 24.8672 91.3103 24.8672Z" fill="#6B8EAE"/>
<path d="M86.7212 22.5586C86.4104 22.5586 86.1123 22.4351 85.8926 22.2153C85.6728 21.9956 85.5493 21.6975 85.5493 21.3867V19.1078C85.5493 18.797 85.6728 18.4989 85.8926 18.2791C86.1123 18.0594 86.4104 17.9359 86.7212 17.9359C87.032 17.9359 87.3301 18.0594 87.5498 18.2791C87.7696 18.4989 87.8931 18.797 87.8931 19.1078V21.3867C87.8931 21.6975 87.7696 21.9956 87.5498 22.2153C87.3301 22.4351 87.032 22.5586 86.7212 22.5586Z" fill="#6B8EAE"/>
</g>
<defs>
<clipPath id="clip0_27_3481">
<rect width="100" height="100" fill="white" transform="translate(0.268799)"/>
</clipPath>
</defs>
</svg>
